<svg width="60" height="60" viewBox="0 0 60 60" fill="none" xmlns="http://www.w3.org/2000/svg">
<circle cx="30" cy="30" r="30" fill="white"/>
<path d="M46.4844 13.5938H22.8906C20.9521 13.5938 19.375 15.1709 19.375 17.1094V18.2812H18.2031C16.2646 18.2812 14.6875 19.8584 14.6875 21.7969V22.9688H13.5156C11.5724 22.9688 10 24.552 10 26.4844V42.8906C10 44.8293 11.5803 46.4062 13.5156 46.4062H36.9531C38.8844 46.4062 40.4688 44.8337 40.4688 42.8906V41.7188H41.7969C43.7354 41.7188 45.3125 40.1416 45.3125 38.2031V37.0312H46.4844C48.4229 37.0312 50 35.4541 50 33.5156V17.1094C50 15.1709 48.4229 13.5938 46.4844 13.5938ZM36.3555 25.3125L26.0669 35.6977C25.608 36.1609 24.8608 36.1609 24.4019 35.6977L14.1133 25.3125H36.3555ZM12.3438 42.4052V26.8566L20.0818 34.6673L12.3438 42.4052ZM14.001 44.0625L21.7313 36.3323L22.7369 37.3473C24.1137 38.737 26.3552 38.7369 27.732 37.3473L28.7375 36.3323L36.4677 44.0625H14.001ZM38.125 42.4053L30.387 34.6673L38.125 26.8566V42.4053ZM42.9688 38.2031C42.9688 38.8493 42.443 39.375 41.7969 39.375H40.4688V26.4844C40.4688 24.5525 38.8968 22.9688 36.9531 22.9688H17.0312V21.7969C17.0312 21.1507 17.557 20.625 18.2031 20.625H41.7969C42.443 20.625 42.9688 21.1507 42.9688 21.7969V38.2031ZM47.6562 33.5156C47.6562 34.1618 47.1305 34.6875 46.4844 34.6875H45.3125V21.7969C45.3125 19.8584 43.7354 18.2812 41.7969 18.2812H21.7188V17.1094C21.7188 16.4632 22.2445 15.9375 22.8906 15.9375H46.4844C47.1305 15.9375 47.6562 16.4632 47.6562 17.1094V33.5156Z" fill="#12121A"/>
</svg>
