<svg width="379" height="151" viewBox="0 0 379 151" fill="none" xmlns="http://www.w3.org/2000/svg">
<path opacity="0.8" d="M243.52 86V87H244.52V86H243.52ZM224.64 86H223.64V87H224.64V86ZM224.64 59.32V58.32H223.64V59.32H224.64ZM243.52 59.32H244.52V58.32H243.52V59.32ZM243.52 64.32V65.32H244.52V64.32H243.52ZM230.32 64.32V63.32H229.32V64.32H230.32ZM230.32 69.96H229.32V70.96H230.32V69.96ZM243.24 69.96H244.24V68.96H243.24V69.96ZM243.24 74.96V75.96H244.24V74.96H243.24ZM230.32 74.96V73.96H229.32V74.96H230.32ZM230.32 81H229.32V82H230.32V81ZM243.52 81H244.52V80H243.52V81ZM243.52 85H224.64V87H243.52V85ZM225.64 86V59.32H223.64V86H225.64ZM224.64 60.32H243.52V58.32H224.64V60.32ZM242.52 59.32V64.32H244.52V59.32H242.52ZM243.52 63.32H230.32V65.32H243.52V63.32ZM229.32 64.32V69.96H231.32V64.32H229.32ZM230.32 70.96H243.24V68.96H230.32V70.96ZM242.24 69.96V74.96H244.24V69.96H242.24ZM243.24 73.96H230.32V75.96H243.24V73.96ZM229.32 74.96V81H231.32V74.96H229.32ZM230.32 82H243.52V80H230.32V82ZM242.52 81V86H244.52V81H242.52ZM269.96 86V87H270.96V86H269.96ZM264.88 86H263.88V87H264.88V86ZM256.92 73L256.109 72.4161L255.92 72.6777V73H256.92ZM256.92 86V87H257.92V86H256.92ZM251.84 86H250.84V87H251.84V86ZM251.84 66.68V65.68H250.84V66.68H251.84ZM256.92 66.68H257.92V65.68H256.92V66.68ZM256.92 69.2H255.92V71.9452L257.686 69.8432L256.92 69.2ZM268.36 67.84L267.636 68.5293L267.645 68.5383L268.36 67.84ZM269.96 85H264.88V87H269.96V85ZM265.88 86V74.32H263.88V86H265.88ZM265.88 74.32C265.88 72.9686 265.546 71.7709 264.701 70.9169C263.855 70.0607 262.664 69.72 261.32 69.72V71.72C262.35 71.72 262.939 71.9793 263.279 72.3231C263.621 72.6691 263.88 73.2713 263.88 74.32H265.88ZM261.32 69.72C259.152 69.72 257.386 70.6403 256.109 72.4161L257.732 73.5839C258.641 72.3197 259.809 71.72 261.32 71.72V69.72ZM255.92 73V86H257.92V73H255.92ZM256.92 85H251.84V87H256.92V85ZM252.84 86V66.68H250.84V86H252.84ZM251.84 67.68H256.92V65.68H251.84V67.68ZM255.92 66.68V69.2H257.92V66.68H255.92ZM257.686 69.8432C259.159 68.0897 261.121 67.2 263.68 67.2V65.2C260.586 65.2 258.042 66.3103 256.155 68.5568L257.686 69.8432ZM263.68 67.2C265.593 67.2 266.847 67.7002 267.636 68.5292L269.085 67.1508C267.793 65.7931 265.928 65.2 263.68 65.2V67.2ZM267.645 68.5383C268.485 69.3999 268.96 70.6305 268.96 72.36H270.96C270.96 70.2495 270.369 68.4668 269.076 67.1417L267.645 68.5383ZM268.96 72.36V86H270.96V72.36H268.96ZM278.604 90.96L277.754 90.4333L277.306 91.1573L277.949 91.7154L278.604 90.96ZM280.884 87.28L281.628 86.611L280.736 85.6205L280.034 86.7533L280.884 87.28ZM290.644 88.52L290.071 87.7008L290.059 87.709L290.048 87.7175L290.644 88.52ZM292.244 82.84H293.244V79.9595L291.459 82.2204L292.244 82.84ZM280.124 83.32L279.384 83.9921L279.389 83.9981L279.395 84.0039L280.124 83.32ZM280.124 68.8L279.39 68.1217L279.384 68.1279L280.124 68.8ZM292.244 69.16L291.462 69.7834L293.244 72.0183V69.16H292.244ZM292.244 66.68V65.68H291.244V66.68H292.244ZM297.364 66.68H298.364V65.68H297.364V66.68ZM296.404 89.2L295.514 88.7452L295.51 88.7528L295.506 88.7604L296.404 89.2ZM293.884 92.04L294.399 92.8975L294.399 92.8975L293.884 92.04ZM290.564 93.4L290.338 92.426L290.324 92.4291L290.311 92.4326L290.564 93.4ZM290.364 80.72L289.906 79.8314L289.906 79.8314L290.364 80.72ZM292.244 79.16L293.065 79.7311L293.244 79.4736V79.16H292.244ZM292.244 72.92H293.244V72.6172L293.076 72.3653L292.244 72.92ZM290.364 71.36L289.894 72.2424L289.911 72.2516L289.929 72.2602L290.364 71.36ZM284.324 72.16L283.597 71.4734L283.592 71.4788L283.587 71.4843L284.324 72.16ZM284.324 79.92L283.587 80.5957L283.592 80.6012L283.597 80.6066L284.324 79.92ZM286.924 92.84C283.796 92.84 281.266 91.9452 279.26 90.2046L277.949 91.7154C280.369 93.8148 283.386 94.84 286.924 94.84V92.84ZM279.454 91.4867L281.734 87.8067L280.034 86.7533L277.754 90.4333L279.454 91.4867ZM280.141 87.949C281.809 89.8019 284.116 90.68 286.924 90.68V88.68C284.559 88.68 282.84 87.9581 281.628 86.611L280.141 87.949ZM286.924 90.68C288.554 90.68 290.009 90.2383 291.241 89.3225L290.048 87.7175C289.199 88.3484 288.175 88.68 286.924 88.68V90.68ZM291.218 89.3392C292.636 88.3463 293.244 86.7409 293.244 84.8H291.244C291.244 86.3258 290.786 87.2003 290.071 87.7008L291.218 89.3392ZM293.244 84.8V82.84H291.244V84.8H293.244ZM291.459 82.2204C290.03 84.0311 288.322 84.88 286.284 84.88V86.88C288.993 86.88 291.259 85.7023 293.029 83.4596L291.459 82.2204ZM286.284 84.88C284.032 84.88 282.25 84.1255 280.854 82.6361L279.395 84.0039C281.198 85.9278 283.523 86.88 286.284 86.88V84.88ZM280.865 82.6479C279.508 81.1526 278.764 78.9957 278.764 76.04H276.764C276.764 79.3243 277.594 82.0207 279.384 83.9921L280.865 82.6479ZM278.764 76.04C278.764 73.1136 279.506 70.9688 280.865 69.4721L279.384 68.1279C277.596 70.0978 276.764 72.7798 276.764 76.04H278.764ZM280.859 69.4783C282.257 67.964 284.037 67.2 286.284 67.2V65.2C283.518 65.2 281.192 66.1693 279.39 68.1217L280.859 69.4783ZM286.284 67.2C288.362 67.2 290.068 68.0339 291.462 69.7834L293.026 68.5366C291.275 66.3395 289.006 65.2 286.284 65.2V67.2ZM293.244 69.16V66.68H291.244V69.16H293.244ZM292.244 67.68H297.364V65.68H292.244V67.68ZM296.364 66.68V84.68H298.364V66.68H296.364ZM296.364 84.68C296.364 86.3207 296.066 87.6636 295.514 88.7452L297.295 89.6548C298.023 88.2297 298.364 86.5593 298.364 84.68H296.364ZM295.506 88.7604C294.967 89.8621 294.251 90.6536 293.37 91.1825L294.399 92.8975C295.651 92.1464 296.615 91.0445 297.303 89.6396L295.506 88.7604ZM293.37 91.1825C292.387 91.772 291.377 92.1842 290.338 92.426L290.791 94.374C292.045 94.0824 293.248 93.588 294.399 92.8975L293.37 91.1825ZM290.311 92.4326C289.284 92.7017 288.156 92.84 286.924 92.84V94.84C288.306 94.84 289.605 94.6849 290.818 94.3674L290.311 92.4326ZM287.884 82.36C288.89 82.36 289.873 82.0992 290.823 81.6086L289.906 79.8314C289.203 80.1941 288.532 80.36 287.884 80.36V82.36ZM290.823 81.6086C291.76 81.1252 292.525 80.5071 293.065 79.7311L291.423 78.5889C291.11 79.0396 290.622 79.4615 289.906 79.8314L290.823 81.6086ZM293.244 79.16V72.92H291.244V79.16H293.244ZM293.076 72.3653C292.533 71.5504 291.756 70.9224 290.8 70.4598L289.929 72.2602C290.626 72.5976 291.102 73.0096 291.412 73.4747L293.076 72.3653ZM290.835 70.4776C289.899 69.9787 288.912 69.72 287.884 69.72V71.72C288.563 71.72 289.229 71.888 289.894 72.2424L290.835 70.4776ZM287.884 69.72C286.176 69.72 284.715 70.2901 283.597 71.4734L285.051 72.8466C285.747 72.1099 286.659 71.72 287.884 71.72V69.72ZM283.587 71.4843C282.499 72.6716 282.004 74.2281 282.004 76.04H284.004C284.004 74.5985 284.39 73.5684 285.062 72.8357L283.587 71.4843ZM282.004 76.04C282.004 77.8519 282.499 79.4084 283.587 80.5957L285.062 79.2443C284.39 78.5116 284.004 77.4815 284.004 76.04H282.004ZM283.597 80.6066C284.715 81.7899 286.176 82.36 287.884 82.36V80.36C286.659 80.36 285.747 79.9701 285.051 79.2334L283.597 80.6066ZM311.483 86V87H312.483V86H311.483ZM306.403 86H305.403V87H306.403V86ZM306.403 59.32V58.32H305.403V59.32H306.403ZM311.483 59.32H312.483V58.32H311.483V59.32ZM311.483 85H306.403V87H311.483V85ZM307.403 86V59.32H305.403V86H307.403ZM306.403 60.32H311.483V58.32H306.403V60.32ZM310.483 59.32V86H312.483V59.32H310.483ZM320.88 63.72L320.157 64.4112L320.173 64.4273L320.189 64.4426L320.88 63.72ZM320.88 59.44L320.189 58.7174L320.181 58.725L320.173 58.7329L320.88 59.44ZM325.2 63.72L325.907 64.4271L325.915 64.4192L325.923 64.4112L325.2 63.72ZM325.6 86V87H326.6V86H325.6ZM320.52 86H319.52V87H320.52V86ZM320.52 66.68V65.68H319.52V66.68H320.52ZM325.6 66.68H326.6V65.68H325.6V66.68ZM323.04 63.6C322.478 63.6 322.004 63.4113 321.571 62.9974L320.189 64.4426C320.983 65.202 321.948 65.6 323.04 65.6V63.6ZM321.603 63.0288C321.189 62.596 321 62.1216 321 61.56H319C319 62.6517 319.398 63.6173 320.157 64.4112L321.603 63.0288ZM321 61.56C321 60.9996 321.187 60.547 321.587 60.1471L320.173 58.7329C319.399 59.5063 319 60.467 319 61.56H321ZM321.571 60.1626C322.004 59.7487 322.478 59.56 323.04 59.56V57.56C321.948 57.56 320.983 57.958 320.189 58.7174L321.571 60.1626ZM323.04 59.56C323.637 59.56 324.1 59.7539 324.493 60.1471L325.907 58.7329C325.127 57.9528 324.15 57.56 323.04 57.56V59.56ZM324.493 60.1471C324.893 60.547 325.08 60.9996 325.08 61.56H327.08C327.08 60.467 326.681 59.5063 325.907 58.7329L324.493 60.1471ZM325.08 61.56C325.08 62.1216 324.891 62.596 324.477 63.0288L325.923 64.4112C326.682 63.6173 327.08 62.6517 327.08 61.56H325.08ZM324.493 63.0129C324.1 63.4061 323.637 63.6 323.04 63.6V65.6C324.15 65.6 325.127 65.2072 325.907 64.4271L324.493 63.0129ZM325.6 85H320.52V87H325.6V85ZM321.52 86V66.68H319.52V86H321.52ZM320.52 67.68H325.6V65.68H320.52V67.68ZM324.6 66.68V86H326.6V66.68H324.6ZM336.757 85.68L336.426 86.6236L336.431 86.6254L336.757 85.68ZM332.957 83.48L332.107 82.9543L331.673 83.6564L332.28 84.2155L332.957 83.48ZM335.157 79.92L335.838 79.1872L334.946 78.3593L334.307 79.3943L335.157 79.92ZM338.197 81.76L338.582 80.8369L338.582 80.8369L338.197 81.76ZM344.237 82L343.682 81.1679L343.673 81.1743L343.664 81.1808L344.237 82ZM344.197 79.32L343.701 80.1882L343.725 80.202L343.75 80.2144L344.197 79.32ZM342.077 78.64L341.918 79.6273L341.923 79.628L342.077 78.64ZM339.317 78.04L339.056 79.0054L339.063 79.0071L339.317 78.04ZM336.557 77.08L336.146 77.9914L336.156 77.9962L336.557 77.08ZM334.437 75.32L333.609 75.8808L333.62 75.8963L333.631 75.9114L334.437 75.32ZM335.717 67.96L335.078 67.1906L335.078 67.1906L335.717 67.96ZM349.317 68.84L350.18 69.3457L350.619 68.5973L349.94 68.0573L349.317 68.84ZM347.277 72.32L346.555 73.0119L347.471 73.9672L348.14 72.8257L347.277 72.32ZM344.797 70.72L344.409 71.6417L344.418 71.6452L344.797 70.72ZM339.357 70.64L339.884 71.4903L339.898 71.4814L339.912 71.472L339.357 70.64ZM339.357 73.08L338.893 73.9658L338.91 73.9747L338.927 73.9829L339.357 73.08ZM341.477 73.68L341.632 72.692L341.632 72.692L341.477 73.68ZM344.237 74.32L343.952 75.2785L343.964 75.2821L343.976 75.2854L344.237 74.32ZM346.997 75.32L346.573 76.2255L346.584 76.231L346.596 76.2362L346.997 75.32ZM347.717 84.76L348.333 85.5478L348.335 85.5463L347.717 84.76ZM341.597 85.48C340.025 85.48 338.522 85.2308 337.083 84.7346L336.431 86.6254C338.086 87.1958 339.809 87.48 341.597 87.48V85.48ZM337.088 84.7364C335.675 84.2406 334.532 83.5713 333.635 82.7445L332.28 84.2155C333.409 85.2553 334.799 86.0527 336.426 86.6236L337.088 84.7364ZM333.808 84.0057L336.008 80.4457L334.307 79.3943L332.107 82.9543L333.808 84.0057ZM334.477 80.6528C335.335 81.4498 336.46 82.1196 337.813 82.6831L338.582 80.8369C337.374 80.3337 336.473 79.7769 335.838 79.1872L334.477 80.6528ZM337.813 82.6831C339.19 83.2568 340.534 83.56 341.837 83.56V81.56C340.847 81.56 339.765 81.3299 338.582 80.8369L337.813 82.6831ZM341.837 83.56C342.99 83.56 344.033 83.3638 344.811 82.8192L343.664 81.1808C343.375 81.3828 342.818 81.56 341.837 81.56V83.56ZM344.792 82.8321C345.613 82.2847 346.077 81.4745 346.077 80.48H344.077C344.077 80.7655 343.981 80.9686 343.682 81.1679L344.792 82.8321ZM346.077 80.48C346.077 79.4834 345.426 78.8164 344.644 78.4256L343.75 80.2144C343.952 80.3154 344.033 80.3984 344.06 80.4344C344.073 80.4504 344.075 80.4579 344.075 80.4581C344.075 80.4582 344.077 80.4636 344.077 80.48H346.077ZM344.693 78.4518C343.999 78.0547 343.167 77.7981 342.232 77.652L341.923 79.628C342.694 79.7485 343.276 79.9453 343.701 80.1882L344.693 78.4518ZM342.236 77.6528C341.449 77.5257 340.561 77.3333 339.572 77.0729L339.063 79.0071C340.1 79.2801 341.052 79.4876 341.918 79.6272L342.236 77.6528ZM339.578 77.0746C338.635 76.8197 337.762 76.5155 336.958 76.1638L336.156 77.9962C337.059 78.3911 338.026 78.727 339.056 79.0054L339.578 77.0746ZM336.969 76.1686C336.314 75.8727 335.738 75.4031 335.244 74.7286L333.631 75.9114C334.31 76.8369 335.148 77.5406 336.146 77.9914L336.969 76.1686ZM335.265 74.7592C334.838 74.129 334.597 73.3211 334.597 72.28H332.597C332.597 73.6389 332.916 74.8577 333.609 75.8808L335.265 74.7592ZM334.597 72.28C334.597 70.8957 335.152 69.7293 336.356 68.7294L335.078 67.1906C333.456 68.5374 332.597 70.251 332.597 72.28H334.597ZM336.356 68.7294C337.537 67.7486 339.218 67.2 341.517 67.2V65.2C338.909 65.2 336.724 65.8247 335.078 67.1906L336.356 68.7294ZM341.517 67.2C344.291 67.2 346.669 68.0117 348.695 69.6227L349.94 68.0573C347.539 66.1483 344.716 65.2 341.517 65.2V67.2ZM348.454 68.3343L346.414 71.8143L348.14 72.8257L350.18 69.3457L348.454 68.3343ZM347.999 71.6281C347.267 70.8641 346.313 70.2608 345.177 69.7948L344.418 71.6452C345.362 72.0325 346.061 72.4959 346.555 73.0119L347.999 71.6281ZM345.185 69.7984C344.044 69.3178 342.831 69.08 341.557 69.08V71.08C342.576 71.08 343.524 71.2689 344.409 71.6416L345.185 69.7984ZM341.557 69.08C340.52 69.08 339.575 69.2931 338.802 69.808L339.912 71.472C340.26 71.2402 340.781 71.08 341.557 71.08V69.08ZM338.831 69.7897C338.037 70.281 337.517 71.0277 337.517 72H339.517C339.517 71.8523 339.557 71.6923 339.884 71.4903L338.831 69.7897ZM337.517 72C337.517 72.9628 338.18 73.5924 338.893 73.9658L339.821 72.1942C339.622 72.0898 339.542 72.0085 339.517 71.9761C339.506 71.9625 339.508 71.9613 339.512 71.9722C339.516 71.9839 339.517 71.995 339.517 72H337.517ZM338.927 73.9829C339.601 74.3038 340.408 74.5251 341.323 74.668L341.632 72.692C340.839 72.5682 340.233 72.3895 339.787 72.1771L338.927 73.9829ZM341.323 74.668C342.125 74.7933 343.001 74.9956 343.952 75.2785L344.522 73.3615C343.501 73.0577 342.536 72.8334 341.632 72.692L341.323 74.668ZM343.976 75.2854C344.911 75.5381 345.776 75.8521 346.573 76.2255L347.422 74.4145C346.511 73.9879 345.536 73.6352 344.498 73.3546L343.976 75.2854ZM346.596 76.2362C347.255 76.5244 347.817 77.0013 348.281 77.7087L349.953 76.6113C349.297 75.6121 348.446 74.8623 347.398 74.4038L346.596 76.2362ZM348.281 77.7087C348.714 78.3686 348.957 79.2084 348.957 80.28H350.957C350.957 78.8982 350.64 77.6581 349.953 76.6113L348.281 77.7087ZM348.957 80.28C348.957 81.77 348.365 82.9795 347.099 83.9737L348.335 85.5463C350.056 84.1938 350.957 82.4167 350.957 80.28H348.957ZM347.101 83.9722C345.869 84.9354 344.076 85.48 341.597 85.48V87.48C344.345 87.48 346.632 86.8779 348.333 85.5478L347.101 83.9722ZM375.86 86V87H376.86V86H375.86ZM370.78 86H369.78V87H370.78V86ZM362.78 73L361.981 72.3978L361.78 72.6651V73H362.78ZM362.78 86V87H363.78V86H362.78ZM357.7 86H356.7V87H357.7V86ZM357.7 59.32V58.32H356.7V59.32H357.7ZM362.78 59.32H363.78V58.32H362.78V59.32ZM362.78 69.2H361.78V71.9485L363.546 69.8426L362.78 69.2ZM365.58 67.08L365.14 66.1816L365.132 66.1856L365.58 67.08ZM374.26 67.8L373.544 68.4982L373.553 68.5071L374.26 67.8ZM375.86 85H370.78V87H375.86V85ZM371.78 86V74.24H369.78V86H371.78ZM371.78 74.24C371.78 72.8353 371.447 71.5751 370.516 70.7654L369.204 72.2746C369.499 72.5316 369.78 73.0847 369.78 74.24H371.78ZM370.516 70.7654C369.654 70.0163 368.489 69.72 367.18 69.72V71.72C368.217 71.72 368.838 71.957 369.204 72.2746L370.516 70.7654ZM367.18 69.72C365.056 69.72 363.303 70.6464 361.981 72.3978L363.578 73.6022C364.55 72.3136 365.73 71.72 367.18 71.72V69.72ZM361.78 73V86H363.78V73H361.78ZM362.78 85H357.7V87H362.78V85ZM358.7 86V59.32H356.7V86H358.7ZM357.7 60.32H362.78V58.32H357.7V60.32ZM361.78 59.32V69.2H363.78V59.32H361.78ZM363.546 69.8426C364.134 69.1409 364.95 68.5128 366.027 67.9744L365.132 66.1856C363.863 66.8206 362.812 67.6058 362.013 68.5574L363.546 69.8426ZM366.019 67.9784C367.069 67.4649 368.25 67.2 369.58 67.2V65.2C367.976 65.2 366.49 65.5217 365.14 66.1816L366.019 67.9784ZM369.58 67.2C371.499 67.2 372.756 67.6906 373.544 68.4981L374.976 67.1019C373.683 65.7761 371.82 65.2 369.58 65.2V67.2ZM373.553 68.5071C374.384 69.3386 374.86 70.5493 374.86 72.28H376.86C376.86 70.1707 376.269 68.3947 374.967 67.0929L373.553 68.5071ZM374.86 72.28V86H376.86V72.28H374.86Z" fill="white"/>
<path d="M200.965 93.6553H143.035C142.463 93.6553 142 93.1921 142 92.6208V55.3795C142 54.8082 142.463 54.3449 143.035 54.3449H200.965C201.537 54.3449 202 54.8082 202 55.3795V92.6208C202 93.1922 201.537 93.6553 200.965 93.6553Z" fill="#F5F5F5"/>
<path d="M202 57.369H142V55.3795C142 54.8082 142.463 54.3449 143.035 54.3449H200.965C201.537 54.3449 202 54.8082 202 55.3795L202 57.369Z" fill="#FF4B55"/>
<path d="M202 66.4406H142V69.4645H202V66.4406Z" fill="#FF4B55"/>
<path d="M202 60.3924H142V63.4163H202V60.3924Z" fill="#FF4B55"/>
<path d="M202 75.5123H143.035C142.463 75.5123 142 75.0491 142 74.4778V72.4883H202V75.5123Z" fill="#FF4B55"/>
<path d="M202 84.5846H142V87.6085H202V84.5846Z" fill="#FF4B55"/>
<path d="M200.965 93.6553H143.035C142.463 93.6553 142 93.192 142 92.6207V90.6314H202V92.6209C202 93.1921 201.537 93.6553 200.965 93.6553Z" fill="#FF4B55"/>
<path d="M202 78.5364H142V81.5603H202V78.5364Z" fill="#FF4B55"/>
<path d="M168.896 54.3451H143.035C142.463 54.3451 142 54.8082 142 55.3795V74.4775C142 75.0488 142.463 75.512 143.035 75.512H168.897C169.468 75.512 169.931 75.0488 169.931 74.4775V55.3795C169.931 54.8082 169.468 54.3451 168.896 54.3451Z" fill="#41479B"/>
<path d="M144.905 56.7194L145.134 57.4061L145.858 57.4116C145.952 57.4124 145.99 57.5319 145.915 57.5876L145.333 58.0177L145.551 58.7078C145.579 58.7971 145.478 58.8712 145.401 58.8166L144.812 58.3957L144.224 58.8167C144.147 58.8712 144.046 58.7972 144.074 58.7079L144.292 58.0178L143.71 57.5877C143.635 57.5319 143.673 57.4125 143.767 57.4117L144.491 57.4062L144.72 56.7195C144.75 56.6304 144.875 56.6304 144.905 56.7194Z" fill="#F5F5F5"/>
<path d="M144.905 60.3116L145.134 60.9983L145.858 61.0038C145.952 61.0046 145.99 61.1242 145.915 61.1798L145.333 61.6099L145.551 62.3C145.579 62.3893 145.478 62.4634 145.401 62.4088L144.812 61.988L144.224 62.4089C144.147 62.4634 144.046 62.3894 144.074 62.3002L144.292 61.61L143.71 61.18C143.635 61.1242 143.673 61.0048 143.767 61.0039L144.491 60.9984L144.72 60.3117C144.75 60.2228 144.875 60.2228 144.905 60.3116Z" fill="#F5F5F5"/>
<path d="M144.905 63.9036L145.134 64.5903L145.858 64.5958C145.952 64.5966 145.99 64.7162 145.915 64.7718L145.333 65.2019L145.551 65.892C145.579 65.9813 145.478 66.0554 145.401 66.0008L144.812 65.5799L144.224 66.0009C144.147 66.0554 144.046 65.9814 144.074 65.8921L144.292 65.202L143.71 64.7719C143.635 64.7162 143.673 64.5967 143.767 64.5959L144.491 64.5904L144.72 63.9037C144.75 63.8148 144.875 63.8148 144.905 63.9036Z" fill="#F5F5F5"/>
<path d="M144.905 67.4964L145.134 68.1831L145.858 68.1886C145.952 68.1894 145.99 68.309 145.915 68.3646L145.333 68.7947L145.551 69.4848C145.579 69.5741 145.478 69.6482 145.401 69.5936L144.812 69.1727L144.224 69.5937C144.147 69.6482 144.046 69.5742 144.074 69.4849L144.292 68.7948L143.71 68.3647C143.635 68.309 143.673 68.1895 143.767 68.1887L144.491 68.1832L144.72 67.4965C144.75 67.4074 144.875 67.4074 144.905 67.4964Z" fill="#F5F5F5"/>
<path d="M144.905 71.0886L145.134 71.7753L145.858 71.7808C145.952 71.7816 145.99 71.9011 145.915 71.9568L145.333 72.3869L145.551 73.077C145.579 73.1663 145.478 73.2404 145.401 73.1858L144.812 72.7649L144.224 73.1859C144.147 73.2404 144.046 73.1664 144.074 73.0771L144.292 72.387L143.71 71.9569C143.635 71.9011 143.673 71.7817 143.767 71.7809L144.491 71.7754L144.72 71.0887C144.75 70.9995 144.875 70.9995 144.905 71.0886Z" fill="#F5F5F5"/>
<path d="M147.693 58.4804L147.922 59.1672L148.646 59.1727C148.74 59.1735 148.779 59.293 148.703 59.3487L148.121 59.7788L148.339 60.4689C148.368 60.5582 148.266 60.6322 148.19 60.5776L147.601 60.1567L147.012 60.5776C146.936 60.6321 146.834 60.5582 146.862 60.4689L147.081 59.7788L146.498 59.3487C146.423 59.2929 146.462 59.1735 146.555 59.1727L147.279 59.1672L147.508 58.4804C147.538 58.3916 147.664 58.3916 147.693 58.4804Z" fill="#F5F5F5"/>
<path d="M147.693 62.0728L147.922 62.7595L148.646 62.765C148.74 62.7658 148.779 62.8854 148.703 62.941L148.121 63.3711L148.339 64.0612C148.368 64.1505 148.266 64.2246 148.19 64.17L147.601 63.749L147.012 64.17C146.936 64.2245 146.834 64.1506 146.862 64.0612L147.081 63.3711L146.498 62.941C146.423 62.8852 146.462 62.7658 146.555 62.765L147.279 62.7595L147.508 62.0728C147.538 61.9838 147.664 61.9838 147.693 62.0728Z" fill="#F5F5F5"/>
<path d="M147.693 65.6652L147.922 66.3519L148.646 66.3574C148.74 66.3583 148.779 66.4778 148.703 66.5335L148.121 66.9635L148.339 67.6537C148.368 67.743 148.266 67.817 148.19 67.7624L147.601 67.3415L147.012 67.7624C146.936 67.8169 146.834 67.743 146.862 67.6537L147.081 66.9635L146.498 66.5335C146.423 66.4777 146.462 66.3583 146.555 66.3574L147.279 66.3519L147.508 65.6652C147.538 65.5763 147.664 65.5763 147.693 65.6652Z" fill="#F5F5F5"/>
<path d="M147.693 69.2574L147.922 69.9441L148.646 69.9497C148.74 69.9505 148.779 70.07 148.703 70.1257L148.121 70.5557L148.339 71.2459C148.368 71.3352 148.266 71.4092 148.19 71.3546L147.601 70.9337L147.012 71.3546C146.936 71.4091 146.834 71.3352 146.862 71.2459L147.081 70.5557L146.498 70.1257C146.423 70.0699 146.462 69.9505 146.555 69.9497L147.279 69.9441L147.508 69.2574C147.538 69.1686 147.664 69.1686 147.693 69.2574Z" fill="#F5F5F5"/>
<path d="M150.481 56.7193L150.71 57.406L151.434 57.4115C151.528 57.4123 151.567 57.5318 151.491 57.5875L150.909 58.0176L151.128 58.7077C151.156 58.797 151.054 58.8711 150.978 58.8164L150.389 58.3955L149.8 58.8164C149.724 58.8709 149.622 58.797 149.65 58.7077L149.869 58.0176L149.286 57.5875C149.211 57.5317 149.25 57.4123 149.344 57.4115L150.068 57.406L150.297 56.7193C150.326 56.6303 150.452 56.6303 150.481 56.7193Z" fill="#F5F5F5"/>
<path d="M150.481 60.3115L150.71 60.9982L151.434 61.0037C151.528 61.0045 151.567 61.1241 151.491 61.1797L150.909 61.6098L151.128 62.2999C151.156 62.3892 151.054 62.4633 150.978 62.4087L150.389 61.9877L149.8 62.4087C149.724 62.4632 149.622 62.3892 149.65 62.2999L149.869 61.6098L149.286 61.1797C149.211 61.124 149.25 61.0045 149.344 61.0037L150.068 60.9982L150.297 60.3115C150.326 60.2227 150.452 60.2227 150.481 60.3115Z" fill="#F5F5F5"/>
<path d="M150.481 63.9039L150.71 64.5906L151.434 64.5962C151.528 64.597 151.567 64.7165 151.491 64.7722L150.909 65.2023L151.128 65.8924C151.156 65.9817 151.054 66.0557 150.978 66.0011L150.389 65.5802L149.8 66.0011C149.724 66.0556 149.622 65.9817 149.65 65.8924L149.869 65.2023L149.286 64.7722C149.211 64.7164 149.25 64.597 149.344 64.5962L150.068 64.5906L150.297 63.9039C150.326 63.8151 150.452 63.8151 150.481 63.9039Z" fill="#F5F5F5"/>
<path d="M150.481 67.4963L150.71 68.183L151.434 68.1885C151.528 68.1893 151.567 68.3089 151.491 68.3645L150.909 68.7946L151.128 69.4847C151.156 69.574 151.054 69.6481 150.978 69.5935L150.389 69.1725L149.8 69.5935C149.724 69.6479 149.622 69.574 149.65 69.4847L149.869 68.7946L149.286 68.3645C149.211 68.3087 149.25 68.1893 149.344 68.1885L150.068 68.183L150.297 67.4963C150.326 67.4073 150.452 67.4073 150.481 67.4963Z" fill="#F5F5F5"/>
<path d="M150.481 71.0884L150.71 71.7752L151.434 71.7807C151.528 71.7815 151.567 71.901 151.491 71.9567L150.909 72.3868L151.128 73.0769C151.156 73.1662 151.054 73.2402 150.978 73.1856L150.389 72.7647L149.8 73.1856C149.724 73.2401 149.622 73.1662 149.65 73.0769L149.869 72.3868L149.286 71.9567C149.211 71.9009 149.25 71.7815 149.344 71.7807L150.068 71.7752L150.297 71.0884C150.326 70.9994 150.452 70.9994 150.481 71.0884Z" fill="#F5F5F5"/>
<path d="M153.27 58.4804L153.499 59.1672L154.223 59.1727C154.316 59.1735 154.355 59.293 154.28 59.3487L153.698 59.7788L153.916 60.4689C153.944 60.5582 153.842 60.6322 153.766 60.5776L153.177 60.1567L152.588 60.5776C152.512 60.6321 152.411 60.5582 152.439 60.4689L152.657 59.7788L152.075 59.3487C151.999 59.2929 152.038 59.1735 152.132 59.1727L152.856 59.1672L153.085 58.4804C153.114 58.3916 153.24 58.3916 153.27 58.4804Z" fill="#F5F5F5"/>
<path d="M153.27 62.0728L153.499 62.7595L154.223 62.765C154.316 62.7658 154.355 62.8854 154.28 62.941L153.698 63.3711L153.916 64.0612C153.944 64.1505 153.842 64.2246 153.766 64.17L153.177 63.749L152.588 64.17C152.512 64.2245 152.411 64.1506 152.439 64.0612L152.657 63.3711L152.075 62.941C151.999 62.8852 152.038 62.7658 152.132 62.765L152.856 62.7595L153.085 62.0728C153.114 61.9838 153.24 61.9838 153.27 62.0728Z" fill="#F5F5F5"/>
<path d="M153.27 65.6652L153.499 66.3519L154.223 66.3574C154.316 66.3583 154.355 66.4778 154.28 66.5335L153.698 66.9635L153.916 67.6537C153.944 67.743 153.842 67.817 153.766 67.7624L153.177 67.3415L152.588 67.7624C152.512 67.8169 152.411 67.743 152.439 67.6537L152.657 66.9635L152.075 66.5335C151.999 66.4777 152.038 66.3583 152.132 66.3574L152.856 66.3519L153.085 65.6652C153.114 65.5763 153.24 65.5763 153.27 65.6652Z" fill="#F5F5F5"/>
<path d="M153.27 69.2574L153.499 69.9441L154.223 69.9497C154.316 69.9505 154.355 70.07 154.28 70.1257L153.698 70.5557L153.916 71.2459C153.944 71.3352 153.842 71.4092 153.766 71.3546L153.177 70.9337L152.588 71.3546C152.512 71.4091 152.411 71.3352 152.439 71.2459L152.657 70.5557L152.075 70.1257C151.999 70.0699 152.038 69.9505 152.132 69.9497L152.856 69.9441L153.085 69.2574C153.114 69.1686 153.24 69.1686 153.27 69.2574Z" fill="#F5F5F5"/>
<path d="M156.058 56.7193L156.287 57.406L157.011 57.4115C157.105 57.4123 157.143 57.5318 157.068 57.5875L156.486 58.0176L156.704 58.7077C156.732 58.797 156.631 58.8711 156.554 58.8164L155.965 58.3955L155.377 58.8164C155.3 58.8709 155.199 58.797 155.227 58.7077L155.445 58.0176L154.863 57.5875C154.788 57.5317 154.826 57.4123 154.92 57.4115L155.644 57.406L155.873 56.7193C155.903 56.6303 156.028 56.6303 156.058 56.7193Z" fill="#F5F5F5"/>
<path d="M156.058 60.3115L156.287 60.9982L157.011 61.0037C157.105 61.0045 157.143 61.1241 157.068 61.1797L156.486 61.6098L156.704 62.2999C156.732 62.3892 156.631 62.4633 156.554 62.4087L155.965 61.9877L155.377 62.4087C155.3 62.4632 155.199 62.3892 155.227 62.2999L155.445 61.6098L154.863 61.1797C154.788 61.124 154.826 61.0045 154.92 61.0037L155.644 60.9982L155.873 60.3115C155.903 60.2227 156.028 60.2227 156.058 60.3115Z" fill="#F5F5F5"/>
<path d="M156.058 63.9039L156.287 64.5906L157.011 64.5962C157.105 64.597 157.143 64.7165 157.068 64.7722L156.486 65.2023L156.704 65.8924C156.732 65.9817 156.631 66.0557 156.554 66.0011L155.965 65.5802L155.377 66.0011C155.3 66.0556 155.199 65.9817 155.227 65.8924L155.445 65.2023L154.863 64.7722C154.788 64.7164 154.826 64.597 154.92 64.5962L155.644 64.5906L155.873 63.9039C155.903 63.8151 156.028 63.8151 156.058 63.9039Z" fill="#F5F5F5"/>
<path d="M156.058 67.4963L156.287 68.183L157.011 68.1885C157.105 68.1893 157.143 68.3089 157.068 68.3645L156.486 68.7946L156.704 69.4847C156.732 69.574 156.631 69.6481 156.554 69.5935L155.965 69.1725L155.377 69.5935C155.3 69.6479 155.199 69.574 155.227 69.4847L155.445 68.7946L154.863 68.3645C154.788 68.3087 154.826 68.1893 154.92 68.1885L155.644 68.183L155.873 67.4963C155.903 67.4073 156.028 67.4073 156.058 67.4963Z" fill="#F5F5F5"/>
<path d="M156.058 71.0884L156.287 71.7752L157.011 71.7807C157.105 71.7815 157.143 71.901 157.068 71.9567L156.486 72.3868L156.704 73.0769C156.732 73.1662 156.631 73.2402 156.554 73.1856L155.965 72.7647L155.377 73.1856C155.3 73.2401 155.199 73.1662 155.227 73.0769L155.445 72.3868L154.863 71.9567C154.788 71.9009 154.826 71.7815 154.92 71.7807L155.644 71.7752L155.873 71.0884C155.903 70.9994 156.028 70.9994 156.058 71.0884Z" fill="#F5F5F5"/>
<path d="M158.846 58.4804L159.075 59.1672L159.799 59.1727C159.893 59.1735 159.932 59.293 159.856 59.3487L159.274 59.7788L159.492 60.4689C159.521 60.5582 159.419 60.6322 159.343 60.5776L158.754 60.1567L158.165 60.5776C158.089 60.6321 157.987 60.5582 158.015 60.4689L158.234 59.7788L157.651 59.3487C157.576 59.2929 157.615 59.1735 157.708 59.1727L158.432 59.1672L158.661 58.4804C158.691 58.3916 158.817 58.3916 158.846 58.4804Z" fill="#F5F5F5"/>
<path d="M158.846 62.0728L159.075 62.7595L159.799 62.765C159.893 62.7658 159.932 62.8854 159.856 62.941L159.274 63.3711L159.492 64.0612C159.521 64.1505 159.419 64.2246 159.343 64.17L158.754 63.749L158.165 64.17C158.089 64.2245 157.987 64.1506 158.015 64.0612L158.234 63.3711L157.651 62.941C157.576 62.8852 157.615 62.7658 157.708 62.765L158.432 62.7595L158.661 62.0728C158.691 61.9838 158.817 61.9838 158.846 62.0728Z" fill="#F5F5F5"/>
<path d="M158.846 65.6652L159.075 66.3519L159.799 66.3574C159.893 66.3583 159.932 66.4778 159.856 66.5335L159.274 66.9635L159.492 67.6537C159.521 67.743 159.419 67.817 159.343 67.7624L158.754 67.3415L158.165 67.7624C158.089 67.8169 157.987 67.743 158.015 67.6537L158.234 66.9635L157.651 66.5335C157.576 66.4777 157.615 66.3583 157.708 66.3574L158.432 66.3519L158.661 65.6652C158.691 65.5763 158.817 65.5763 158.846 65.6652Z" fill="#F5F5F5"/>
<path d="M158.846 69.2574L159.075 69.9441L159.799 69.9497C159.893 69.9505 159.932 70.07 159.856 70.1257L159.274 70.5557L159.492 71.2459C159.521 71.3352 159.419 71.4092 159.343 71.3546L158.754 70.9337L158.165 71.3546C158.089 71.4091 157.987 71.3352 158.015 71.2459L158.234 70.5557L157.651 70.1257C157.576 70.0699 157.615 69.9505 157.708 69.9497L158.432 69.9441L158.661 69.2574C158.691 69.1686 158.817 69.1686 158.846 69.2574Z" fill="#F5F5F5"/>
<path d="M161.635 56.7193L161.864 57.406L162.587 57.4115C162.681 57.4123 162.72 57.5318 162.645 57.5875L162.062 58.0176L162.281 58.7077C162.309 58.797 162.207 58.8711 162.131 58.8164L161.542 58.3955L160.953 58.8164C160.877 58.8709 160.775 58.797 160.803 58.7077L161.022 58.0176L160.44 57.5875C160.364 57.5317 160.403 57.4123 160.497 57.4115L161.221 57.406L161.45 56.7193C161.479 56.6303 161.605 56.6303 161.635 56.7193Z" fill="#F5F5F5"/>
<path d="M161.635 60.3115L161.864 60.9982L162.587 61.0037C162.681 61.0045 162.72 61.1241 162.645 61.1797L162.062 61.6098L162.281 62.2999C162.309 62.3892 162.207 62.4633 162.131 62.4087L161.542 61.9877L160.953 62.4087C160.877 62.4632 160.775 62.3892 160.803 62.2999L161.022 61.6098L160.44 61.1797C160.364 61.124 160.403 61.0045 160.497 61.0037L161.221 60.9982L161.45 60.3115C161.479 60.2227 161.605 60.2227 161.635 60.3115Z" fill="#F5F5F5"/>
<path d="M161.635 63.9039L161.864 64.5906L162.587 64.5962C162.681 64.597 162.72 64.7165 162.645 64.7722L162.062 65.2023L162.281 65.8924C162.309 65.9817 162.207 66.0557 162.131 66.0011L161.542 65.5802L160.953 66.0011C160.877 66.0556 160.775 65.9817 160.803 65.8924L161.022 65.2023L160.44 64.7722C160.364 64.7164 160.403 64.597 160.497 64.5962L161.221 64.5906L161.45 63.9039C161.479 63.8151 161.605 63.8151 161.635 63.9039Z" fill="#F5F5F5"/>
<path d="M161.635 67.4963L161.864 68.183L162.587 68.1885C162.681 68.1893 162.72 68.3089 162.645 68.3645L162.062 68.7946L162.281 69.4847C162.309 69.574 162.207 69.6481 162.131 69.5935L161.542 69.1725L160.953 69.5935C160.877 69.6479 160.775 69.574 160.803 69.4847L161.022 68.7946L160.44 68.3645C160.364 68.3087 160.403 68.1893 160.497 68.1885L161.221 68.183L161.45 67.4963C161.479 67.4073 161.605 67.4073 161.635 67.4963Z" fill="#F5F5F5"/>
<path d="M161.635 71.0884L161.864 71.7752L162.587 71.7807C162.681 71.7815 162.72 71.901 162.645 71.9567L162.062 72.3868L162.281 73.0769C162.309 73.1662 162.207 73.2402 162.131 73.1856L161.542 72.7647L160.953 73.1856C160.877 73.2401 160.775 73.1662 160.803 73.0769L161.022 72.3868L160.44 71.9567C160.364 71.9009 160.403 71.7815 160.497 71.7807L161.221 71.7752L161.45 71.0884C161.479 70.9994 161.605 70.9994 161.635 71.0884Z" fill="#F5F5F5"/>
<path d="M164.423 58.4804L164.652 59.1672L165.376 59.1727C165.469 59.1735 165.508 59.293 165.433 59.3487L164.851 59.7788L165.069 60.4689C165.097 60.5582 164.995 60.6322 164.919 60.5776L164.33 60.1567L163.741 60.5776C163.665 60.6321 163.564 60.5582 163.592 60.4689L163.81 59.7788L163.228 59.3487C163.152 59.2929 163.191 59.1735 163.285 59.1727L164.009 59.1672L164.238 58.4804C164.267 58.3916 164.393 58.3916 164.423 58.4804Z" fill="#F5F5F5"/>
<path d="M164.423 62.0728L164.652 62.7595L165.376 62.765C165.469 62.7658 165.508 62.8854 165.433 62.941L164.851 63.3711L165.069 64.0612C165.097 64.1505 164.995 64.2246 164.919 64.17L164.33 63.749L163.741 64.17C163.665 64.2245 163.564 64.1506 163.592 64.0612L163.81 63.3711L163.228 62.941C163.152 62.8852 163.191 62.7658 163.285 62.765L164.009 62.7595L164.238 62.0728C164.267 61.9838 164.393 61.9838 164.423 62.0728Z" fill="#F5F5F5"/>
<path d="M164.423 65.6652L164.652 66.3519L165.376 66.3574C165.469 66.3583 165.508 66.4778 165.433 66.5335L164.851 66.9635L165.069 67.6537C165.097 67.743 164.995 67.817 164.919 67.7624L164.33 67.3415L163.741 67.7624C163.665 67.8169 163.564 67.743 163.592 67.6537L163.81 66.9635L163.228 66.5335C163.152 66.4777 163.191 66.3583 163.285 66.3574L164.009 66.3519L164.238 65.6652C164.267 65.5763 164.393 65.5763 164.423 65.6652Z" fill="#F5F5F5"/>
<path d="M164.423 69.2574L164.652 69.9441L165.376 69.9497C165.469 69.9505 165.508 70.07 165.433 70.1257L164.851 70.5557L165.069 71.2459C165.097 71.3352 164.995 71.4092 164.919 71.3546L164.33 70.9337L163.741 71.3546C163.665 71.4091 163.564 71.3352 163.592 71.2459L163.81 70.5557L163.228 70.1257C163.152 70.0699 163.191 69.9505 163.285 69.9497L164.009 69.9441L164.238 69.2574C164.267 69.1686 164.393 69.1686 164.423 69.2574Z" fill="#F5F5F5"/>
<path d="M167.211 56.7193L167.44 57.406L168.164 57.4115C168.258 57.4123 168.297 57.5318 168.221 57.5875L167.639 58.0176L167.857 58.7077C167.886 58.797 167.784 58.8711 167.708 58.8164L167.119 58.3955L166.53 58.8164C166.454 58.8709 166.352 58.797 166.38 58.7077L166.599 58.0176L166.016 57.5875C165.941 57.5317 165.98 57.4123 166.073 57.4115L166.797 57.406L167.026 56.7193C167.056 56.6303 167.181 56.6303 167.211 56.7193Z" fill="#F5F5F5"/>
<path d="M167.211 60.3115L167.44 60.9982L168.164 61.0037C168.258 61.0045 168.297 61.1241 168.221 61.1797L167.639 61.6098L167.857 62.2999C167.886 62.3892 167.784 62.4633 167.708 62.4087L167.119 61.9877L166.53 62.4087C166.454 62.4632 166.352 62.3892 166.38 62.2999L166.599 61.6098L166.016 61.1797C165.941 61.124 165.98 61.0045 166.073 61.0037L166.797 60.9982L167.026 60.3115C167.056 60.2227 167.181 60.2227 167.211 60.3115Z" fill="#F5F5F5"/>
<path d="M167.211 63.9039L167.44 64.5906L168.164 64.5962C168.258 64.597 168.297 64.7165 168.221 64.7722L167.639 65.2023L167.857 65.8924C167.886 65.9817 167.784 66.0557 167.708 66.0011L167.119 65.5802L166.53 66.0011C166.454 66.0556 166.352 65.9817 166.38 65.8924L166.599 65.2023L166.016 64.7722C165.941 64.7164 165.98 64.597 166.073 64.5962L166.797 64.5906L167.026 63.9039C167.056 63.8151 167.181 63.8151 167.211 63.9039Z" fill="#F5F5F5"/>
<path d="M167.211 67.4963L167.44 68.183L168.164 68.1885C168.258 68.1893 168.297 68.3089 168.221 68.3645L167.639 68.7946L167.857 69.4847C167.886 69.574 167.784 69.6481 167.708 69.5935L167.119 69.1725L166.53 69.5935C166.454 69.6479 166.352 69.574 166.38 69.4847L166.599 68.7946L166.016 68.3645C165.941 68.3087 165.98 68.1893 166.073 68.1885L166.797 68.183L167.026 67.4963C167.056 67.4073 167.181 67.4073 167.211 67.4963Z" fill="#F5F5F5"/>
<path d="M167.211 71.0884L167.44 71.7752L168.164 71.7807C168.258 71.7815 168.297 71.901 168.221 71.9567L167.639 72.3868L167.857 73.0769C167.886 73.1662 167.784 73.2402 167.708 73.1856L167.119 72.7647L166.53 73.1856C166.454 73.2401 166.352 73.1662 166.38 73.0769L166.599 72.3868L166.016 71.9567C165.941 71.9009 165.98 71.7815 166.073 71.7807L166.797 71.7752L167.026 71.0884C167.056 70.9994 167.181 70.9994 167.211 71.0884Z" fill="#F5F5F5"/>
<g filter="url(#filter0_d)">
<path d="M73 138.4C60.3333 138.4 49 136.533 39 132.8C29.1333 128.933 21.2667 123.867 15.4 117.6L35.2 90C40 94.1333 45.8 97.3333 52.6 99.6C59.4 101.733 65.6667 102.8 71.4 102.8C77.6667 102.8 82.4667 101.933 85.8 100.2C89.1333 98.4667 90.8 96.3333 90.8 93.8C90.8 91.2667 89.4 89.4667 86.6 88.4C83.9333 87.2 78.4667 86.6 70.2 86.6C59.9333 86.6 53.4667 86.7333 50.8 87V51.2C52.5333 51.3333 59 51.4 70.2 51.4C82.4667 51.4 88.6 49.2 88.6 44.8C88.6 39.0667 82 36.2 68.8 36.2C56.4 36.2 45.5333 40.0667 36.2 47.8L17.2 22.6C30.5333 7.93333 49.2 0.599991 73.2 0.599991C91.2 0.599991 104.933 3.93332 114.4 10.6C124 17.2667 128.8 26.2667 128.8 37.6C128.8 44.6667 126 51.0667 120.4 56.8C114.933 62.4 107.933 65.8667 99.4 67.2C107.533 68.1333 114.8 71.4 121.2 77C127.733 82.6 131 89.7333 131 98.4C131 110.267 125.667 119.933 115 127.4C104.333 134.733 90.3333 138.4 73 138.4Z" fill="white"/>
</g>
<defs>
<filter id="filter0_d" x="0.399994" y="0.599976" width="130.6" height="149.8" filterUnits="userSpaceOnUse" color-interpolation-filters="sRGB">
<feFlood flood-opacity="0" result="BackgroundImageFix"/>
<feColorMatrix in="SourceAlpha" type="matrix" values="0 0 0 0 0 0 0 0 0 0 0 0 0 0 0 0 0 0 127 0"/>
<feOffset dx="-10" dy="7"/>
<feGaussianBlur stdDeviation="2.5"/>
<feColorMatrix type="matrix" values="0 0 0 0 0.521569 0 0 0 0 0.266667 0 0 0 0 0.984314 0 0 0 1 0"/>
<feBlend mode="normal" in2="BackgroundImageFix" result="effect1_dropShadow"/>
<feBlend mode="normal" in="SourceGraphic" in2="effect1_dropShadow" result="shape"/>
</filter>
</defs>
</svg>
