<svg width="40" height="40" viewBox="0 0 40 40" fill="none" xmlns="http://www.w3.org/2000/svg">
<g clip-path="url(#clip0)">
<path d="M20.0009 39.9998C31.0466 39.9998 40.0008 31.0456 40.0008 19.9999C40.0008 8.95427 31.0466 0 20.0009 0C8.95525 0 0.000976562 8.95427 0.000976562 19.9999C0.000976562 31.0456 8.95525 39.9998 20.0009 39.9998Z" fill="#8544FB"/>
<path d="M39.9682 18.8828L30.5482 9.45977C30.3921 9.50703 30.0027 9.32586 29.8316 9.36024C25.7912 10.0337 21.8855 9.36024 17.9797 10.4377C16.0942 10.9764 15.9595 13.2659 15.2861 14.7474C14.3434 17.441 14.4781 20.4039 13.2659 22.9628C12.4579 24.7137 10.5723 25.7911 9.8989 27.8113C9.6743 28.6539 9.68758 29.7159 9.43359 30.5215L18.8851 39.9685C19.2543 39.9888 19.6257 40 19.9999 40C31.0455 40 39.9998 31.0456 39.9998 20C39.9999 19.625 39.9887 19.2526 39.9682 18.8828Z" fill="#8544FB"/>
<path d="M28.3627 8.55196H11.6374C9.93357 8.55196 8.55225 9.9332 8.55225 11.6371V28.3624C8.55225 30.0664 9.93349 31.4476 11.6374 31.4476H19.8861L19.9004 23.2662H17.7746C17.4984 23.2662 17.2742 23.0428 17.2732 22.7665L17.2628 20.1291C17.2617 19.8515 17.4868 19.6257 17.7644 19.6257H19.8864V17.0774C19.8864 14.1202 21.6925 12.51 24.3305 12.51H26.4953C26.7721 12.51 26.9969 12.7345 26.9969 13.0115V15.2352C26.9969 15.5122 26.7723 15.7368 26.4956 15.7368L25.167 15.7376C23.7324 15.7376 23.4545 16.4192 23.4545 17.4198V19.626H26.6069C26.9075 19.626 27.1405 19.8883 27.1049 20.1864L26.7923 22.8238C26.7626 23.0763 26.5484 23.2664 26.2943 23.2664H23.4687L23.4544 31.448H28.3626C30.0665 31.448 31.4478 30.0666 31.4478 28.3628V11.6371C31.4479 9.93328 30.0665 8.55196 28.3627 8.55196Z" fill="white"/>
<path d="M19.8859 31.4475L19.9002 23.2661H19.8652V31.4475H19.8859Z" fill="white"/>
<path d="M28.3625 8.55196H19.8652V19.6254H19.8863V17.0772C19.8863 14.1201 21.6923 12.5098 24.3303 12.5098H26.4951C26.7719 12.5098 26.9967 12.7344 26.9967 13.0114V15.2351C26.9967 15.5121 26.7722 15.7366 26.4954 15.7366L25.1668 15.7374C23.7322 15.7374 23.4543 16.419 23.4543 17.4197V19.6257H26.6067C26.9073 19.6257 27.1403 19.8881 27.1047 20.1861L26.7922 22.8235C26.7624 23.076 26.5482 23.2661 26.2941 23.2661H23.4685L23.4542 31.4478H28.3625C30.0663 31.4478 31.4476 30.0664 31.4476 28.3626V11.6371C31.4477 9.93328 30.0664 8.55196 28.3625 8.55196Z" fill="white"/>
</g>
<defs>
<clipPath id="clip0">
<rect width="40" height="40" fill="white"/>
</clipPath>
</defs>
</svg>
