<svg width="60" height="60" viewBox="0 0 60 60" fill="none" xmlns="http://www.w3.org/2000/svg">
<circle cx="30" cy="30" r="30" fill="white"/>
<path d="M30 10C22.2459 10 15.9375 16.3084 15.9375 24.0625C15.9375 26.6823 16.6632 29.2391 18.0366 31.4572L29.1995 49.446C29.4134 49.7906 29.7901 50 30.1952 50C30.1984 50 30.2014 50 30.2045 50C30.6132 49.9968 30.9907 49.7809 31.2006 49.4303L42.079 31.2672C43.3766 29.0959 44.0625 26.6046 44.0625 24.0625C44.0625 16.3084 37.7541 10 30 10ZM40.0677 30.0639L30.1775 46.577L20.0287 30.2223C18.8855 28.3761 18.2656 26.2461 18.2656 24.0625C18.2656 17.6008 23.5383 12.3281 30 12.3281C36.4617 12.3281 41.7266 17.6008 41.7266 24.0625C41.7266 26.1813 41.1476 28.2569 40.0677 30.0639Z" fill="#12121A"/>
<path d="M30 17.0312C26.123 17.0312 22.9688 20.1855 22.9688 24.0625C22.9688 27.9148 26.0716 31.0938 30 31.0938C33.9768 31.0938 37.0312 27.8724 37.0312 24.0625C37.0312 20.1855 33.877 17.0312 30 17.0312ZM30 28.7656C27.4018 28.7656 25.2969 26.6537 25.2969 24.0625C25.2969 21.4778 27.4153 19.3594 30 19.3594C32.5847 19.3594 34.6953 21.4778 34.6953 24.0625C34.6953 26.6159 32.6394 28.7656 30 28.7656Z" fill="#12121A"/>
</svg>
