<svg width="28" height="28" viewBox="0 0 28 28" fill="none" xmlns="http://www.w3.org/2000/svg">
<path d="M27.5172 4.82764H0.48278C0.216179 4.82764 0 5.04376 0 5.31036V22.6896C0 22.9562 0.216179 23.1724 0.48278 23.1724H27.5172C27.7838 23.1724 28 22.9562 28 22.6896V5.31036C27.9999 5.04376 27.7838 4.82764 27.5172 4.82764Z" fill="#82C3D2"/>
<path d="M3.25484 7.02437C3.21114 6.83937 3.20026 6.77117 3.28328 6.68821C3.32375 6.64774 3.32375 6.58217 3.28328 6.5417C3.24281 6.50123 3.17724 6.50123 3.13677 6.5417C2.96877 6.70976 3.00886 6.88416 3.05233 7.06883C2.91988 7.02558 2.78251 7.05768 2.7089 7.15054C2.67236 7.19686 2.60171 7.3268 2.73411 7.53428C2.7649 7.58246 2.82855 7.59662 2.87717 7.56611C2.92546 7.53532 2.93951 7.47117 2.90872 7.42305C2.85907 7.3449 2.85759 7.29672 2.87148 7.27911C2.88789 7.25827 2.93875 7.24728 2.99201 7.26615C3.02641 7.27807 3.10636 7.31936 3.10636 7.44405C3.10636 7.54363 3.06032 7.6349 2.98004 7.69419C2.89959 7.75369 2.79547 7.77047 2.69511 7.7393C2.57119 7.70146 2.48462 7.57092 2.48462 7.42179C2.48462 7.31509 2.50748 7.20725 2.54948 7.11275C2.55615 7.0988 2.71453 6.77073 2.75533 6.64845C2.83599 6.40657 2.75401 6.28495 2.69807 6.23414C2.6232 6.16595 2.51377 6.14894 2.4196 6.19023C2.40527 6.19657 2.39346 6.20576 2.38104 6.21429C2.36863 6.2057 2.35676 6.19657 2.34249 6.19023C2.24837 6.14894 2.139 6.16595 2.06402 6.23414C2.00808 6.28495 1.9261 6.40663 2.00676 6.64845C2.04756 6.77073 2.20588 7.0988 2.21113 7.10974C2.2545 7.2073 2.27741 7.31515 2.27741 7.42184C2.27741 7.57103 2.1909 7.70151 2.06692 7.73936C1.96619 7.77047 1.86239 7.7539 1.782 7.69424C1.70172 7.6349 1.65567 7.54369 1.65567 7.4441C1.65567 7.31941 1.73562 7.27818 1.77002 7.2662C1.82345 7.24739 1.87404 7.25827 1.89055 7.27916C1.90444 7.29677 1.90297 7.34495 1.85331 7.4231C1.82252 7.47128 1.83658 7.53543 1.88487 7.56616C1.93354 7.59695 1.99741 7.58257 2.02793 7.53433C2.16027 7.32685 2.08967 7.19697 2.05314 7.15059C1.97948 7.05773 1.84216 7.02563 1.7097 7.06889C1.75323 6.88432 1.79326 6.70981 1.62527 6.54176C1.5848 6.50129 1.51923 6.50129 1.47876 6.54176C1.43829 6.58223 1.43829 6.6478 1.47876 6.68827C1.56172 6.77123 1.55095 6.83942 1.5072 7.02443C1.48095 7.13528 1.44835 7.27353 1.44835 7.44394C1.44835 7.5573 1.48822 7.66575 1.55527 7.75483H1.55193C1.49467 7.75483 1.4483 7.80115 1.4483 7.85847C1.4483 7.91572 1.49462 7.9621 1.55193 7.9621H1.55527C1.48822 8.05118 1.44835 8.15957 1.44835 8.27294C1.44835 8.44335 1.48095 8.5816 1.50714 8.6925C1.55084 8.87751 1.56172 8.94571 1.4787 9.02867C1.43823 9.06913 1.43823 9.13471 1.4787 9.17517C1.49894 9.19541 1.52546 9.20552 1.55198 9.20552C1.57845 9.20552 1.60503 9.19541 1.62527 9.17517C1.79326 9.00712 1.75318 8.83267 1.7097 8.64804C1.84216 8.69114 1.97953 8.6592 2.05314 8.56634C2.08967 8.52002 2.16033 8.39008 2.02793 8.1826C1.99725 8.13442 1.93321 8.12009 1.88487 8.15077C1.83658 8.18156 1.82252 8.24571 1.85331 8.29383C1.90297 8.37198 1.90444 8.42016 1.89055 8.43777C1.87409 8.45839 1.82345 8.46932 1.77002 8.45073C1.73562 8.43881 1.65567 8.39752 1.65567 8.27283C1.65567 8.17325 1.70172 8.08197 1.782 8.02269C1.86244 7.96319 1.96646 7.94618 2.06692 7.97757C2.19084 8.01542 2.27741 8.14596 2.27741 8.29509C2.27741 8.40178 2.25455 8.50963 2.21113 8.60719L1.53241 10.1341C1.47662 10.2596 1.4483 10.393 1.4483 10.5304C1.4483 10.7072 1.52869 10.8686 1.65523 10.9672C1.52874 11.0657 1.4483 11.2272 1.4483 11.404C1.4483 11.5414 1.47668 11.6748 1.53241 11.8002L2.21102 13.327C2.25439 13.4246 2.2773 13.5324 2.2773 13.6391C2.2773 13.7883 2.19079 13.9188 2.06681 13.9567C1.96608 13.988 1.86228 13.9712 1.78189 13.9115C1.70161 13.8522 1.65556 13.761 1.65556 13.6614C1.65556 13.5367 1.73551 13.4955 1.76991 13.4835C1.82334 13.4649 1.87393 13.4756 1.89044 13.4965C1.90433 13.5141 1.90286 13.5622 1.8532 13.6404C1.82241 13.6886 1.83647 13.7527 1.88476 13.7835C1.93343 13.8142 1.9973 13.8 2.02782 13.7516C2.16016 13.5441 2.08956 13.4143 2.05303 13.3679C1.97937 13.275 1.84205 13.243 1.70959 13.2862C1.75312 13.1016 1.79316 12.9271 1.62516 12.7591C1.58469 12.7186 1.51912 12.7186 1.47865 12.7591C1.43818 12.7995 1.43818 12.8651 1.47865 12.9056C1.56161 12.9885 1.55084 13.0567 1.50709 13.2417C1.48089 13.3526 1.4483 13.4909 1.4483 13.6613C1.4483 13.7747 1.48816 13.8831 1.55521 13.9722H1.55187C1.49462 13.9722 1.44824 14.0185 1.44824 14.0758C1.44824 14.1331 1.49456 14.1795 1.55187 14.1795H1.55521C1.48811 14.2685 1.4483 14.3769 1.4483 14.4903C1.4483 14.6608 1.48089 14.799 1.50709 14.9099C1.55078 15.0949 1.56166 15.1631 1.47865 15.2461C1.43818 15.2865 1.43818 15.3521 1.47865 15.3926C1.49888 15.4128 1.52541 15.4229 1.55193 15.4229C1.5784 15.4229 1.60498 15.4128 1.62521 15.3926C1.79321 15.2245 1.75312 15.0501 1.70965 14.8654C1.8421 14.9085 1.97948 14.8766 2.05308 14.7837C2.08962 14.7374 2.16027 14.6075 2.02787 14.4C1.99719 14.3518 1.93316 14.3375 1.88481 14.3682C1.83652 14.399 1.82247 14.4631 1.85326 14.5112C1.90291 14.5894 1.90439 14.6376 1.8905 14.6552C1.87404 14.676 1.8234 14.687 1.76997 14.6681C1.73557 14.6562 1.65562 14.6149 1.65562 14.4902C1.65562 14.3907 1.70166 14.2994 1.78194 14.2401C1.86239 14.1806 1.96641 14.1636 2.06687 14.195C2.19079 14.2328 2.27736 14.3634 2.27736 14.5125C2.27736 14.6192 2.2545 14.727 2.21108 14.8246L1.53241 16.3517C1.47662 16.4771 1.4483 16.6106 1.4483 16.748C1.4483 16.9248 1.52869 17.0862 1.65523 17.1847C1.52874 17.2833 1.4483 17.4447 1.4483 17.6215C1.4483 17.759 1.47668 17.8923 1.53241 18.0178L2.21102 19.5446C2.25439 19.6422 2.2773 19.75 2.2773 19.8567C2.2773 20.0059 2.19079 20.1364 2.06681 20.1742C1.96608 20.2056 1.86228 20.1886 1.78189 20.1291C1.70161 20.0698 1.65556 19.9786 1.65556 19.879C1.65556 19.7543 1.73551 19.713 1.76991 19.7011C1.82334 19.6824 1.87393 19.6931 1.89044 19.714C1.90433 19.7316 1.90286 19.7798 1.8532 19.858C1.82241 19.9061 1.83647 19.9702 1.88476 20.001C1.93343 20.0318 1.9973 20.0176 2.02782 19.9692C2.16016 19.7617 2.08956 19.6318 2.05303 19.5855C1.97937 19.4923 1.84205 19.4605 1.70959 19.5038C1.75312 19.3192 1.79316 19.1447 1.62516 18.9766C1.58469 18.9362 1.51912 18.9362 1.47865 18.9766C1.43818 19.0171 1.43818 19.0827 1.47865 19.1231C1.56161 19.2061 1.55084 19.2743 1.50709 19.4593C1.48089 19.5702 1.4483 19.7084 1.4483 19.8788C1.4483 20.0412 1.52612 20.1959 1.65622 20.2933C1.52612 20.3908 1.4483 20.5454 1.4483 20.7079C1.4483 20.8783 1.48089 21.0165 1.50709 21.1274C1.55078 21.3124 1.56166 21.3806 1.47865 21.4636C1.43818 21.5041 1.43818 21.5696 1.47865 21.6101C1.49888 21.6303 1.52541 21.6405 1.55193 21.6405C1.5784 21.6405 1.60498 21.6303 1.62521 21.6101C1.79321 21.442 1.75312 21.2676 1.70965 21.083C1.8421 21.1261 1.97948 21.0941 2.05308 21.0013C2.08962 20.9549 2.16027 20.825 2.02787 20.6175C1.99719 20.5693 1.93316 20.5552 1.88481 20.5857C1.83652 20.6165 1.82247 20.6806 1.85326 20.7288C1.90291 20.8069 1.90439 20.8551 1.8905 20.8727C1.87404 20.8935 1.8234 20.9042 1.76997 20.8857C1.73557 20.8737 1.65562 20.8324 1.65562 20.7078C1.65562 20.6082 1.70166 20.5169 1.78194 20.4576C1.86239 20.3981 1.96641 20.3813 2.06687 20.4125C2.19079 20.4503 2.27736 20.5809 2.27736 20.73C2.27736 20.8367 2.2545 20.9446 2.2125 21.0391C2.20583 21.053 2.04745 21.3811 2.00666 21.5033C1.92599 21.7452 2.00797 21.8669 2.06391 21.9177C2.11176 21.9612 2.1734 21.9841 2.2364 21.9841C2.27211 21.9841 2.30831 21.9766 2.34244 21.9616C2.35676 21.9553 2.36858 21.9461 2.38099 21.9376C2.3934 21.9462 2.40527 21.9553 2.41954 21.9616C2.45362 21.9766 2.48987 21.9841 2.52558 21.9841C2.58842 21.9841 2.65016 21.9612 2.69807 21.9177C2.75401 21.8669 2.83599 21.7452 2.75533 21.5033C2.71453 21.3811 2.55621 21.053 2.55096 21.0421C2.50759 20.9445 2.48468 20.8367 2.48468 20.73C2.48468 20.5808 2.57119 20.4502 2.69517 20.4124C2.79596 20.3813 2.8997 20.3981 2.98009 20.4576C3.06037 20.5169 3.10642 20.6081 3.10642 20.7077C3.10642 20.8324 3.02647 20.8736 2.99207 20.8856C2.93886 20.9042 2.88789 20.8935 2.87154 20.8726C2.85765 20.855 2.85912 20.8068 2.90878 20.7287C2.93957 20.6805 2.92551 20.6164 2.87722 20.5856C2.82883 20.5553 2.765 20.5695 2.73416 20.6175C2.60182 20.825 2.67242 20.9548 2.70895 21.0012C2.78261 21.0941 2.91993 21.1261 3.05239 21.0829C3.00886 21.2675 2.96882 21.442 3.13682 21.61C3.15706 21.6303 3.18358 21.6404 3.21011 21.6404C3.23663 21.6404 3.26315 21.6303 3.28339 21.61C3.32386 21.5696 3.32386 21.504 3.28339 21.4635C3.20043 21.3806 3.2112 21.3124 3.25495 21.1274C3.28114 21.0165 3.31374 20.8782 3.31374 20.7078C3.31374 20.5454 3.23592 20.3907 3.10582 20.2933C3.23592 20.1958 3.31374 20.0412 3.31374 19.8788C3.31374 19.7083 3.28114 19.5701 3.25495 19.4592C3.21125 19.2742 3.20037 19.206 3.28339 19.123C3.32386 19.0826 3.32386 19.017 3.28339 18.9765C3.24292 18.9361 3.17735 18.9361 3.13688 18.9765C2.96888 19.1446 3.00897 19.319 3.05244 19.5037C2.91999 19.4604 2.78261 19.4922 2.70901 19.5854C2.67247 19.6317 2.60182 19.7616 2.73422 19.9691C2.765 20.0173 2.82866 20.0314 2.87728 20.0009C2.92557 19.9701 2.93962 19.906 2.90883 19.8579C2.85918 19.7797 2.8577 19.7315 2.87159 19.7139C2.888 19.6931 2.93886 19.6824 2.99212 19.701C3.02652 19.7129 3.10647 19.7542 3.10647 19.8789C3.10647 19.9784 3.06043 20.0697 2.98015 20.129C2.8997 20.1885 2.79558 20.2055 2.69522 20.1741C2.5713 20.1363 2.48473 20.0057 2.48473 19.8566C2.48473 19.7499 2.50759 19.6421 2.55101 19.5445L3.22963 18.0177C3.28541 17.8922 3.31374 17.7588 3.31374 17.6214C3.31374 17.4446 3.23335 17.2832 3.1068 17.1846C3.23329 17.0861 3.31374 16.9246 3.31374 16.7478C3.31374 16.6104 3.28536 16.477 3.22963 16.3516L2.55107 14.8249C2.5077 14.7273 2.48479 14.6195 2.48479 14.5128C2.48479 14.3636 2.5713 14.2331 2.69528 14.1953C2.79607 14.1641 2.89981 14.1809 2.9802 14.2404C3.06048 14.2997 3.10653 14.3909 3.10653 14.4905C3.10653 14.6152 3.02657 14.6564 2.99218 14.6684C2.93897 14.6872 2.888 14.6763 2.87165 14.6554C2.85775 14.6378 2.85923 14.5897 2.90889 14.5115C2.93968 14.4633 2.92562 14.3992 2.87733 14.3685C2.82893 14.3381 2.76511 14.3523 2.73427 14.4003C2.60193 14.6078 2.67253 14.7376 2.70906 14.784C2.78272 14.8769 2.92004 14.9089 3.0525 14.8657C3.00897 15.0503 2.96893 15.2248 3.13693 15.3929C3.15717 15.4131 3.18369 15.4232 3.21022 15.4232C3.23674 15.4232 3.26326 15.4131 3.2835 15.3929C3.32396 15.3524 3.32396 15.2868 3.2835 15.2463C3.20054 15.1634 3.21131 15.0952 3.25506 14.9102C3.28125 14.7993 3.31385 14.661 3.31385 14.4906C3.31385 14.3773 3.27398 14.2688 3.20693 14.1797H3.21027C3.26753 14.1797 3.3139 14.1334 3.3139 14.0761C3.3139 14.0188 3.26758 13.9725 3.21027 13.9725H3.20693C3.27403 13.8834 3.31385 13.775 3.31385 13.6616C3.31385 13.4912 3.28125 13.3529 3.25506 13.242C3.21136 13.057 3.20048 12.9888 3.2835 12.9058C3.32396 12.8654 3.32396 12.7998 3.2835 12.7593C3.24303 12.7189 3.17746 12.7189 3.13699 12.7593C2.96899 12.9274 3.00907 13.1018 3.05255 13.2865C2.9201 13.2434 2.78272 13.2753 2.70911 13.3682C2.67258 13.4145 2.60193 13.5444 2.73433 13.7519C2.76511 13.8001 2.82877 13.8141 2.87739 13.7837C2.92568 13.7529 2.93973 13.6888 2.90894 13.6407C2.85929 13.5625 2.85781 13.5143 2.8717 13.4967C2.88811 13.4759 2.93897 13.4652 2.99223 13.4838C3.02663 13.4957 3.10658 13.537 3.10658 13.6617C3.10658 13.7613 3.06054 13.8525 2.98025 13.9118C2.89981 13.9713 2.79568 13.9881 2.69533 13.9569C2.57141 13.9191 2.48484 13.7885 2.48484 13.6394C2.48484 13.5327 2.5077 13.4249 2.55112 13.3273L3.22974 11.8005C3.28552 11.675 3.31385 11.5416 3.31385 11.4042C3.31385 11.2274 3.23346 11.066 3.10691 10.9674C3.2334 10.8689 3.31385 10.7075 3.31385 10.5307C3.31385 10.3932 3.28546 10.2598 3.22974 10.1344L2.55112 8.60757C2.50776 8.51001 2.48484 8.40217 2.48484 8.29547C2.48484 8.14629 2.57136 8.0158 2.69533 7.97796C2.79612 7.94679 2.89986 7.96358 2.98025 8.02307C3.06054 8.08241 3.10658 8.17363 3.10658 8.27322C3.10658 8.3979 3.02663 8.43914 2.99223 8.45111C2.93902 8.46976 2.88805 8.45877 2.8717 8.43815C2.85781 8.42054 2.85929 8.37236 2.90894 8.29422C2.93973 8.24604 2.92568 8.18189 2.87739 8.15115C2.82899 8.1208 2.76517 8.13475 2.73433 8.18293C2.60198 8.39041 2.67258 8.52029 2.70911 8.56667C2.78278 8.65953 2.9201 8.69152 3.05255 8.64837C3.00902 8.83294 2.96899 9.00745 3.13699 9.1755C3.15722 9.19574 3.18375 9.20585 3.21027 9.20585C3.23679 9.20585 3.26332 9.19574 3.28355 9.1755C3.32402 9.13503 3.32402 9.06946 3.28355 9.02899C3.20059 8.94603 3.21136 8.87784 3.25511 8.69283C3.28131 8.58192 3.3139 8.44368 3.3139 8.27327C3.3139 8.1599 3.27403 8.05146 3.20699 7.96237H3.21032C3.26758 7.96237 3.31396 7.91605 3.31396 7.85874C3.31396 7.80148 3.26764 7.75511 3.21032 7.75511H3.20699C3.27409 7.66602 3.3139 7.55769 3.3139 7.44421C3.31357 7.27353 3.28098 7.13528 3.25484 7.02437ZM2.2032 6.58277C2.1664 6.47231 2.17925 6.40936 2.20353 6.38727C2.21939 6.37228 2.24345 6.37288 2.25871 6.37977C2.27741 6.38809 2.27741 6.40127 2.27741 6.40772C2.27741 6.46498 2.32373 6.51135 2.38104 6.51135C2.4383 6.51135 2.48468 6.46503 2.48468 6.40772C2.48468 6.40127 2.48468 6.38809 2.50338 6.37977C2.51836 6.37288 2.54226 6.37228 2.55856 6.38727C2.58284 6.40936 2.59569 6.47231 2.55889 6.58277C2.53209 6.66289 2.43513 6.87147 2.3811 6.98467C2.32816 6.87409 2.23016 6.66344 2.2032 6.58277ZM2.38099 10.8585C2.41074 10.8989 2.44437 10.9365 2.48528 10.9672C2.44437 10.9978 2.41074 11.0354 2.38099 11.0758C2.35124 11.0354 2.31761 10.9978 2.2767 10.9672C2.31761 10.9365 2.35124 10.899 2.38099 10.8585ZM2.38099 17.076C2.41074 17.1164 2.44437 17.1541 2.48528 17.1847C2.44437 17.2154 2.41074 17.2529 2.38099 17.2934C2.35124 17.2529 2.31761 17.2153 2.2767 17.1847C2.31761 17.154 2.35124 17.1165 2.38099 17.076ZM2.55872 21.5691C2.59553 21.6796 2.58268 21.7426 2.5584 21.7646C2.5421 21.7794 2.5182 21.7788 2.50322 21.7721C2.48451 21.7638 2.48451 21.7507 2.48451 21.7442C2.48451 21.6869 2.43819 21.6406 2.38088 21.6406C2.32357 21.6406 2.27725 21.6869 2.27725 21.7442C2.27725 21.7506 2.27725 21.7638 2.25855 21.7721C2.24334 21.7788 2.21928 21.7795 2.20337 21.7646C2.17908 21.7426 2.16623 21.6796 2.20304 21.5691C2.22983 21.489 2.32679 21.2804 2.38083 21.1672C2.43376 21.2778 2.53176 21.4885 2.55872 21.5691ZM2.48429 20.2934C2.44508 20.324 2.4103 20.3605 2.38099 20.4018C2.35173 20.3605 2.3169 20.324 2.27769 20.2934C2.3169 20.2629 2.35168 20.2264 2.38099 20.1851C2.41025 20.2264 2.44503 20.2629 2.48429 20.2934ZM3.04003 17.9335L2.38094 19.4164L1.72184 17.9335C1.67848 17.836 1.65556 17.7281 1.65556 17.6214C1.65556 17.4722 1.74208 17.3417 1.86605 17.3039C1.96679 17.2727 2.07069 17.2895 2.15098 17.349C2.23126 17.4084 2.2773 17.4996 2.2773 17.5992C2.2773 17.7239 2.19735 17.7651 2.16295 17.7771C2.10952 17.7957 2.05872 17.785 2.04242 17.7641C2.02853 17.7465 2.03001 17.6983 2.07966 17.6202C2.11045 17.572 2.0964 17.5078 2.04811 17.4771C1.99971 17.4467 1.93589 17.4609 1.90505 17.5089C1.7727 17.7164 1.8433 17.8463 1.87984 17.8927C1.95487 17.9874 2.09601 18.02 2.23098 17.9728C2.24635 17.9675 2.26194 17.9609 2.2773 17.953V18.2151C2.2773 18.2151 2.27714 18.2149 2.27714 18.2149C2.27402 18.1604 2.22885 18.1173 2.17373 18.1173C2.11647 18.1173 2.07009 18.1636 2.07009 18.221C2.07009 18.2886 2.11734 18.4058 2.2773 18.4421V18.6354C2.2773 18.6927 2.32362 18.7391 2.38094 18.7391C2.43825 18.7391 2.48457 18.6927 2.48457 18.6354V18.4421C2.64453 18.4058 2.69178 18.2886 2.69178 18.221C2.69178 18.1637 2.64557 18.1139 2.58836 18.1139C2.53111 18.1139 2.48495 18.1569 2.48495 18.2141C2.4849 18.2143 2.48457 18.2146 2.48451 18.2147V17.9532C2.49988 17.961 2.51547 17.9676 2.53083 17.9729C2.6658 18.02 2.8069 17.9874 2.88198 17.8928C2.91851 17.8465 2.98917 17.7165 2.85677 17.509C2.82598 17.4609 2.76205 17.4467 2.71371 17.4772C2.66542 17.508 2.65136 17.5721 2.68215 17.6203C2.73181 17.6984 2.73329 17.7466 2.7194 17.7642C2.70299 17.785 2.65218 17.7958 2.59886 17.7772C2.56447 17.7652 2.48451 17.724 2.48451 17.5993C2.48451 17.4997 2.53056 17.4084 2.61084 17.3491C2.69129 17.2896 2.79541 17.2726 2.89576 17.304C3.01968 17.3419 3.10625 17.4724 3.10625 17.6215C3.10636 17.7281 3.0835 17.836 3.04003 17.9335ZM3.04003 16.4359C3.0834 16.5334 3.10631 16.6413 3.10631 16.748C3.10631 16.8971 3.01979 17.0276 2.89582 17.0655C2.79525 17.0969 2.69118 17.0799 2.6109 17.0204C2.53061 16.961 2.48457 16.8698 2.48457 16.7702C2.48457 16.6455 2.56452 16.6043 2.59892 16.5923C2.65224 16.5737 2.7031 16.5844 2.71945 16.6053C2.73334 16.6229 2.73186 16.6711 2.68221 16.7492C2.65142 16.7974 2.66547 16.8615 2.71376 16.8923C2.76243 16.9231 2.82631 16.9088 2.85682 16.8604C2.98917 16.653 2.91857 16.5231 2.88204 16.4767C2.80695 16.382 2.66586 16.3498 2.53089 16.3966C2.51552 16.4019 2.49994 16.4086 2.48457 16.4163V16.1542L2.48473 16.1545C2.48785 16.209 2.53302 16.2521 2.58815 16.2521C2.6454 16.2521 2.69178 16.2058 2.69178 16.1485C2.69178 16.0809 2.64453 15.9636 2.48457 15.9273V15.734C2.48457 15.6767 2.43825 15.6304 2.38094 15.6304C2.32362 15.6304 2.2773 15.6767 2.2773 15.734V15.9273C2.11734 15.9636 2.07009 16.0809 2.07009 16.1485C2.07009 16.2057 2.1163 16.2555 2.17351 16.2555C2.23076 16.2555 2.27692 16.2126 2.27692 16.1553C2.27697 16.1551 2.2773 16.1549 2.2773 16.1549L2.27736 16.4163C2.26199 16.4085 2.2464 16.4018 2.23104 16.3965C2.09607 16.3498 1.95492 16.382 1.87989 16.4766C1.84336 16.523 1.7727 16.6529 1.9051 16.8604C1.93589 16.9086 1.99982 16.9226 2.04816 16.8922C2.09645 16.8614 2.11051 16.7973 2.07972 16.7492C2.03006 16.671 2.02858 16.6228 2.04248 16.6052C2.05877 16.5844 2.10958 16.5737 2.16301 16.5923C2.1974 16.6042 2.27736 16.6455 2.27736 16.7702C2.27736 16.8697 2.23131 16.961 2.15103 17.0203C2.07058 17.0798 1.96668 17.0968 1.86611 17.0654C1.74219 17.0276 1.65562 16.897 1.65562 16.7479C1.65562 16.6412 1.67848 16.5334 1.7219 16.4358L2.38099 14.9529L3.04003 16.4359ZM2.48429 14.076C2.44508 14.1065 2.4103 14.143 2.38099 14.1843C2.35173 14.143 2.3169 14.1066 2.27769 14.076C2.3169 14.0455 2.35168 14.0089 2.38099 13.9676C2.41025 14.0089 2.44503 14.0454 2.48429 14.076ZM3.04003 11.7161L2.38094 13.199L1.72184 11.7161C1.67848 11.6185 1.65556 11.5107 1.65556 11.404C1.65556 11.2548 1.74208 11.1243 1.86605 11.0864C1.96679 11.0553 2.07069 11.0721 2.15098 11.1316C2.23126 11.1909 2.2773 11.2821 2.2773 11.3817C2.2773 11.5064 2.19735 11.5476 2.16295 11.5596C2.10952 11.5784 2.05872 11.5675 2.04242 11.5466C2.02853 11.529 2.03001 11.4808 2.07966 11.4027C2.11045 11.3545 2.0964 11.2904 2.04811 11.2596C1.99971 11.2291 1.93589 11.2432 1.90505 11.2915C1.7727 11.499 1.8433 11.6288 1.87984 11.6752C1.95487 11.7699 2.09601 11.8023 2.23098 11.7553C2.24635 11.75 2.26194 11.7434 2.2773 11.7356V11.9976L2.27714 11.9973C2.27402 11.9429 2.22885 11.8998 2.17373 11.8998C2.11647 11.8998 2.07009 11.9461 2.07009 12.0034C2.07009 12.071 2.11734 12.1882 2.2773 12.2245V12.4179C2.2773 12.4751 2.32362 12.5215 2.38094 12.5215C2.43825 12.5215 2.48457 12.4752 2.48457 12.4179V12.2245C2.64453 12.1882 2.69178 12.071 2.69178 12.0034C2.69178 11.9461 2.64557 11.8963 2.58836 11.8963C2.53111 11.8963 2.48495 11.9392 2.48495 11.9965C2.4849 11.9967 2.48457 11.9969 2.48457 11.9969L2.48451 11.7355C2.49988 11.7433 2.51547 11.75 2.53083 11.7553C2.6658 11.8022 2.8069 11.7698 2.88198 11.6752C2.91851 11.6288 2.98917 11.4989 2.85677 11.2914C2.82598 11.243 2.76205 11.2289 2.71371 11.2596C2.66542 11.2904 2.65136 11.3545 2.68215 11.4026C2.73181 11.4808 2.73329 11.529 2.7194 11.5466C2.70299 11.5674 2.65218 11.5784 2.59886 11.5595C2.56447 11.5476 2.48451 11.5063 2.48451 11.3816C2.48451 11.2821 2.53056 11.1908 2.61084 11.1315C2.69129 11.072 2.79541 11.0552 2.89576 11.0864C3.01968 11.1242 3.10625 11.2548 3.10625 11.4039C3.10636 11.5107 3.0835 11.6185 3.04003 11.7161ZM3.04003 10.2183C3.0834 10.3159 3.10631 10.4237 3.10631 10.5304C3.10631 10.6796 3.01979 10.8101 2.89582 10.848C2.79525 10.8793 2.69118 10.8623 2.6109 10.8028C2.53061 10.7435 2.48457 10.6523 2.48457 10.5527C2.48457 10.428 2.56452 10.3868 2.59892 10.3748C2.65224 10.3561 2.7031 10.3669 2.71945 10.3878C2.73334 10.4054 2.73186 10.4535 2.68221 10.5317C2.65142 10.5799 2.66547 10.644 2.71376 10.6748C2.76243 10.7053 2.82631 10.6913 2.85682 10.6429C2.98917 10.4354 2.91857 10.3056 2.88204 10.2592C2.80695 10.1645 2.66586 10.1321 2.53089 10.1791C2.51552 10.1844 2.49994 10.191 2.48457 10.1988V9.93675C2.48457 9.93681 2.48473 9.93691 2.48473 9.93691C2.48785 9.99149 2.53302 10.0345 2.58815 10.0345C2.6454 10.0345 2.69178 9.98821 2.69178 9.9309C2.69178 9.86331 2.64453 9.74606 2.48457 9.70974V9.51642C2.48457 9.45917 2.43825 9.41279 2.38094 9.41279C2.32362 9.41279 2.2773 9.45911 2.2773 9.51642V9.70974C2.11734 9.74606 2.07009 9.86331 2.07009 9.9309C2.07009 9.98816 2.1163 10.038 2.17351 10.038C2.23076 10.038 2.27692 9.99505 2.27692 9.93779C2.27697 9.93763 2.2773 9.93735 2.27736 9.93719V10.1988C2.26199 10.1909 2.2464 10.1843 2.23104 10.179C2.09607 10.1321 1.95492 10.1645 1.87989 10.2591C1.84336 10.3055 1.7727 10.4354 1.9051 10.6429C1.93589 10.6911 1.99982 10.7051 2.04816 10.6747C2.09645 10.6439 2.11051 10.5798 2.07972 10.5316C2.03006 10.4535 2.02858 10.4053 2.04248 10.3877C2.05877 10.3669 2.10958 10.3561 2.16301 10.3747C2.1974 10.3867 2.27736 10.428 2.27736 10.5526C2.27736 10.6522 2.23131 10.7435 2.15103 10.8028C2.07058 10.8623 1.96668 10.8793 1.86611 10.8479C1.74219 10.8101 1.65562 10.6795 1.65562 10.5304C1.65562 10.4237 1.67848 10.3158 1.7219 10.2183L2.38099 8.73538L3.04003 10.2183ZM2.27763 7.85847C2.31684 7.82795 2.35162 7.79142 2.38094 7.75013C2.41019 7.79142 2.44503 7.8279 2.48424 7.85847C2.44503 7.88898 2.41025 7.92551 2.38094 7.9668C2.35168 7.92551 2.3169 7.88898 2.27763 7.85847Z" fill="#FFE15A"/>
<path d="M14.8061 15.3472C16.1835 15.3472 17.3002 14.2305 17.3002 12.8531C17.3002 11.4756 16.1835 10.359 14.8061 10.359C13.4286 10.359 12.312 11.4756 12.312 12.8531C12.312 14.2305 13.4286 15.3472 14.8061 15.3472Z" fill="#FFE15A"/>
<path d="M14.9936 9.67326C14.9936 9.77657 14.9098 9.86035 14.8065 9.86035C14.7032 9.86035 14.6194 9.77657 14.6194 9.67326C14.6194 9.56996 14.8065 9.11206 14.8065 9.11206C14.8065 9.11206 14.9936 9.56996 14.9936 9.67326Z" fill="#FFE15A"/>
<path d="M14.6194 16.0335C14.6194 15.9302 14.7032 15.8464 14.8065 15.8464C14.9098 15.8464 14.9936 15.9302 14.9936 16.0335C14.9936 16.1368 14.8065 16.5947 14.8065 16.5947C14.8065 16.5947 14.6194 16.1369 14.6194 16.0335Z" fill="#FFE15A"/>
<path d="M17.9866 13.0404C17.8833 13.0404 17.7996 12.9566 17.7996 12.8533C17.7996 12.75 17.8833 12.6663 17.9866 12.6663C18.09 12.6663 18.5478 12.8533 18.5478 12.8533C18.5478 12.8533 18.09 13.0404 17.9866 13.0404Z" fill="#FFE15A"/>
<path d="M11.6264 12.6663C11.7297 12.6663 11.8135 12.75 11.8135 12.8533C11.8135 12.9567 11.7297 13.0404 11.6264 13.0404C11.5231 13.0404 11.0652 12.8533 11.0652 12.8533C11.0652 12.8533 11.5231 12.6663 11.6264 12.6663Z" fill="#FFE15A"/>
<path d="M17.1876 10.7369C17.1145 10.81 16.9961 10.81 16.923 10.7369C16.8499 10.6639 16.8499 10.5455 16.923 10.4723C16.996 10.3992 17.4521 10.2078 17.4521 10.2078C17.4521 10.2078 17.2607 10.6639 17.1876 10.7369Z" fill="#FFE15A"/>
<path d="M12.4257 14.9698C12.4987 14.8968 12.6171 14.8968 12.6902 14.9698C12.7634 15.0429 12.7633 15.1613 12.6902 15.2344C12.6172 15.3075 12.1611 15.4989 12.1611 15.4989C12.1611 15.4989 12.3526 15.043 12.4257 14.9698Z" fill="#FFE15A"/>
<path d="M16.923 15.2343C16.8499 15.1613 16.8499 15.0429 16.923 14.9697C16.996 14.8966 17.1144 14.8967 17.1875 14.9697C17.2607 15.0428 17.4521 15.4988 17.4521 15.4988C17.4521 15.4988 16.996 15.3073 16.923 15.2343Z" fill="#FFE15A"/>
<path d="M12.69 10.4724C12.7631 10.5455 12.7631 10.6639 12.69 10.737C12.617 10.8101 12.4986 10.81 12.4255 10.737C12.3523 10.6639 12.1609 10.2079 12.1609 10.2079C12.1609 10.2079 12.617 10.3994 12.69 10.4724Z" fill="#FFE15A"/>
<path d="M13.7624 9.84357C13.8019 9.93905 13.7566 10.0484 13.6611 10.088C13.5656 10.1275 13.4562 10.0822 13.4167 9.98669C13.3772 9.8912 13.3748 9.39661 13.3748 9.39661C13.3748 9.39661 13.7228 9.74808 13.7624 9.84357Z" fill="#FFE15A"/>
<path d="M15.8507 15.8631C15.8112 15.7676 15.8565 15.6582 15.952 15.6187C16.0475 15.5791 16.1569 15.6245 16.1964 15.7199C16.2359 15.8154 16.2383 16.31 16.2383 16.31C16.2383 16.31 15.8902 15.9585 15.8507 15.8631Z" fill="#FFE15A"/>
<path d="M17.8163 11.8093C17.7208 11.8488 17.6114 11.8035 17.5719 11.708C17.5324 11.6125 17.5777 11.5031 17.6732 11.4636C17.7687 11.424 18.2632 11.4216 18.2632 11.4216C18.2632 11.4216 17.9118 11.7697 17.8163 11.8093Z" fill="#FFE15A"/>
<path d="M11.7968 13.8975C11.8923 13.8579 12.0017 13.9033 12.0412 13.9987C12.0807 14.0942 12.0354 14.2036 11.9399 14.2431C11.8444 14.2827 11.3499 14.2851 11.3499 14.2851C11.3499 14.2851 11.7013 13.9371 11.7968 13.8975Z" fill="#FFE15A"/>
<path d="M16.1964 9.98687C16.1568 10.0824 16.0474 10.1276 15.952 10.0882C15.8565 10.0486 15.8112 9.93918 15.8507 9.84376C15.8902 9.74833 16.2383 9.39685 16.2383 9.39685C16.2383 9.39685 16.2359 9.89144 16.1964 9.98687Z" fill="#FFE15A"/>
<path d="M13.4166 15.7199C13.4562 15.6244 13.5656 15.5792 13.661 15.6186C13.7565 15.6582 13.8018 15.7676 13.7623 15.863C13.7228 15.9585 13.3748 16.3099 13.3748 16.3099C13.3748 16.3099 13.3771 15.8154 13.4166 15.7199Z" fill="#FFE15A"/>
<path d="M17.6732 14.2431C17.5777 14.2036 17.5324 14.0942 17.5719 13.9987C17.6114 13.9032 17.7208 13.858 17.8163 13.8974C17.9117 13.9369 18.2632 14.285 18.2632 14.285C18.2632 14.285 17.7685 14.2827 17.6732 14.2431Z" fill="#FFE15A"/>
<path d="M11.9399 11.4635C12.0354 11.5031 12.0806 11.6125 12.0412 11.7079C12.0016 11.8034 11.8922 11.8487 11.7968 11.8092C11.7013 11.7697 11.3499 11.4216 11.3499 11.4216C11.3499 11.4216 11.8445 11.4239 11.9399 11.4635Z" fill="#FFE15A"/>
<path d="M14.3695 9.69791C14.3897 9.79925 14.3239 9.89774 14.2225 9.91786C14.1212 9.93804 14.0227 9.87225 14.0026 9.77086C13.9824 9.66953 14.0766 9.18396 14.0766 9.18396C14.0766 9.18396 14.3494 9.59657 14.3695 9.69791Z" fill="#FFE15A"/>
<path d="M15.2434 16.009C15.2232 15.9077 15.289 15.8092 15.3904 15.789C15.4918 15.7689 15.5902 15.8346 15.6103 15.936C15.6305 16.0374 15.5363 16.5229 15.5363 16.5229C15.5363 16.5229 15.2635 16.1103 15.2434 16.009Z" fill="#FFE15A"/>
<path d="M17.9621 12.4164C17.8608 12.4366 17.7623 12.3708 17.7422 12.2694C17.722 12.168 17.7878 12.0696 17.8892 12.0495C17.9905 12.0293 18.4761 12.1235 18.4761 12.1235C18.4761 12.1235 18.0635 12.3963 17.9621 12.4164Z" fill="#FFE15A"/>
<path d="M11.6509 13.2904C11.7523 13.2702 11.8507 13.336 11.8709 13.4374C11.891 13.5388 11.8253 13.6372 11.7239 13.6573C11.6225 13.6775 11.137 13.5833 11.137 13.5833C11.137 13.5833 11.5496 13.3105 11.6509 13.2904Z" fill="#FFE15A"/>
<path d="M16.7289 10.3132C16.6715 10.3991 16.5553 10.4222 16.4694 10.3647C16.3835 10.3073 16.3604 10.1912 16.4178 10.1052C16.4752 10.0193 16.8851 9.74255 16.8851 9.74255C16.8851 9.74255 16.7862 10.2272 16.7289 10.3132Z" fill="#FFE15A"/>
<path d="M12.8843 15.3936C12.9416 15.3077 13.0578 15.2846 13.1438 15.342C13.2297 15.3994 13.2528 15.5156 13.1953 15.6015C13.138 15.6874 12.728 15.9642 12.728 15.9642C12.728 15.9642 12.8269 15.4795 12.8843 15.3936Z" fill="#FFE15A"/>
<path d="M17.3468 14.7756C17.2609 14.7183 17.2378 14.602 17.2952 14.5161C17.3527 14.4302 17.4688 14.4071 17.5547 14.4646C17.6407 14.5219 17.9174 14.9319 17.9174 14.9319C17.9174 14.9319 17.4327 14.833 17.3468 14.7756Z" fill="#FFE15A"/>
<path d="M12.2662 10.9309C12.3521 10.9883 12.3752 11.1045 12.3177 11.1904C12.2604 11.2763 12.1442 11.2994 12.0582 11.242C11.9723 11.1845 11.6956 10.7747 11.6956 10.7747C11.6956 10.7747 12.1803 10.8735 12.2662 10.9309Z" fill="#FFE15A"/>
<path d="M13.1953 10.1052C13.2527 10.1911 13.2296 10.3073 13.1438 10.3647C13.0579 10.4221 12.9417 10.399 12.8843 10.3131C12.8269 10.2272 12.728 9.74255 12.728 9.74255C12.728 9.74255 13.138 10.0193 13.1953 10.1052Z" fill="#FFE15A"/>
<path d="M16.4178 15.6016C16.3604 15.5157 16.3835 15.3995 16.4693 15.3421C16.5552 15.2847 16.6714 15.3078 16.7288 15.3937C16.7862 15.4796 16.8851 15.9642 16.8851 15.9642C16.8851 15.9642 16.4752 15.6874 16.4178 15.6016Z" fill="#FFE15A"/>
<path d="M17.5547 11.242C17.4688 11.2993 17.3526 11.2762 17.2952 11.1904C17.2378 11.1045 17.2609 10.9883 17.3468 10.9309C17.4327 10.8735 17.9173 10.7747 17.9173 10.7747C17.9173 10.7747 17.6406 11.1846 17.5547 11.242Z" fill="#FFE15A"/>
<path d="M12.0584 14.4648C12.1443 14.4074 12.2605 14.4305 12.3179 14.5163C12.3753 14.6022 12.3522 14.7184 12.2664 14.7758C12.1804 14.8332 11.6958 14.9321 11.6958 14.9321C11.6958 14.9321 11.9725 14.5221 12.0584 14.4648Z" fill="#FFE15A"/>
<path d="M15.6103 9.77086C15.5902 9.8722 15.4917 9.93804 15.3904 9.91786C15.289 9.89768 15.2232 9.79925 15.2434 9.69791C15.2636 9.59658 15.5363 9.18396 15.5363 9.18396C15.5363 9.18396 15.6305 9.66953 15.6103 9.77086Z" fill="#FFE15A"/>
<path d="M14.0026 15.936C14.0228 15.8347 14.1212 15.7689 14.2225 15.789C14.3239 15.8092 14.3897 15.9077 14.3695 16.009C14.3494 16.1103 14.0766 16.5229 14.0766 16.5229C14.0766 16.5229 13.9825 16.0374 14.0026 15.936Z" fill="#FFE15A"/>
<path d="M17.8892 13.6573C17.7878 13.6372 17.722 13.5387 17.7422 13.4374C17.7623 13.336 17.8608 13.2702 17.9621 13.2904C18.0635 13.3106 18.4761 13.5833 18.4761 13.5833C18.4761 13.5833 17.9905 13.6775 17.8892 13.6573Z" fill="#FFE15A"/>
<path d="M11.7239 12.0493C11.8252 12.0695 11.891 12.1679 11.8709 12.2693C11.8507 12.3706 11.7522 12.4365 11.6509 12.4163C11.5496 12.3961 11.137 12.1233 11.137 12.1233C11.137 12.1233 11.6225 12.0292 11.7239 12.0493Z" fill="#FFE15A"/>
<path d="M20.6735 13.5095C20.6004 13.4788 20.5169 13.514 20.4865 13.5866C20.4865 13.5869 20.4865 13.5869 20.4865 13.5869C20.4859 13.5883 20.4831 13.595 20.4782 13.6065C20.3701 13.8591 20.1464 14.2281 19.9206 14.5754C20.1309 13.8982 20.3233 13.1749 20.3367 13.124C20.3567 13.048 20.3118 12.9701 20.2359 12.9494C20.16 12.929 20.0819 12.9732 20.0606 13.0489C19.9624 13.4006 19.7617 13.8635 19.5765 14.2554C19.6104 13.8185 19.6168 13.4137 19.6173 13.3844C19.6184 13.307 19.5578 13.243 19.4804 13.2393C19.4076 13.2416 19.3374 13.2947 19.3316 13.372C19.1485 15.8914 16.7242 17.0184 16.4882 17.122C16.3647 17.1343 15.7895 17.1992 15.2674 17.3804C15.2082 17.401 15.1578 17.4216 15.1076 17.4421C15.0889 17.4351 15.0689 17.4311 15.0479 17.4324C13.4454 17.5483 12.1677 16.891 11.2494 15.4827C10.5556 14.4186 10.338 13.3016 10.3358 13.2905C10.3212 13.2128 10.2468 13.1628 10.1688 13.1765C10.0912 13.1913 10.0401 13.2659 10.0548 13.3435C10.0606 13.3744 10.1561 13.8619 10.4191 14.5036C10.0673 13.9482 9.82209 13.2754 9.7358 12.9251C9.73405 12.9181 9.72956 12.9128 9.72694 12.9063C9.72289 12.8964 9.7195 12.8864 9.71354 12.8779C9.70933 12.8718 9.7038 12.8674 9.69883 12.8621C9.69101 12.8538 9.68351 12.8457 9.67394 12.8395C9.66848 12.836 9.66235 12.8342 9.65639 12.8314C9.64584 12.8265 9.6355 12.8216 9.62374 12.8194C9.61559 12.8178 9.60728 12.8189 9.5988 12.8187C9.59022 12.8186 9.58212 12.8164 9.57332 12.8179C9.57141 12.8183 9.56993 12.8196 9.56802 12.82C9.56616 12.8204 9.56441 12.8198 9.56255 12.8202C9.55489 12.822 9.54904 12.8268 9.54204 12.8298C9.53312 12.8337 9.52399 12.8366 9.51617 12.842C9.50846 12.8473 9.50272 12.8542 9.49632 12.8609C9.48992 12.8674 9.48325 12.8732 9.47822 12.8808C9.47313 12.8885 9.4704 12.8972 9.46679 12.9058C9.46334 12.9142 9.45935 12.922 9.45755 12.9311C9.45569 12.9403 9.45651 12.9498 9.45656 12.9595C9.45656 12.9672 9.45443 12.9746 9.4558 12.9825C9.45634 12.9859 9.45744 12.9893 9.45804 12.9925V12.9931C9.4582 12.9937 9.45842 12.9945 9.45859 12.9952C9.54707 13.5165 9.75794 14.0569 9.94864 14.469C9.64583 14.1254 9.3928 13.7296 9.30311 13.4951C9.30054 13.4883 9.29534 13.4835 9.29184 13.4774C9.28654 13.4679 9.28189 13.4583 9.27473 13.4504C9.26964 13.4449 9.26346 13.4413 9.25766 13.4366C9.24897 13.4296 9.24071 13.4225 9.23065 13.4177C9.2242 13.4147 9.2172 13.4137 9.21036 13.4116C9.1998 13.4084 9.18958 13.4049 9.17837 13.4042C9.16956 13.4036 9.16081 13.4058 9.1519 13.407C9.14364 13.408 9.13549 13.407 9.12729 13.4095C9.1257 13.41 9.12461 13.4113 9.12313 13.4118C9.1216 13.4123 9.12007 13.412 9.11854 13.4126C9.11077 13.4155 9.10525 13.4213 9.09831 13.4254C9.09016 13.4302 9.08146 13.4342 9.07452 13.4404C9.06741 13.4468 9.06248 13.4548 9.05691 13.4624C9.0516 13.4695 9.0457 13.4759 9.04176 13.4839C9.03766 13.4923 9.03613 13.5014 9.03377 13.5104C9.03142 13.5192 9.02831 13.5274 9.0277 13.5366C9.02705 13.5459 9.02934 13.5551 9.03055 13.5645C9.03159 13.5726 9.03049 13.5806 9.03301 13.5886C9.18865 14.0906 9.56293 14.6879 9.85616 15.1087C9.61182 14.9204 9.43223 14.7167 9.38011 14.6553C9.37448 14.6486 9.36895 14.6419 9.36332 14.6352C9.3129 14.5745 9.22381 14.5659 9.16273 14.6153C9.10186 14.665 9.09229 14.7545 9.14151 14.8156C9.14419 14.819 9.15491 14.8324 9.17284 14.8533C9.38744 15.1087 9.62123 15.3469 9.83303 15.5481L9.5433 15.4247C9.47723 15.3962 9.39958 15.4219 9.36343 15.4847C9.32723 15.5476 9.34358 15.6272 9.40155 15.6707C9.42977 15.6917 9.94284 16.075 10.387 16.3016C10.3451 16.3041 10.296 16.301 10.2409 16.2968C10.1738 16.2904 10.1077 16.3384 10.0914 16.4066C10.0753 16.475 10.1111 16.5449 10.176 16.5717C10.187 16.5762 10.3223 16.632 10.4894 16.6915C10.4505 16.7074 10.4194 16.7401 10.4066 16.7825C10.3873 16.846 10.4144 16.9147 10.4719 16.9476C10.4869 16.9563 10.6891 17.0723 10.9393 17.175C10.9326 17.1854 10.9272 17.1965 10.9231 17.2088C10.9035 17.2689 10.9258 17.3348 10.978 17.3709C11.0214 17.4007 11.9929 18.06 13.1276 18.06C13.202 18.06 13.2773 18.0573 13.353 18.0511C13.4316 18.0449 13.4905 17.976 13.4842 17.8972C13.4779 17.8184 13.4096 17.7589 13.3301 17.7661C12.6173 17.8243 11.9306 17.5566 11.5222 17.3521C11.5761 17.3389 11.6071 17.327 11.6149 17.3239C11.6779 17.2982 11.7142 17.232 11.7019 17.1652C11.6896 17.0985 11.632 17.0495 11.564 17.0481C11.3982 17.0447 11.1686 16.964 10.9707 16.8774C11.0454 16.84 11.0891 16.8041 11.0929 16.8011C11.136 16.765 11.1541 16.7075 11.1395 16.6533C11.1247 16.5994 11.0796 16.5589 11.0244 16.55C10.9636 16.5399 10.8879 16.5203 10.8086 16.4963C10.8857 16.4519 10.9185 16.403 10.9311 16.3781C10.951 16.3385 10.9514 16.2921 10.9324 16.2521C10.9132 16.2122 10.8768 16.1834 10.8334 16.1741C10.796 16.1661 10.7536 16.1524 10.7079 16.1345C10.7162 16.1261 10.7239 16.1166 10.7302 16.1057C10.7666 16.044 10.7516 15.9646 10.695 15.9202C10.6921 15.918 10.581 15.8309 10.4129 15.6858C10.4396 15.6761 10.4632 15.6579 10.4803 15.6333C10.5163 15.5814 10.5138 15.5118 10.4742 15.4626C10.4711 15.4587 10.3599 15.3189 10.2067 15.1066C10.2572 15.1459 10.3078 15.186 10.3583 15.2185C10.3821 15.2336 10.409 15.2411 10.4357 15.2411C10.4719 15.2411 10.5076 15.2275 10.5351 15.2009C10.5464 15.1899 10.5553 15.1774 10.5623 15.164C10.6491 15.2567 10.7402 15.3408 10.836 15.4126C10.8485 15.422 10.8636 15.4218 10.8776 15.4265C10.9182 15.4945 10.9604 15.5627 11.0047 15.6308C11.8733 16.9673 13.098 17.6831 14.5669 17.7261C14.4317 17.8083 14.2849 17.8931 14.0524 17.9837C14.0016 18.0035 13.9568 18.0233 13.9117 18.0431C13.89 18.0474 13.8696 18.0553 13.8526 18.0688C13.4468 18.2566 13.2788 18.4422 13.2106 18.5721C13.1426 18.7011 13.2013 18.8335 13.2844 18.9023C13.3102 18.9235 13.343 18.9344 13.376 18.9344C13.3986 18.9344 13.4212 18.9293 13.4417 18.919C13.4923 18.8939 13.5261 18.8405 13.5239 18.7844C13.5297 18.778 13.5546 18.7573 13.6325 18.7547C13.6894 18.75 13.809 18.7628 13.9485 18.774C14.0813 18.7849 14.2406 18.7973 14.4099 18.806C14.3039 18.9295 14.1808 19.0726 14.1808 19.0726C14.1439 19.1157 14.1357 19.1765 14.1603 19.2277C14.1851 19.2791 14.2383 19.311 14.2942 19.3089C14.4072 19.305 14.484 19.3028 14.5344 19.3017C14.5784 19.3593 14.6323 19.3822 14.6671 19.3911C14.7655 19.4162 14.8636 19.3769 14.9374 19.3302C14.9933 19.3705 15.0492 19.3875 15.0935 19.3939C15.1933 19.4076 15.2858 19.3786 15.3527 19.3456C15.422 19.3903 15.4898 19.4017 15.5416 19.4017C15.5423 19.4017 15.5431 19.4017 15.5439 19.4017C15.6555 19.4012 15.7532 19.3473 15.8223 19.2944C15.8834 19.3308 15.9417 19.3425 15.9868 19.3445C16.0893 19.3481 16.1741 19.3087 16.2306 19.2718C16.4322 19.3123 16.6059 19.2173 16.7207 19.1126C16.7731 19.143 16.823 19.1506 16.8627 19.1486C16.9648 19.145 17.0425 19.0829 17.0925 19.0274C17.321 19.055 17.485 19.0128 17.5798 18.9003C17.6315 18.8391 17.6525 18.7701 17.6581 18.7072C18.2922 18.7036 18.3496 18.3574 18.3542 18.3147C18.3584 18.2758 18.3465 18.237 18.3213 18.2071C18.2961 18.1773 18.2596 18.1588 18.2207 18.1566L16.5584 18.0566C16.4889 18.0516 16.4268 18.0982 16.4107 18.1661C16.4103 18.1672 16.382 18.2728 16.2934 18.3573C16.174 18.4712 15.9819 18.5313 15.773 18.5632C15.7737 18.5441 15.771 18.5246 15.7637 18.5056C15.7352 18.4319 15.6523 18.396 15.5788 18.4238C15.2356 18.5569 14.68 18.5402 14.2453 18.51C14.312 18.4555 14.3923 18.4015 14.4564 18.3663C14.5106 18.3364 14.5397 18.2752 14.5282 18.2144C14.5199 18.1701 14.4879 18.1393 14.4493 18.1195C14.5702 18.0585 14.6693 17.9996 14.7633 17.9422C14.9265 17.8423 15.0806 17.748 15.3614 17.6506C15.9033 17.4623 16.5305 17.405 16.5368 17.4044C16.551 17.4033 16.565 17.3997 16.5783 17.3944C16.6006 17.3851 18.3697 16.644 19.2032 14.9339C19.1923 14.9856 19.1806 15.0329 19.1678 15.0742C19.1461 15.1446 19.1812 15.2197 19.2491 15.2482C19.3016 15.2703 19.3613 15.2588 19.4017 15.2214C19.349 15.3602 19.3014 15.4694 19.2625 15.534C19.2229 15.5997 19.242 15.6849 19.3058 15.7273C19.3208 15.7371 19.3368 15.7438 19.3533 15.7477C19.2888 15.8421 19.2233 15.9315 19.1581 16.0134C19.1147 16.0678 19.1172 16.1455 19.1626 16.1969C19.0506 16.3143 18.9513 16.4109 18.8758 16.4724C18.8265 16.5123 18.8105 16.5791 18.8331 16.6361C18.7603 16.6778 18.7005 16.7071 18.6591 16.7197C18.5895 16.7406 18.5468 16.8107 18.5599 16.8822C18.5668 16.92 18.588 16.9518 18.6173 16.9727C18.5299 16.9962 18.4342 17.0188 18.3302 17.0395C18.2717 17.0512 18.2266 17.0979 18.217 17.1568C18.2075 17.2157 18.2355 17.2744 18.2872 17.304C18.2917 17.3065 18.3405 17.3342 18.4153 17.366C18.1386 17.4775 17.6446 17.623 16.8338 17.7029C16.7553 17.7108 16.6978 17.7809 16.7056 17.8594C16.7133 17.9379 16.7812 17.9924 16.8621 17.9879C18.4011 17.8357 18.8763 17.4504 18.8957 17.4339C18.9401 17.3967 18.9577 17.3361 18.9401 17.2809C18.9284 17.2443 18.9027 17.2147 18.8697 17.1976C19.3614 17.0428 19.5725 16.8715 19.5835 16.8623C19.6374 16.8176 19.651 16.7403 19.6155 16.6796C19.5797 16.619 19.5053 16.5927 19.4403 16.619C19.4221 16.626 19.3929 16.6332 19.356 16.6405C19.6859 16.4145 20.0362 16.1454 20.1903 16.0253C20.2173 16.0052 20.242 15.9859 20.2636 15.9677C20.3234 15.9174 20.3318 15.8285 20.2824 15.768C20.2334 15.7077 20.1441 15.6975 20.0829 15.7459C20.0606 15.7635 20.0374 15.7817 20.0134 15.8004C19.9423 15.8532 19.8513 15.913 19.7521 15.9744C20.1266 15.5492 20.5036 15.0882 20.6113 14.9558C20.6211 14.9438 20.6307 14.9318 20.6405 14.9198C20.69 14.8583 20.6803 14.7684 20.6189 14.7189C20.5572 14.6687 20.4672 14.679 20.4178 14.7401L20.4175 14.7405L20.4174 14.7408C20.4147 14.7439 20.4026 14.7589 20.3822 14.7841C20.2694 14.9218 20.1506 15.0551 20.0334 15.1797C20.4149 14.4882 20.7038 13.8077 20.7461 13.7068C20.7477 13.7032 20.7491 13.6996 20.7506 13.6959C20.7809 13.6235 20.7464 13.5397 20.6735 13.5095ZM13.9694 18.3311L14.0084 18.3362C13.9605 18.381 13.9215 18.4312 13.8906 18.483C13.8226 18.4776 13.761 18.4728 13.7127 18.4706C13.7793 18.4272 13.8649 18.38 13.9694 18.3311Z" fill="#FFE15A"/>
</svg>
