<svg width="355" height="146" viewBox="0 0 355 146" fill="none" xmlns="http://www.w3.org/2000/svg">
<path opacity="0.8" d="M227.48 86V87H229.56L228.261 85.3756L227.48 86ZM220.48 86L219.683 86.6033L219.983 87H220.48V86ZM212.4 75.32L213.197 74.7167L212.44 73.7158L211.634 74.6774L212.4 75.32ZM210.32 77.8L209.554 77.1574L209.32 77.4362V77.8H210.32ZM210.32 86V87H211.32V86H210.32ZM204.64 86H203.64V87H204.64V86ZM204.64 59.32V58.32H203.64V59.32H204.64ZM210.32 59.32H211.32V58.32H210.32V59.32ZM210.32 71.24H209.32V74.1134L211.104 71.8608L210.32 71.24ZM219.76 59.32V58.32H219.276L218.976 58.6992L219.76 59.32ZM226.76 59.32L227.523 59.9662L228.917 58.32H226.76V59.32ZM216.16 71.84L215.397 71.1938L214.865 71.8218L215.379 72.4644L216.16 71.84ZM227.48 85H220.48V87H227.48V85ZM221.277 85.3967L213.197 74.7167L211.603 75.9233L219.683 86.6033L221.277 85.3967ZM211.634 74.6774L209.554 77.1574L211.086 78.4426L213.166 75.9626L211.634 74.6774ZM209.32 77.8V86H211.32V77.8H209.32ZM210.32 85H204.64V87H210.32V85ZM205.64 86V59.32H203.64V86H205.64ZM204.64 60.32H210.32V58.32H204.64V60.32ZM209.32 59.32V71.24H211.32V59.32H209.32ZM211.104 71.8608L220.544 59.9408L218.976 58.6992L209.536 70.6192L211.104 71.8608ZM219.76 60.32H226.76V58.32H219.76V60.32ZM225.997 58.6738L215.397 71.1938L216.923 72.4862L227.523 59.9662L225.997 58.6738ZM215.379 72.4644L226.699 86.6244L228.261 85.3756L216.941 71.2156L215.379 72.4644ZM250.083 86V87H251.083V86H250.083ZM245.003 86H244.003V87H245.003V86ZM245.003 84H246.003V81.2515L244.237 83.3574L245.003 84ZM234.203 84.8L233.558 85.5645L233.566 85.5713L233.574 85.5779L234.203 84.8ZM234.163 75.4L233.555 74.6056L233.548 74.6115L234.163 75.4ZM245.003 76.2L244.24 76.8465L246.003 78.9267V76.2H245.003ZM243.843 71.24L243.238 72.0367L243.238 72.0367L243.843 71.24ZM235.123 72.64L234.252 73.1317L234.872 74.2292L235.8 73.3762L235.123 72.64ZM233.203 69.24L232.541 68.4907L231.934 69.0268L232.332 69.7317L233.203 69.24ZM247.723 67.92L248.312 67.1119L248.312 67.1119L247.723 67.92ZM245.003 81.36L245.807 81.9539L246.003 81.6891V81.36H245.003ZM245.003 78.96H246.003V78.6309L245.807 78.3661L245.003 78.96ZM238.323 78.08L238.913 78.8874L238.923 78.8801L238.933 78.8726L238.323 78.08ZM238.323 82.28L237.733 83.0874L237.733 83.0874L238.323 82.28ZM250.083 85H245.003V87H250.083V85ZM246.003 86V84H244.003V86H246.003ZM244.237 83.3574C243.086 84.7294 241.36 85.48 238.883 85.48V87.48C241.792 87.48 244.146 86.5773 245.769 84.6426L244.237 83.3574ZM238.883 85.48C237.385 85.48 236.045 85.0028 234.831 84.0221L233.574 85.5779C235.134 86.8372 236.914 87.48 238.883 87.48V85.48ZM234.847 84.0355C233.742 83.1038 233.163 81.8264 233.163 80.08H231.163C231.163 82.3336 231.943 84.2028 233.558 85.5645L234.847 84.0355ZM233.163 80.08C233.163 78.2296 233.743 76.9955 234.778 76.1885L233.548 74.6115C231.916 75.8845 231.163 77.7704 231.163 80.08H233.163ZM234.77 76.1944C235.948 75.2938 237.305 74.84 238.883 74.84V72.84C236.887 72.84 235.098 73.4262 233.555 74.6056L234.77 76.1944ZM238.883 74.84C241.439 74.84 243.155 75.5659 244.24 76.8465L245.766 75.5535C244.184 73.6874 241.82 72.84 238.883 72.84V74.84ZM246.003 76.2V73.6H244.003V76.2H246.003ZM246.003 73.6C246.003 72.3066 245.475 71.2227 244.447 70.4433L243.238 72.0367C243.758 72.4307 244.003 72.9201 244.003 73.6H246.003ZM244.447 70.4433C243.452 69.6882 242.192 69.36 240.763 69.36V71.36C241.894 71.36 242.687 71.6185 243.238 72.0367L244.447 70.4433ZM240.763 69.36C238.388 69.36 236.271 70.2264 234.446 71.9038L235.8 73.3762C237.282 72.0136 238.924 71.36 240.763 71.36V69.36ZM235.994 72.1483L234.074 68.7483L232.332 69.7317L234.252 73.1317L235.994 72.1483ZM233.865 69.9893C235.959 68.1391 238.53 67.2 241.643 67.2V65.2C238.089 65.2 235.034 66.2876 232.541 68.4907L233.865 69.9893ZM241.643 67.2C243.969 67.2 245.773 67.7366 247.134 68.7281L248.312 67.1119C246.526 65.8101 244.276 65.2 241.643 65.2V67.2ZM247.134 68.7281C248.368 69.6279 249.083 71.1383 249.083 73.52H251.083C251.083 70.7284 250.224 68.5054 248.312 67.1119L247.134 68.7281ZM249.083 73.52V86H251.083V73.52H249.083ZM240.923 84.04C243.01 84.04 244.729 83.4145 245.807 81.9539L244.198 80.7661C243.623 81.5455 242.622 82.04 240.923 82.04V84.04ZM246.003 81.36V78.96H244.003V81.36H246.003ZM245.807 78.3661C244.729 76.9055 243.01 76.28 240.923 76.28V78.28C242.622 78.28 243.623 78.7745 244.198 79.5539L245.807 78.3661ZM240.923 76.28C239.705 76.28 238.613 76.5955 237.713 77.2874L238.933 78.8726C239.42 78.4979 240.06 78.28 240.923 78.28V76.28ZM237.733 77.2726C236.765 77.9796 236.283 78.9951 236.283 80.2H238.283C238.283 79.5916 238.494 79.1938 238.913 78.8874L237.733 77.2726ZM236.283 80.2C236.283 81.3898 236.774 82.387 237.733 83.0874L238.913 81.4726C238.485 81.1597 238.283 80.7702 238.283 80.2H236.283ZM237.733 83.0874C238.631 83.7438 239.716 84.04 240.923 84.04V82.04C240.049 82.04 239.401 81.8296 238.913 81.4726L237.733 83.0874ZM274.042 86V87H275.042V86H274.042ZM258.282 86H257.282V87H258.282V86ZM258.282 82.2L257.496 81.5816L257.282 81.8537V82.2H258.282ZM267.002 71.12L267.787 71.7384L269.061 70.12H267.002V71.12ZM258.282 71.12H257.282V72.12H258.282V71.12ZM258.282 66.68V65.68H257.282V66.68H258.282ZM273.882 66.68H274.882V65.68H273.882V66.68ZM273.882 70.36L274.667 70.9796L274.882 70.7071V70.36H273.882ZM265.042 81.56L264.257 80.9404L262.978 82.56H265.042V81.56ZM274.042 81.56H275.042V80.56H274.042V81.56ZM274.042 85H258.282V87H274.042V85ZM259.282 86V82.2H257.282V86H259.282ZM259.067 82.8184L267.787 71.7384L266.216 70.5016L257.496 81.5816L259.067 82.8184ZM267.002 70.12H258.282V72.12H267.002V70.12ZM259.282 71.12V66.68H257.282V71.12H259.282ZM258.282 67.68H273.882V65.68H258.282V67.68ZM272.882 66.68V70.36H274.882V66.68H272.882ZM273.097 69.7404L264.257 80.9404L265.827 82.1796L274.667 70.9796L273.097 69.7404ZM265.042 82.56H274.042V80.56H265.042V82.56ZM273.042 81.56V86H275.042V81.56H273.042ZM298.942 86V87H299.942V86H298.942ZM293.862 86H292.862V87H293.862V86ZM293.862 84H294.862V81.2515L293.096 83.3574L293.862 84ZM283.062 84.8L282.418 85.5645L282.426 85.5713L282.434 85.5779L283.062 84.8ZM283.022 75.4L282.415 74.6056L282.407 74.6115L283.022 75.4ZM293.862 76.2L293.099 76.8465L294.862 78.9267V76.2H293.862ZM292.702 71.24L292.098 72.0367L292.098 72.0367L292.702 71.24ZM283.982 72.64L283.111 73.1317L283.731 74.2292L284.659 73.3762L283.982 72.64ZM282.062 69.24L281.4 68.4907L280.793 69.0268L281.191 69.7317L282.062 69.24ZM296.582 67.92L297.171 67.1119L297.171 67.1119L296.582 67.92ZM293.862 81.36L294.667 81.9539L294.862 81.6891V81.36H293.862ZM293.862 78.96H294.862V78.6309L294.667 78.3661L293.862 78.96ZM287.182 78.08L287.772 78.8874L287.782 78.8801L287.792 78.8726L287.182 78.08ZM287.182 82.28L286.592 83.0874L286.592 83.0874L287.182 82.28ZM298.942 85H293.862V87H298.942V85ZM294.862 86V84H292.862V86H294.862ZM293.096 83.3574C291.945 84.7294 290.22 85.48 287.742 85.48V87.48C290.651 87.48 293.006 86.5773 294.628 84.6426L293.096 83.3574ZM287.742 85.48C286.244 85.48 284.905 85.0028 283.691 84.0221L282.434 85.5779C283.993 86.8372 285.773 87.48 287.742 87.48V85.48ZM283.707 84.0355C282.602 83.1038 282.022 81.8264 282.022 80.08H280.022C280.022 82.3336 280.803 84.2028 282.418 85.5645L283.707 84.0355ZM282.022 80.08C282.022 78.2296 282.603 76.9955 283.637 76.1885L282.407 74.6115C280.775 75.8845 280.022 77.7704 280.022 80.08H282.022ZM283.63 76.1944C284.807 75.2938 286.165 74.84 287.742 74.84V72.84C285.746 72.84 283.957 73.4262 282.415 74.6056L283.63 76.1944ZM287.742 74.84C290.299 74.84 292.014 75.5659 293.099 76.8465L294.625 75.5535C293.044 73.6874 290.679 72.84 287.742 72.84V74.84ZM294.862 76.2V73.6H292.862V76.2H294.862ZM294.862 73.6C294.862 72.3066 294.334 71.2227 293.307 70.4433L292.098 72.0367C292.617 72.4307 292.862 72.9201 292.862 73.6H294.862ZM293.307 70.4433C292.311 69.6882 291.051 69.36 289.622 69.36V71.36C290.753 71.36 291.547 71.6185 292.098 72.0367L293.307 70.4433ZM289.622 69.36C287.247 69.36 285.13 70.2264 283.305 71.9038L284.659 73.3762C286.141 72.0136 287.784 71.36 289.622 71.36V69.36ZM284.853 72.1483L282.933 68.7483L281.191 69.7317L283.111 73.1317L284.853 72.1483ZM282.724 69.9893C284.818 68.1391 287.389 67.2 290.502 67.2V65.2C286.948 65.2 283.893 66.2876 281.4 68.4907L282.724 69.9893ZM290.502 67.2C292.829 67.2 294.633 67.7366 295.993 68.7281L297.171 67.1119C295.385 65.8101 293.136 65.2 290.502 65.2V67.2ZM295.993 68.7281C297.228 69.6279 297.942 71.1383 297.942 73.52H299.942C299.942 70.7284 299.083 68.5054 297.171 67.1119L295.993 68.7281ZM297.942 73.52V86H299.942V73.52H297.942ZM289.782 84.04C291.87 84.04 293.589 83.4145 294.667 81.9539L293.058 80.7661C292.482 81.5455 291.482 82.04 289.782 82.04V84.04ZM294.862 81.36V78.96H292.862V81.36H294.862ZM294.667 78.3661C293.589 76.9055 291.87 76.28 289.782 76.28V78.28C291.482 78.28 292.482 78.7745 293.058 79.5539L294.667 78.3661ZM289.782 76.28C288.565 76.28 287.472 76.5955 286.572 77.2874L287.792 78.8726C288.279 78.4979 288.92 78.28 289.782 78.28V76.28ZM286.592 77.2726C285.625 77.9796 285.142 78.9951 285.142 80.2H287.142C287.142 79.5916 287.353 79.1938 287.772 78.8874L286.592 77.2726ZM285.142 80.2C285.142 81.3898 285.634 82.387 286.592 83.0874L287.772 81.4726C287.344 81.1597 287.142 80.7702 287.142 80.2H285.142ZM286.592 83.0874C287.49 83.7438 288.576 84.04 289.782 84.04V82.04C288.909 82.04 288.261 81.8296 287.772 81.4726L286.592 83.0874ZM326.861 86V87H328.855L327.662 85.4019L326.861 86ZM320.501 86L319.677 86.5669L319.975 87H320.501V86ZM315.381 78.56L316.205 77.9931L315.5 76.969L314.651 77.8768L315.381 78.56ZM313.061 81.04L312.331 80.3568L312.061 80.6452V81.04H313.061ZM313.061 86V87H314.061V86H313.061ZM307.981 86H306.981V87H307.981V86ZM307.981 59.32V58.32H306.981V59.32H307.981ZM313.061 59.32H314.061V58.32H313.061V59.32ZM313.061 75.28H312.061V77.9977L313.822 75.9282L313.061 75.28ZM320.381 66.68V65.68H319.919L319.619 66.0318L320.381 66.68ZM326.621 66.68L327.375 67.3373L328.82 65.68H326.621V66.68ZM318.981 75.44L318.227 74.7827L317.697 75.3911L318.179 76.0381L318.981 75.44ZM326.861 85H320.501V87H326.861V85ZM321.325 85.4331L316.205 77.9931L314.557 79.1269L319.677 86.5669L321.325 85.4331ZM314.651 77.8768L312.331 80.3568L313.791 81.7232L316.111 79.2432L314.651 77.8768ZM312.061 81.04V86H314.061V81.04H312.061ZM313.061 85H307.981V87H313.061V85ZM308.981 86V59.32H306.981V86H308.981ZM307.981 60.32H313.061V58.32H307.981V60.32ZM312.061 59.32V75.28H314.061V59.32H312.061ZM313.822 75.9282L321.142 67.3282L319.619 66.0318L312.299 74.6318L313.822 75.9282ZM320.381 67.68H326.621V65.68H320.381V67.68ZM325.867 66.0227L318.227 74.7827L319.735 76.0973L327.375 67.3373L325.867 66.0227ZM318.179 76.0381L326.059 86.5981L327.662 85.4019L319.782 74.8419L318.179 76.0381ZM351.547 86V87H352.547V86H351.547ZM346.467 86H345.467V87H346.467V86ZM338.467 73L337.669 72.3978L337.467 72.6651V73H338.467ZM338.467 86V87H339.467V86H338.467ZM333.387 86H332.387V87H333.387V86ZM333.387 59.32V58.32H332.387V59.32H333.387ZM338.467 59.32H339.467V58.32H338.467V59.32ZM338.467 69.2H337.467V71.9485L339.233 69.8426L338.467 69.2ZM341.267 67.08L340.828 66.1816L340.82 66.1856L341.267 67.08ZM349.947 67.8L349.231 68.4982L349.24 68.5071L349.947 67.8ZM351.547 85H346.467V87H351.547V85ZM347.467 86V74.24H345.467V86H347.467ZM347.467 74.24C347.467 72.8353 347.135 71.5751 346.203 70.7654L344.891 72.2746C345.186 72.5316 345.467 73.0847 345.467 74.24H347.467ZM346.203 70.7654C345.342 70.0163 344.177 69.72 342.867 69.72V71.72C343.905 71.72 344.526 71.957 344.891 72.2746L346.203 70.7654ZM342.867 69.72C340.744 69.72 338.99 70.6464 337.669 72.3978L339.266 73.6022C340.238 72.3136 341.418 71.72 342.867 71.72V69.72ZM337.467 73V86H339.467V73H337.467ZM338.467 85H333.387V87H338.467V85ZM334.387 86V59.32H332.387V86H334.387ZM333.387 60.32H338.467V58.32H333.387V60.32ZM337.467 59.32V69.2H339.467V59.32H337.467ZM339.233 69.8426C339.822 69.1409 340.638 68.5128 341.714 67.9744L340.82 66.1856C339.55 66.8206 338.499 67.6058 337.701 68.5574L339.233 69.8426ZM341.706 67.9784C342.757 67.4649 343.938 67.2 345.267 67.2V65.2C343.663 65.2 342.178 65.5217 340.828 66.1816L341.706 67.9784ZM345.267 67.2C347.187 67.2 348.444 67.6906 349.231 68.4981L350.663 67.1019C349.371 65.7761 347.508 65.2 345.267 65.2V67.2ZM349.24 68.5071C350.072 69.3386 350.547 70.5493 350.547 72.28H352.547C352.547 70.1707 351.956 68.3947 350.654 67.0929L349.24 68.5071ZM350.547 72.28V86H352.547V72.28H350.547Z" fill="white"/>
<path d="M180.965 53.3449H123.035C122.463 53.3449 122 53.808 122 54.3793V91.6206C122 92.1919 122.463 92.6551 123.035 92.6551H180.965C181.537 92.6551 182 92.1919 182 91.6206V54.3793C182 53.808 181.537 53.3449 180.965 53.3449Z" fill="#82C3D2"/>
<path d="M128.974 58.0523C128.881 57.6558 128.858 57.5097 129.035 57.3319C129.122 57.2452 129.122 57.1047 129.035 57.018C128.949 56.9313 128.808 56.9313 128.721 57.018C128.361 57.3781 128.447 57.7518 128.541 58.1476C128.257 58.0549 127.962 58.1237 127.805 58.3226C127.726 58.4219 127.575 58.7003 127.859 59.1449C127.925 59.2482 128.061 59.2785 128.165 59.2131C128.269 59.1472 128.299 59.0097 128.233 58.9066C128.126 58.7391 128.123 58.6359 128.153 58.5981C128.188 58.5535 128.297 58.5299 128.411 58.5704C128.485 58.5959 128.656 58.6844 128.656 58.9516C128.656 59.165 128.558 59.3606 128.386 59.4876C128.213 59.6151 127.99 59.6511 127.775 59.5843C127.51 59.5032 127.324 59.2235 127.324 58.9039C127.324 58.6753 127.373 58.4442 127.463 58.2417C127.477 58.2118 127.817 57.5088 127.904 57.2467C128.077 56.7284 127.901 56.4678 127.781 56.3589C127.621 56.2128 127.386 56.1764 127.185 56.2648C127.154 56.2784 127.129 56.2981 127.102 56.3164C127.075 56.298 127.05 56.2784 127.019 56.2648C126.818 56.1764 126.583 56.2128 126.423 56.3589C126.303 56.4678 126.127 56.7285 126.3 57.2467C126.387 57.5088 126.727 58.2118 126.738 58.2352C126.831 58.4443 126.88 58.6754 126.88 58.904C126.88 59.2237 126.695 59.5033 126.429 59.5844C126.213 59.6511 125.991 59.6156 125.818 59.4877C125.646 59.3606 125.548 59.1651 125.548 58.9517C125.548 58.6845 125.719 58.5962 125.793 58.5705C125.907 58.5302 126.016 58.5535 126.051 58.5983C126.081 58.636 126.078 58.7392 125.971 58.9067C125.905 59.0099 125.935 59.1474 126.039 59.2133C126.143 59.2792 126.28 59.2484 126.345 59.1451C126.629 58.7005 126.478 58.4221 126.399 58.3228C126.242 58.1238 125.947 58.055 125.663 58.1477C125.757 57.7522 125.843 57.3782 125.483 57.0181C125.396 56.9314 125.255 56.9314 125.169 57.0181C125.082 57.1048 125.082 57.2453 125.169 57.3321C125.346 57.5098 125.323 57.656 125.23 58.0524C125.173 58.2899 125.103 58.5862 125.103 58.9513C125.103 59.1943 125.189 59.4267 125.333 59.6176H125.325C125.203 59.6176 125.103 59.7168 125.103 59.8396C125.103 59.9623 125.203 60.0617 125.325 60.0617H125.333C125.189 60.2526 125.103 60.4849 125.103 60.7278C125.103 61.0929 125.173 61.3892 125.229 61.6268C125.323 62.0233 125.346 62.1694 125.168 62.3472C125.082 62.4339 125.082 62.5744 125.168 62.6611C125.212 62.7045 125.269 62.7262 125.326 62.7262C125.382 62.7262 125.439 62.7045 125.483 62.6611C125.843 62.301 125.757 61.9272 125.663 61.5316C125.947 61.6239 126.242 61.5555 126.399 61.3565C126.478 61.2572 126.629 60.9788 126.345 60.5342C126.28 60.431 126.142 60.4003 126.039 60.466C125.935 60.532 125.905 60.6694 125.971 60.7726C126.078 60.94 126.081 61.0433 126.051 61.081C126.016 61.1252 125.907 61.1486 125.793 61.1088C125.719 61.0832 125.548 60.9947 125.548 60.7276C125.548 60.5142 125.646 60.3186 125.818 60.1915C125.991 60.064 126.214 60.0276 126.429 60.0949C126.694 60.176 126.88 60.4557 126.88 60.7752C126.88 61.0039 126.831 61.235 126.738 61.444L125.284 64.716C125.164 64.9849 125.103 65.2708 125.103 65.5652C125.103 65.944 125.276 66.29 125.547 66.5011C125.276 66.7123 125.103 67.0582 125.103 67.4371C125.103 67.7316 125.164 68.0174 125.284 68.2862L126.738 71.558C126.831 71.7671 126.88 71.9982 126.88 72.2268C126.88 72.5465 126.694 72.8261 126.429 72.9072C126.213 72.9744 125.99 72.9383 125.818 72.8105C125.646 72.6833 125.547 72.4879 125.547 72.2745C125.547 72.0073 125.719 71.9189 125.793 71.8933C125.907 71.8533 126.015 71.8763 126.051 71.921C126.081 71.9588 126.077 72.062 125.971 72.2295C125.905 72.3327 125.935 72.4702 126.039 72.536C126.143 72.602 126.28 72.5716 126.345 72.4678C126.629 72.0232 126.477 71.7449 126.399 71.6455C126.241 71.4466 125.947 71.378 125.663 71.4705C125.757 71.075 125.842 70.701 125.482 70.3409C125.396 70.2542 125.255 70.2542 125.168 70.3409C125.082 70.4276 125.082 70.5681 125.168 70.6548C125.346 70.8326 125.323 70.9787 125.229 71.3752C125.173 71.6128 125.103 71.9091 125.103 72.2742C125.103 72.5172 125.189 72.7496 125.332 72.9405H125.325C125.203 72.9405 125.103 73.0397 125.103 73.1625C125.103 73.2853 125.202 73.3846 125.325 73.3846H125.332C125.189 73.5755 125.103 73.8078 125.103 74.0508C125.103 74.416 125.173 74.7122 125.229 74.9499C125.323 75.3463 125.346 75.4924 125.168 75.6702C125.082 75.7569 125.082 75.8974 125.168 75.9842C125.212 76.0275 125.269 76.0492 125.325 76.0492C125.382 76.0492 125.439 76.0275 125.482 75.9842C125.842 75.624 125.757 75.2502 125.663 74.8546C125.947 74.9469 126.242 74.8785 126.399 74.6795C126.478 74.5803 126.629 74.3018 126.345 73.8572C126.28 73.754 126.142 73.7233 126.039 73.789C125.935 73.855 125.905 73.9924 125.971 74.0956C126.078 74.263 126.081 74.3663 126.051 74.404C126.016 74.4487 125.907 74.4722 125.793 74.4318C125.719 74.4062 125.548 74.3178 125.548 74.0506C125.548 73.8372 125.646 73.6416 125.818 73.5146C125.991 73.3871 126.214 73.3506 126.429 73.4179C126.694 73.499 126.88 73.7787 126.88 74.0983C126.88 74.3269 126.831 74.558 126.738 74.7671L125.284 78.0394C125.164 78.3082 125.103 78.5942 125.103 78.8885C125.103 79.2674 125.276 79.6133 125.547 79.8245C125.276 80.0357 125.103 80.3816 125.103 80.7605C125.103 81.055 125.164 81.3408 125.284 81.6096L126.738 84.8814C126.831 85.0904 126.88 85.3215 126.88 85.5502C126.88 85.8698 126.694 86.1495 126.429 86.2305C126.213 86.2978 125.99 86.2614 125.818 86.1339C125.646 86.0067 125.547 85.8112 125.547 85.5979C125.547 85.3307 125.719 85.2423 125.793 85.2166C125.907 85.1767 126.015 85.1996 126.051 85.2444C126.081 85.2821 126.077 85.3854 125.971 85.5529C125.905 85.6561 125.935 85.7934 126.039 85.8594C126.143 85.9254 126.28 85.8949 126.345 85.7912C126.629 85.3466 126.477 85.0683 126.399 84.9689C126.241 84.7693 125.947 84.7011 125.663 84.7938C125.757 84.3983 125.842 84.0244 125.482 83.6643C125.396 83.5775 125.255 83.5775 125.168 83.6643C125.082 83.751 125.082 83.8915 125.168 83.9782C125.346 84.156 125.323 84.3021 125.229 84.6986C125.173 84.9362 125.103 85.2323 125.103 85.5975C125.103 85.9455 125.27 86.277 125.549 86.4858C125.27 86.6946 125.103 87.026 125.103 87.3741C125.103 87.7392 125.173 88.0355 125.229 88.2731C125.323 88.6694 125.346 88.8157 125.168 88.9935C125.082 89.0802 125.082 89.2207 125.168 89.3074C125.212 89.3508 125.269 89.3725 125.325 89.3725C125.382 89.3725 125.439 89.3508 125.482 89.3074C125.842 88.9473 125.757 88.5735 125.663 88.1778C125.947 88.2702 126.242 88.2018 126.399 88.0028C126.478 87.9035 126.629 87.6251 126.345 87.1805C126.28 87.0772 126.142 87.0469 126.039 87.1123C125.935 87.1782 125.905 87.3157 125.971 87.4188C126.078 87.5863 126.081 87.6895 126.051 87.7273C126.016 87.7719 125.907 87.7949 125.793 87.755C125.719 87.7295 125.548 87.641 125.548 87.3738C125.548 87.1604 125.646 86.9648 125.818 86.8378C125.991 86.7103 126.214 86.6743 126.429 86.7411C126.694 86.8222 126.88 87.102 126.88 87.4215C126.88 87.6502 126.831 87.8812 126.741 88.0837C126.727 88.1136 126.387 88.8166 126.3 89.0787C126.127 89.597 126.303 89.8576 126.423 89.9665C126.525 90.0598 126.657 90.1087 126.792 90.1087C126.869 90.1087 126.946 90.0927 127.019 90.0607C127.05 90.0471 127.075 90.0274 127.102 90.0091C127.129 90.0275 127.154 90.0471 127.185 90.0607C127.258 90.0928 127.335 90.1087 127.412 90.1087C127.546 90.1087 127.679 90.0598 127.781 89.9665C127.901 89.8576 128.077 89.5969 127.904 89.0787C127.817 88.8166 127.477 88.1136 127.466 88.0902C127.373 87.8811 127.324 87.65 127.324 87.4214C127.324 87.1017 127.51 86.822 127.775 86.741C127.991 86.6742 128.213 86.7102 128.386 86.8377C128.558 86.9648 128.656 87.1603 128.656 87.3737C128.656 87.6409 128.485 87.7293 128.411 87.7549C128.297 87.7949 128.188 87.7719 128.153 87.7271C128.123 87.6894 128.127 87.5862 128.233 87.4187C128.299 87.3155 128.269 87.1781 128.165 87.1121C128.062 87.0471 127.925 87.0775 127.859 87.1803C127.575 87.625 127.726 87.9033 127.805 88.0026C127.963 88.2016 128.257 88.2702 128.541 88.1777C128.447 88.5732 128.362 88.9472 128.722 89.3073C128.765 89.3507 128.822 89.3723 128.879 89.3723C128.935 89.3723 128.992 89.3507 129.036 89.3073C129.122 89.2206 129.122 89.0801 129.036 88.9934C128.858 88.8156 128.881 88.6694 128.975 88.273C129.031 88.0353 129.101 87.7391 129.101 87.3739C129.101 87.0259 128.934 86.6945 128.655 86.4857C128.934 86.2768 129.101 85.9455 129.101 85.5974C129.101 85.2322 129.031 84.936 128.975 84.6983C128.881 84.302 128.858 84.1557 129.036 83.978C129.122 83.8913 129.122 83.7507 129.036 83.664C128.949 83.5773 128.808 83.5773 128.722 83.664C128.362 84.0241 128.448 84.3979 128.541 84.7936C128.257 84.7009 127.963 84.7691 127.805 84.9687C127.727 85.0679 127.575 85.3464 127.859 85.791C127.925 85.8942 128.061 85.9246 128.165 85.8592C128.269 85.7932 128.299 85.6557 128.233 85.5526C128.127 85.3852 128.123 85.2819 128.153 85.2442C128.188 85.1995 128.297 85.1766 128.412 85.2164C128.485 85.242 128.657 85.3304 128.657 85.5976C128.657 85.811 128.558 86.0066 128.386 86.1336C128.213 86.2611 127.99 86.2976 127.775 86.2303C127.51 86.1492 127.324 85.8695 127.324 85.5499C127.324 85.3213 127.373 85.0902 127.466 84.8811L128.92 81.6094C129.04 81.3406 129.101 81.0546 129.101 80.7602C129.101 80.3814 128.928 80.0354 128.657 79.8243C128.928 79.6131 129.101 79.2672 129.101 78.8883C129.101 78.5938 129.04 78.308 128.92 78.0392L127.466 74.7676C127.373 74.5586 127.324 74.3275 127.324 74.0989C127.324 73.7792 127.51 73.4996 127.775 73.4185C127.991 73.3517 128.214 73.3876 128.386 73.5151C128.558 73.6423 128.657 73.8378 128.657 74.0512C128.657 74.3183 128.485 74.4067 128.412 74.4324C128.298 74.4727 128.188 74.4494 128.153 74.4046C128.124 74.3669 128.127 74.2636 128.233 74.0962C128.299 73.9929 128.269 73.8556 128.166 73.7896C128.062 73.7246 127.925 73.7549 127.859 73.8578C127.575 74.3024 127.727 74.5807 127.805 74.6801C127.963 74.8791 128.257 74.9476 128.541 74.8552C128.448 75.2507 128.362 75.6246 128.722 75.9847C128.765 76.0281 128.822 76.0498 128.879 76.0498C128.936 76.0498 128.993 76.0281 129.036 75.9847C129.123 75.898 129.123 75.7575 129.036 75.6708C128.858 75.493 128.881 75.3469 128.975 74.9505C129.031 74.7128 129.101 74.4165 129.101 74.0514C129.101 73.8085 129.016 73.5761 128.872 73.3852H128.879C129.002 73.3852 129.101 73.2859 129.101 73.1631C129.101 73.0404 129.002 72.941 128.879 72.941H128.872C129.016 72.7501 129.101 72.518 129.101 72.2748C129.101 71.9097 129.031 71.6134 128.975 71.3758C128.881 70.9793 128.858 70.8332 129.036 70.6554C129.123 70.5687 129.123 70.4282 129.036 70.3415C128.949 70.2548 128.809 70.2548 128.722 70.3415C128.362 70.7016 128.448 71.0754 128.541 71.471C128.257 71.3787 127.963 71.4471 127.805 71.6461C127.727 71.7454 127.575 72.0238 127.859 72.4684C127.925 72.5717 128.061 72.6017 128.166 72.5366C128.269 72.4707 128.299 72.3332 128.233 72.2301C128.127 72.0626 128.124 71.9594 128.153 71.9216C128.189 71.877 128.298 71.854 128.412 71.8939C128.485 71.9194 128.657 72.0079 128.657 72.2751C128.657 72.4885 128.558 72.6841 128.386 72.8111C128.214 72.9386 127.991 72.9746 127.776 72.9078C127.51 72.8267 127.324 72.5469 127.324 72.2274C127.324 71.9987 127.373 71.7676 127.467 71.5586L128.921 68.2868C129.04 68.018 129.101 67.7321 129.101 67.4377C129.101 67.0588 128.929 66.7129 128.658 66.5017C128.929 66.2906 129.101 65.9446 129.101 65.5657C129.101 65.2713 129.04 64.9854 128.921 64.7166L127.467 61.4449C127.374 61.2358 127.324 61.0047 127.324 60.7761C127.324 60.4564 127.51 60.1768 127.776 60.0957C127.992 60.0289 128.214 60.0649 128.386 60.1924C128.558 60.3195 128.657 60.515 128.657 60.7284C128.657 60.9956 128.485 61.0839 128.412 61.1096C128.298 61.1495 128.189 61.126 128.153 61.0818C128.124 61.0441 128.127 60.9408 128.233 60.7734C128.299 60.6701 128.269 60.5327 128.166 60.4668C128.062 60.4018 127.925 60.4317 127.859 60.5349C127.576 60.9795 127.727 61.2578 127.805 61.3572C127.963 61.5562 128.257 61.6247 128.541 61.5323C128.448 61.9278 128.362 62.3017 128.722 62.6618C128.765 62.7052 128.822 62.7269 128.879 62.7269C128.936 62.7269 128.993 62.7052 129.036 62.6618C129.123 62.5751 129.123 62.4346 129.036 62.3479C128.858 62.1701 128.881 62.024 128.975 61.6276C129.031 61.3899 129.101 61.0936 129.101 60.7285C129.101 60.4856 129.016 60.2532 128.872 60.0623H128.879C129.002 60.0623 129.101 59.963 129.101 59.8402C129.101 59.7175 129.002 59.6181 128.879 59.6181H128.872C129.016 59.4272 129.101 59.1951 129.101 58.9519C129.1 58.5862 129.031 58.2899 128.974 58.0523ZM126.721 57.106C126.642 56.8693 126.67 56.7344 126.722 56.6871C126.756 56.6549 126.807 56.6562 126.84 56.671C126.88 56.6888 126.88 56.7171 126.88 56.7309C126.88 56.8536 126.979 56.953 127.102 56.953C127.225 56.953 127.324 56.8537 127.324 56.7309C127.324 56.7171 127.324 56.6888 127.364 56.671C127.396 56.6562 127.448 56.6549 127.482 56.6871C127.534 56.7344 127.562 56.8693 127.483 57.106C127.426 57.2777 127.218 57.7246 127.102 57.9672C126.989 57.7303 126.779 57.2789 126.721 57.106ZM127.102 66.2683C127.166 66.3549 127.238 66.4355 127.325 66.5011C127.238 66.5669 127.166 66.6474 127.102 66.734C127.038 66.6474 126.966 66.5668 126.878 66.5011C126.966 66.4354 127.038 66.355 127.102 66.2683ZM127.102 79.5915C127.166 79.6781 127.238 79.7588 127.325 79.8244C127.238 79.8901 127.166 79.9706 127.102 80.0572C127.038 79.9706 126.966 79.89 126.878 79.8244C126.966 79.7586 127.038 79.6784 127.102 79.5915ZM127.483 89.2196C127.562 89.4564 127.534 89.5912 127.482 89.6386C127.447 89.6702 127.396 89.6689 127.364 89.6546C127.324 89.6368 127.324 89.6087 127.324 89.5948C127.324 89.4721 127.225 89.3727 127.102 89.3727C126.979 89.3727 126.88 89.4719 126.88 89.5948C126.88 89.6086 126.88 89.6368 126.84 89.6546C126.807 89.6689 126.755 89.6703 126.721 89.6386C126.669 89.5912 126.642 89.4564 126.721 89.2196C126.778 89.048 126.986 88.601 127.102 88.3584C127.215 88.5953 127.425 89.0468 127.483 89.2196ZM127.323 86.486C127.239 86.5514 127.165 86.6297 127.102 86.7182C127.039 86.6297 126.965 86.5515 126.881 86.486C126.965 86.4206 127.039 86.3423 127.102 86.2539C127.165 86.3423 127.239 86.4206 127.323 86.486ZM128.514 81.429L127.102 84.6067L125.689 81.429C125.597 81.22 125.547 80.9889 125.547 80.7602C125.547 80.4406 125.733 80.1608 125.999 80.0799C126.214 80.0131 126.437 80.049 126.609 80.1765C126.781 80.3037 126.88 80.4992 126.88 80.7126C126.88 80.9797 126.708 81.0681 126.635 81.0938C126.52 81.1337 126.411 81.1108 126.376 81.066C126.347 81.0283 126.35 80.925 126.456 80.7576C126.522 80.6543 126.492 80.5168 126.389 80.451C126.285 80.3859 126.148 80.4163 126.082 80.5192C125.798 80.9638 125.95 81.2421 126.028 81.3415C126.189 81.5445 126.491 81.6143 126.781 81.5132C126.813 81.5018 126.847 81.4876 126.88 81.4709V82.0324C126.88 82.0323 126.879 82.0321 126.879 82.0321C126.873 81.9151 126.776 81.8229 126.658 81.8229C126.535 81.8229 126.436 81.9222 126.436 82.045C126.436 82.1898 126.537 82.4411 126.88 82.5189V82.9331C126.88 83.0558 126.979 83.1552 127.102 83.1552C127.225 83.1552 127.324 83.0559 127.324 82.9331V82.5189C127.667 82.4411 127.768 82.1898 127.768 82.045C127.768 81.9223 127.669 81.8156 127.546 81.8156C127.424 81.8156 127.325 81.9076 127.325 82.0303C127.325 82.0307 127.324 82.0313 127.324 82.0316V81.4711C127.357 81.4879 127.39 81.502 127.423 81.5134C127.712 81.6144 128.015 81.5446 128.176 81.3417C128.254 81.2425 128.405 80.964 128.121 80.5194C128.056 80.4162 127.919 80.3858 127.815 80.4512C127.711 80.5172 127.681 80.6547 127.747 80.7578C127.854 80.9252 127.857 81.0285 127.827 81.0662C127.792 81.1109 127.683 81.1338 127.569 81.094C127.495 81.0684 127.324 80.98 127.324 80.7128C127.324 80.4994 127.422 80.3038 127.594 80.1768C127.767 80.0493 127.99 80.0128 128.205 80.0801C128.471 80.1612 128.656 80.4409 128.656 80.7605C128.656 80.9889 128.607 81.2201 128.514 81.429ZM128.514 78.2197C128.607 78.4288 128.656 78.6599 128.656 78.8885C128.656 79.2082 128.471 79.4878 128.205 79.5689C127.99 79.6362 127.767 79.5997 127.595 79.4722C127.423 79.3451 127.324 79.1496 127.324 78.9362C127.324 78.669 127.495 78.5807 127.569 78.555C127.683 78.5151 127.792 78.538 127.827 78.5828C127.857 78.6205 127.854 78.7238 127.747 78.8912C127.681 78.9945 127.712 79.1318 127.815 79.1978C127.919 79.2638 128.056 79.2333 128.122 79.1296C128.405 78.685 128.254 78.4067 128.176 78.3073C128.015 78.1043 127.712 78.0353 127.423 78.1356C127.39 78.147 127.357 78.1613 127.324 78.1779V77.6162L127.324 77.6169C127.331 77.7335 127.428 77.826 127.546 77.826C127.669 77.826 127.768 77.7267 127.768 77.6039C127.768 77.4591 127.667 77.2078 127.324 77.13V76.7158C127.324 76.5931 127.225 76.4937 127.102 76.4937C126.979 76.4937 126.88 76.593 126.88 76.7158V77.13C126.537 77.2078 126.436 77.4591 126.436 77.6039C126.436 77.7266 126.535 77.8333 126.657 77.8333C126.78 77.8333 126.879 77.7413 126.879 77.6186C126.879 77.6182 126.88 77.6176 126.88 77.6176L126.88 78.1778C126.847 78.161 126.814 78.1469 126.781 78.1355C126.491 78.0353 126.189 78.1043 126.028 78.3072C125.95 78.4064 125.798 78.6849 126.082 79.1295C126.148 79.2327 126.285 79.2627 126.389 79.1977C126.492 79.1317 126.522 78.9942 126.456 78.8911C126.35 78.7236 126.347 78.6204 126.377 78.5827C126.411 78.538 126.52 78.5151 126.635 78.5549C126.709 78.5804 126.88 78.6689 126.88 78.9361C126.88 79.1495 126.781 79.3451 126.609 79.4721C126.437 79.5996 126.214 79.6361 125.999 79.5688C125.733 79.4877 125.548 79.208 125.548 78.8884C125.548 78.6598 125.597 78.4287 125.69 78.2196L127.102 75.042L128.514 78.2197ZM127.323 73.1629C127.239 73.2283 127.165 73.3066 127.102 73.395C127.039 73.3066 126.965 73.2284 126.881 73.1629C126.965 73.0975 127.039 73.0192 127.102 72.9307C127.165 73.0191 127.239 73.0974 127.323 73.1629ZM128.514 68.1059L127.102 71.2835L125.689 68.1059C125.597 67.8968 125.547 67.6657 125.547 67.4371C125.547 67.1174 125.733 66.8378 125.999 66.7567C126.214 66.6899 126.437 66.7259 126.609 66.8534C126.781 66.9805 126.88 67.176 126.88 67.3894C126.88 67.6566 126.708 67.745 126.635 67.7706C126.52 67.8109 126.411 67.7876 126.376 67.7429C126.347 67.7051 126.35 67.6019 126.456 67.4344C126.522 67.3312 126.492 67.1937 126.389 67.1279C126.285 67.0625 126.148 67.0927 126.082 67.1961C125.798 67.6407 125.95 67.919 126.028 68.0184C126.189 68.2213 126.491 68.2907 126.781 68.19C126.813 68.1787 126.847 68.1645 126.88 68.1477V68.7093L126.879 68.7086C126.873 68.592 126.776 68.4995 126.658 68.4995C126.535 68.4995 126.436 68.5988 126.436 68.7216C126.436 68.8664 126.537 69.1177 126.88 69.1955V69.6098C126.88 69.7325 126.979 69.8318 127.102 69.8318C127.225 69.8318 127.324 69.7326 127.324 69.6098V69.1955C127.667 69.1177 127.768 68.8664 127.768 68.7216C127.768 68.5989 127.669 68.4921 127.546 68.4921C127.424 68.4921 127.325 68.5841 127.325 68.7068C127.325 68.7072 127.324 68.7078 127.324 68.7078L127.324 68.1476C127.357 68.1644 127.39 68.1786 127.423 68.1899C127.712 68.2905 128.015 68.2211 128.176 68.0182C128.254 67.919 128.405 67.6405 128.121 67.1959C128.056 67.0922 127.919 67.062 127.815 67.1277C127.711 67.1937 127.681 67.3312 127.747 67.4343C127.854 67.6018 127.857 67.705 127.827 67.7427C127.792 67.7874 127.683 67.8109 127.569 67.7705C127.495 67.745 127.324 67.6565 127.324 67.3893C127.324 67.1759 127.422 66.9803 127.594 66.8533C127.767 66.7258 127.99 66.6898 128.205 66.7566C128.471 66.8377 128.656 67.1174 128.656 67.437C128.656 67.6657 128.607 67.8968 128.514 68.1059ZM128.514 64.8965C128.607 65.1056 128.656 65.3366 128.656 65.5653C128.656 65.885 128.471 66.1646 128.205 66.2457C127.99 66.3129 127.767 66.2765 127.595 66.149C127.423 66.0218 127.324 65.8264 127.324 65.613C127.324 65.3458 127.495 65.2574 127.569 65.2318C127.683 65.1918 127.792 65.2148 127.827 65.2595C127.857 65.2973 127.854 65.4005 127.747 65.568C127.681 65.6712 127.712 65.8086 127.815 65.8745C127.919 65.9399 128.056 65.91 128.122 65.8063C128.405 65.3617 128.254 65.0834 128.176 64.984C128.015 64.7811 127.712 64.7117 127.423 64.8124C127.39 64.8237 127.357 64.8379 127.324 64.8547V64.2931C127.324 64.2932 127.324 64.2934 127.324 64.2934C127.331 64.4104 127.428 64.5026 127.546 64.5026C127.669 64.5026 127.768 64.4034 127.768 64.2806C127.768 64.1357 127.667 63.8845 127.324 63.8066V63.3924C127.324 63.2697 127.225 63.1703 127.102 63.1703C126.979 63.1703 126.88 63.2696 126.88 63.3924V63.8066C126.537 63.8845 126.436 64.1357 126.436 64.2806C126.436 64.4033 126.535 64.51 126.657 64.51C126.78 64.51 126.879 64.418 126.879 64.2953C126.879 64.295 126.88 64.2944 126.88 64.294V64.8545C126.847 64.8378 126.814 64.8236 126.781 64.8122C126.491 64.7117 126.189 64.7811 126.028 64.9839C125.95 65.0832 125.798 65.3616 126.082 65.8062C126.148 65.9095 126.285 65.9395 126.389 65.8744C126.492 65.8084 126.522 65.671 126.456 65.5679C126.35 65.4004 126.347 65.2972 126.377 65.2594C126.411 65.2148 126.52 65.1918 126.635 65.2316C126.709 65.2572 126.88 65.3457 126.88 65.6129C126.88 65.8263 126.781 66.0218 126.609 66.1489C126.437 66.2764 126.214 66.3128 125.999 66.2456C125.733 66.1645 125.548 65.8847 125.548 65.5652C125.548 65.3365 125.597 65.1054 125.69 64.8964L127.102 61.7187L128.514 64.8965ZM126.88 59.8396C126.964 59.7742 127.039 59.696 127.102 59.6075C127.165 59.696 127.239 59.7741 127.323 59.8396C127.239 59.905 127.165 59.9833 127.102 60.0718C127.039 59.9833 126.965 59.905 126.88 59.8396Z" fill="#FFE15A"/>
<path d="M153.727 75.8869C156.679 75.8869 159.072 73.4941 159.072 70.5424C159.072 67.5908 156.679 65.198 153.727 65.198C150.776 65.198 148.383 67.5908 148.383 70.5424C148.383 73.4941 150.776 75.8869 153.727 75.8869Z" fill="#FFE15A"/>
<path d="M154.129 63.7284C154.129 63.9498 153.949 64.1293 153.728 64.1293C153.507 64.1293 153.327 63.9498 153.327 63.7284C153.327 63.5071 153.728 62.5258 153.728 62.5258C153.728 62.5258 154.129 63.5071 154.129 63.7284Z" fill="#FFE15A"/>
<path d="M153.327 77.3576C153.327 77.1362 153.507 76.9567 153.728 76.9567C153.949 76.9567 154.129 77.1362 154.129 77.3576C154.129 77.579 153.728 78.5602 153.728 78.5602C153.728 78.5602 153.327 77.5791 153.327 77.3576Z" fill="#FFE15A"/>
<path d="M160.543 70.9437C160.321 70.9437 160.142 70.7642 160.142 70.5428C160.142 70.3215 160.321 70.1419 160.543 70.1419C160.764 70.1419 161.745 70.5428 161.745 70.5428C161.745 70.5428 160.764 70.9437 160.543 70.9437Z" fill="#FFE15A"/>
<path d="M146.913 70.1422C147.135 70.1422 147.314 70.3217 147.314 70.5431C147.314 70.7644 147.135 70.9439 146.913 70.9439C146.692 70.9439 145.711 70.5431 145.711 70.5431C145.711 70.5431 146.692 70.1422 146.913 70.1422Z" fill="#FFE15A"/>
<path d="M158.83 66.0078C158.674 66.1643 158.42 66.1643 158.263 66.0078C158.107 65.8512 158.107 65.5975 158.263 65.4408C158.42 65.2841 159.397 64.8739 159.397 64.8739C159.397 64.8739 158.987 65.8512 158.83 66.0078Z" fill="#FFE15A"/>
<path d="M148.626 75.0782C148.783 74.9217 149.036 74.9217 149.193 75.0782C149.35 75.2348 149.349 75.4885 149.193 75.6452C149.036 75.8019 148.059 76.212 148.059 76.212C148.059 76.212 148.469 75.2349 148.626 75.0782Z" fill="#FFE15A"/>
<path d="M158.263 75.6451C158.107 75.4885 158.107 75.2348 158.263 75.0781C158.42 74.9214 158.674 74.9216 158.83 75.0781C158.987 75.2347 159.397 76.2119 159.397 76.2119C159.397 76.2119 158.42 75.8015 158.263 75.6451Z" fill="#FFE15A"/>
<path d="M149.193 65.4408C149.349 65.5974 149.349 65.8511 149.193 66.0078C149.036 66.1645 148.783 66.1643 148.626 66.0078C148.469 65.8512 148.059 64.874 148.059 64.874C148.059 64.874 149.036 65.2844 149.193 65.4408Z" fill="#FFE15A"/>
<path d="M151.491 64.0936C151.575 64.2982 151.478 64.5326 151.274 64.6173C151.069 64.702 150.835 64.6049 150.75 64.4003C150.665 64.1956 150.66 63.1358 150.66 63.1358C150.66 63.1358 151.406 63.889 151.491 64.0936Z" fill="#FFE15A"/>
<path d="M155.966 76.9923C155.881 76.7877 155.978 76.5533 156.183 76.4686C156.387 76.3839 156.622 76.481 156.706 76.6856C156.791 76.8902 156.796 77.9501 156.796 77.9501C156.796 77.9501 156.05 77.1969 155.966 76.9923Z" fill="#FFE15A"/>
<path d="M160.177 68.3057C159.973 68.3904 159.738 68.2933 159.654 68.0887C159.569 67.884 159.666 67.6497 159.871 67.5649C160.075 67.4802 161.135 67.4751 161.135 67.4751C161.135 67.4751 160.382 68.2208 160.177 68.3057Z" fill="#FFE15A"/>
<path d="M147.279 72.7804C147.483 72.6957 147.718 72.7929 147.802 72.9975C147.887 73.2021 147.79 73.4365 147.585 73.5212C147.381 73.6059 146.321 73.6111 146.321 73.6111C146.321 73.6111 147.074 72.8653 147.279 72.7804Z" fill="#FFE15A"/>
<path d="M156.706 64.4005C156.622 64.6051 156.387 64.7021 156.183 64.6175C155.978 64.5328 155.881 64.2983 155.966 64.0938C156.05 63.8893 156.796 63.1361 156.796 63.1361C156.796 63.1361 156.791 64.196 156.706 64.4005Z" fill="#FFE15A"/>
<path d="M150.75 76.6855C150.835 76.4809 151.069 76.3838 151.274 76.4684C151.478 76.5532 151.575 76.7876 151.491 76.9921C151.406 77.1967 150.66 77.9498 150.66 77.9498C150.66 77.9498 150.665 76.8901 150.75 76.6855Z" fill="#FFE15A"/>
<path d="M159.871 73.5211C159.666 73.4364 159.569 73.2019 159.654 72.9974C159.738 72.7928 159.973 72.6958 160.177 72.7804C160.382 72.865 161.135 73.6109 161.135 73.6109C161.135 73.6109 160.075 73.606 159.871 73.5211Z" fill="#FFE15A"/>
<path d="M147.585 67.5649C147.79 67.6497 147.887 67.8841 147.802 68.0886C147.718 68.2931 147.483 68.3903 147.279 68.3057C147.074 68.2209 146.321 67.4752 146.321 67.4752C146.321 67.4752 147.381 67.4801 147.585 67.5649Z" fill="#FFE15A"/>
<path d="M152.792 63.7811C152.835 63.9983 152.694 64.2093 152.477 64.2525C152.26 64.2957 152.049 64.1547 152.006 63.9375C151.962 63.7203 152.164 62.6798 152.164 62.6798C152.164 62.6798 152.749 63.564 152.792 63.7811Z" fill="#FFE15A"/>
<path d="M154.664 77.305C154.621 77.0878 154.762 76.8768 154.979 76.8336C155.197 76.7904 155.408 76.9314 155.451 77.1486C155.494 77.3658 155.292 78.4063 155.292 78.4063C155.292 78.4063 154.708 77.5221 154.664 77.305Z" fill="#FFE15A"/>
<path d="M160.49 69.6066C160.273 69.6498 160.062 69.5089 160.019 69.2916C159.975 69.0743 160.116 68.8634 160.334 68.8203C160.551 68.777 161.591 68.9788 161.591 68.9788C161.591 68.9788 160.707 69.5635 160.49 69.6066Z" fill="#FFE15A"/>
<path d="M146.966 71.4794C147.183 71.4362 147.394 71.5772 147.437 71.7944C147.481 72.0117 147.34 72.2226 147.122 72.2657C146.905 72.309 145.865 72.1072 145.865 72.1072C145.865 72.1072 146.749 71.5225 146.966 71.4794Z" fill="#FFE15A"/>
<path d="M157.847 65.0996C157.725 65.2837 157.476 65.3332 157.291 65.2101C157.107 65.0871 157.058 64.8382 157.181 64.6541C157.304 64.47 158.182 63.8769 158.182 63.8769C158.182 63.8769 157.97 64.9154 157.847 65.0996Z" fill="#FFE15A"/>
<path d="M149.609 75.9863C149.732 75.8022 149.981 75.7528 150.165 75.8758C150.349 75.9988 150.398 76.2478 150.275 76.4319C150.152 76.616 149.274 77.2091 149.274 77.2091C149.274 77.2091 149.486 76.1705 149.609 75.9863Z" fill="#FFE15A"/>
<path d="M159.172 74.6623C158.987 74.5393 158.938 74.2903 159.061 74.1062C159.184 73.9221 159.433 73.8726 159.617 73.9957C159.801 74.1186 160.394 74.9971 160.394 74.9971C160.394 74.9971 159.356 74.7852 159.172 74.6623Z" fill="#FFE15A"/>
<path d="M148.285 66.4236C148.469 66.5465 148.518 66.7956 148.395 66.9797C148.272 67.1638 148.023 67.2132 147.839 67.0902C147.655 66.9671 147.062 66.0888 147.062 66.0888C147.062 66.0888 148.101 66.3007 148.285 66.4236Z" fill="#FFE15A"/>
<path d="M150.275 64.6539C150.398 64.838 150.349 65.0869 150.165 65.2099C149.981 65.333 149.732 65.2834 149.609 65.0994C149.486 64.9153 149.274 63.8768 149.274 63.8768C149.274 63.8768 150.152 64.4699 150.275 64.6539Z" fill="#FFE15A"/>
<path d="M157.181 76.432C157.058 76.2479 157.107 75.999 157.291 75.876C157.475 75.753 157.724 75.8025 157.847 75.9865C157.97 76.1706 158.182 77.2091 158.182 77.2091C158.182 77.2091 157.304 76.616 157.181 76.432Z" fill="#FFE15A"/>
<path d="M159.617 67.0902C159.433 67.2131 159.184 67.1636 159.061 66.9797C158.938 66.7956 158.987 66.5467 159.171 66.4236C159.356 66.3007 160.394 66.0888 160.394 66.0888C160.394 66.0888 159.801 66.9672 159.617 67.0902Z" fill="#FFE15A"/>
<path d="M147.839 73.9958C148.023 73.8729 148.272 73.9224 148.395 74.1063C148.518 74.2904 148.469 74.5393 148.285 74.6624C148.101 74.7853 147.062 74.9972 147.062 74.9972C147.062 74.9972 147.655 74.1188 147.839 73.9958Z" fill="#FFE15A"/>
<path d="M155.451 63.9375C155.407 64.1546 155.197 64.2957 154.979 64.2525C154.762 64.2092 154.621 63.9983 154.664 63.7811C154.708 63.564 155.292 62.6798 155.292 62.6798C155.292 62.6798 155.494 63.7203 155.451 63.9375Z" fill="#FFE15A"/>
<path d="M152.005 77.1487C152.049 76.9315 152.26 76.7904 152.477 76.8337C152.694 76.8769 152.835 77.0878 152.792 77.305C152.749 77.5221 152.164 78.4063 152.164 78.4063C152.164 78.4063 151.962 77.3658 152.005 77.1487Z" fill="#FFE15A"/>
<path d="M160.334 72.2658C160.116 72.2225 159.975 72.0116 160.019 71.7944C160.062 71.5773 160.273 71.4362 160.49 71.4794C160.707 71.5227 161.591 72.1072 161.591 72.1072C161.591 72.1072 160.551 72.3089 160.334 72.2658Z" fill="#FFE15A"/>
<path d="M147.123 68.8202C147.34 68.8634 147.481 69.0744 147.438 69.2915C147.394 69.5087 147.183 69.6498 146.966 69.6065C146.749 69.5633 145.865 68.9788 145.865 68.9788C145.865 68.9788 146.905 68.7771 147.123 68.8202Z" fill="#FFE15A"/>
<path d="M166.3 71.9491C166.143 71.8833 165.964 71.9587 165.899 72.1143C165.899 72.1151 165.899 72.1151 165.899 72.1151C165.898 72.118 165.892 72.1324 165.881 72.157C165.65 72.6982 165.17 73.4891 164.686 74.2331C165.137 72.782 165.549 71.232 165.578 71.1231C165.621 70.9603 165.525 70.7932 165.362 70.749C165.2 70.7053 165.032 70.8 164.987 70.962C164.776 71.7158 164.346 72.7078 163.949 73.5476C164.022 72.6112 164.036 71.7438 164.037 71.681C164.039 71.5152 163.909 71.3781 163.743 71.3702C163.587 71.375 163.437 71.4888 163.425 71.6545C163.032 77.0531 157.837 79.4681 157.331 79.6903C157.067 79.7166 155.834 79.8555 154.715 80.244C154.589 80.288 154.481 80.3322 154.373 80.3761C154.333 80.3611 154.29 80.3526 154.245 80.3553C150.811 80.6037 148.073 79.1952 146.105 76.1773C144.619 73.8971 144.152 71.5037 144.148 71.4798C144.116 71.3134 143.957 71.2061 143.79 71.2356C143.623 71.2672 143.514 71.427 143.546 71.5935C143.558 71.6595 143.763 72.7043 144.326 74.0792C143.572 72.8892 143.047 71.4476 142.862 70.6967C142.858 70.6817 142.849 70.6704 142.843 70.6565C142.834 70.6353 142.827 70.614 142.814 70.5956C142.805 70.5826 142.793 70.5731 142.783 70.5617C142.766 70.544 142.75 70.5267 142.729 70.5135C142.718 70.5058 142.705 70.5021 142.692 70.4961C142.669 70.4856 142.647 70.4751 142.622 70.4703C142.604 70.4669 142.587 70.4692 142.568 70.4688C142.55 70.4686 142.533 70.4639 142.514 70.4672C142.51 70.4679 142.507 70.4707 142.502 70.4716C142.498 70.4724 142.495 70.4711 142.491 70.472C142.474 70.476 142.462 70.4863 142.447 70.4927C142.428 70.501 142.408 70.5072 142.391 70.5188C142.375 70.5302 142.363 70.545 142.349 70.5592C142.335 70.5732 142.321 70.5856 142.31 70.6019C142.299 70.6185 142.293 70.6371 142.286 70.6555C142.278 70.6734 142.27 70.6903 142.266 70.7096C142.262 70.7294 142.264 70.7498 142.264 70.7706C142.264 70.7871 142.259 70.8029 142.262 70.8198C142.263 70.827 142.266 70.8343 142.267 70.8413V70.8425C142.267 70.8438 142.268 70.8456 142.268 70.847C142.458 71.9641 142.909 73.1222 143.318 74.0053C142.669 73.269 142.127 72.4207 141.935 71.9183C141.929 71.9036 141.918 71.8935 141.911 71.8803C141.899 71.8601 141.889 71.8393 141.874 71.8226C141.863 71.8106 141.85 71.8029 141.837 71.7929C141.819 71.7779 141.801 71.7628 141.78 71.7525C141.766 71.7459 141.751 71.7438 141.736 71.7392C141.713 71.7324 141.692 71.7249 141.668 71.7234C141.649 71.7221 141.63 71.7269 141.611 71.7294C141.593 71.7316 141.576 71.7294 141.558 71.7349C141.555 71.736 141.552 71.7386 141.549 71.7398C141.546 71.7409 141.543 71.7402 141.539 71.7415C141.523 71.7478 141.511 71.7601 141.496 71.7689C141.478 71.7792 141.46 71.7877 141.445 71.8011C141.43 71.8148 141.419 71.8318 141.407 71.8481C141.396 71.8635 141.383 71.8772 141.375 71.8943C141.366 71.9122 141.363 71.9317 141.358 71.951C141.353 71.9699 141.346 71.9874 141.345 72.0072C141.343 72.027 141.348 72.0468 141.351 72.0669C141.353 72.0842 141.351 72.1015 141.356 72.1186C141.69 73.1943 142.492 74.4743 143.12 75.3759C142.596 74.9724 142.212 74.536 142.1 74.4043C142.088 74.39 142.076 74.3756 142.064 74.3613C141.956 74.2313 141.765 74.2128 141.634 74.3188C141.504 74.4253 141.483 74.617 141.589 74.7479C141.594 74.7552 141.617 74.7839 141.656 74.8288C142.116 75.3759 142.617 75.8865 143.07 76.3176L142.45 76.053C142.308 75.992 142.142 76.047 142.064 76.1817C141.987 76.3165 142.022 76.487 142.146 76.5804C142.206 76.6252 143.306 77.4466 144.257 77.9321C144.168 77.9375 144.062 77.9309 143.944 77.9219C143.801 77.9081 143.659 78.0111 143.624 78.1571C143.59 78.3037 143.666 78.4535 143.805 78.5109C143.829 78.5205 144.119 78.6402 144.477 78.7677C144.393 78.8018 144.327 78.8718 144.299 78.9628C144.258 79.0987 144.316 79.246 144.439 79.3166C144.472 79.3352 144.905 79.5836 145.441 79.8038C145.427 79.826 145.415 79.8499 145.406 79.8762C145.364 80.0049 145.412 80.1462 145.524 80.2235C145.617 80.2875 147.699 81.7003 150.13 81.7003C150.29 81.7003 150.451 81.6943 150.613 81.6812C150.782 81.6679 150.908 81.5202 150.894 81.3513C150.881 81.1824 150.734 81.0549 150.564 81.0705C149.037 81.1951 147.565 80.6216 146.69 80.1833C146.806 80.155 146.872 80.1294 146.889 80.1228C147.024 80.0677 147.101 79.9258 147.075 79.7827C147.049 79.6398 146.925 79.5349 146.78 79.5318C146.424 79.5246 145.932 79.3516 145.508 79.166C145.668 79.0858 145.762 79.0091 145.77 79.0025C145.862 78.9253 145.901 78.802 145.87 78.6859C145.838 78.5703 145.742 78.4835 145.623 78.4644C145.493 78.4428 145.331 78.4009 145.161 78.3494C145.326 78.2543 145.396 78.1495 145.423 78.0962C145.466 78.0112 145.467 77.9117 145.426 77.8262C145.385 77.7406 145.307 77.6789 145.214 77.6591C145.134 77.6417 145.043 77.6124 144.945 77.5741C144.963 77.5562 144.979 77.5358 144.993 77.5125C145.071 77.3802 145.039 77.2101 144.917 77.115C144.911 77.1102 144.673 76.9235 144.313 76.6127C144.37 76.5917 144.421 76.5528 144.457 76.5002C144.535 76.3889 144.529 76.2398 144.444 76.1343C144.438 76.1259 144.199 75.8264 143.871 75.3715C143.979 75.4556 144.088 75.5416 144.196 75.6112C144.247 75.6436 144.305 75.6597 144.362 75.6597C144.439 75.6597 144.516 75.6304 144.575 75.5735C144.599 75.55 144.618 75.5231 144.633 75.4944C144.819 75.693 145.014 75.8734 145.22 76.0272C145.246 76.0473 145.279 76.0469 145.309 76.057C145.396 76.2028 145.486 76.3488 145.581 76.4948C147.442 79.3586 150.067 80.8926 153.214 80.9847C152.925 81.1607 152.61 81.3426 152.112 81.5367C152.003 81.5791 151.907 81.6215 151.81 81.6641C151.764 81.6732 151.72 81.6901 151.684 81.719C150.814 82.1216 150.454 82.5193 150.308 82.7975C150.162 83.0741 150.288 83.3578 150.466 83.5051C150.521 83.5505 150.592 83.5739 150.662 83.5739C150.711 83.5739 150.759 83.5631 150.803 83.5409C150.912 83.487 150.984 83.3727 150.979 83.2524C150.992 83.2387 151.045 83.1944 151.212 83.1889C151.334 83.1787 151.59 83.2062 151.889 83.2302C152.174 83.2536 152.515 83.2802 152.878 83.2988C152.651 83.5634 152.387 83.8701 152.387 83.8701C152.308 83.9623 152.29 84.0928 152.343 84.2023C152.396 84.3125 152.51 84.3808 152.63 84.3765C152.872 84.368 153.037 84.3632 153.145 84.361C153.239 84.4844 153.355 84.5334 153.429 84.5525C153.64 84.6064 153.85 84.522 154.008 84.4221C154.128 84.5083 154.248 84.5448 154.343 84.5586C154.557 84.5879 154.755 84.5257 154.898 84.455C155.047 84.5509 155.192 84.5753 155.303 84.5753C155.304 84.5753 155.306 84.5753 155.308 84.5753C155.547 84.5742 155.756 84.4586 155.904 84.3454C156.035 84.4232 156.16 84.4483 156.257 84.4526C156.477 84.4604 156.658 84.376 156.779 84.2969C157.211 84.3836 157.584 84.1802 157.83 83.9557C157.942 84.0209 158.049 84.0371 158.134 84.0329C158.353 84.0251 158.519 83.8921 158.626 83.7731C159.116 83.8323 159.467 83.7419 159.671 83.5007C159.781 83.3696 159.826 83.2218 159.838 83.0871C161.197 83.0793 161.32 82.3375 161.33 82.2459C161.339 82.1626 161.314 82.0795 161.259 82.0155C161.206 81.9515 161.127 81.9119 161.044 81.9071L157.482 81.6929C157.333 81.6821 157.2 81.7821 157.165 81.9276C157.165 81.93 157.104 82.1562 156.914 82.3372C156.658 82.5813 156.247 82.7102 155.799 82.7785C155.8 82.7375 155.795 82.6958 155.779 82.655C155.718 82.497 155.54 82.4203 155.383 82.4797C154.647 82.765 153.457 82.7292 152.525 82.6644C152.668 82.5477 152.84 82.432 152.978 82.3565C153.094 82.2925 153.156 82.1614 153.131 82.031C153.114 81.9362 153.045 81.8702 152.962 81.8278C153.221 81.697 153.434 81.5707 153.635 81.4478C153.985 81.2336 154.315 81.0317 154.917 80.8229C156.078 80.4194 157.422 80.2967 157.436 80.2954C157.466 80.293 157.496 80.2852 157.524 80.2739C157.572 80.2541 161.363 78.6659 163.149 75.0015C163.126 75.1122 163.101 75.2135 163.074 75.302C163.027 75.4529 163.102 75.6139 163.248 75.6749C163.36 75.7222 163.488 75.6976 163.575 75.6174C163.462 75.915 163.36 76.149 163.276 76.2873C163.191 76.428 163.232 76.6106 163.369 76.7015C163.401 76.7225 163.436 76.7368 163.471 76.7452C163.333 76.9476 163.192 77.1391 163.053 77.3145C162.96 77.4313 162.965 77.5978 163.062 77.7079C162.822 77.9593 162.609 78.1665 162.448 78.2982C162.342 78.3838 162.308 78.5268 162.356 78.6491C162.2 78.7382 162.072 78.8012 161.983 78.828C161.834 78.8729 161.743 79.0231 161.771 79.1764C161.786 79.2573 161.831 79.3255 161.894 79.3704C161.706 79.4206 161.501 79.4691 161.279 79.5133C161.153 79.5384 161.057 79.6385 161.036 79.7647C161.016 79.891 161.076 80.0168 161.186 80.0802C161.196 80.0855 161.301 80.1448 161.461 80.213C160.868 80.4519 159.809 80.7638 158.072 80.935C157.904 80.9518 157.781 81.1021 157.797 81.2703C157.814 81.4386 157.959 81.5553 158.133 81.5457C161.43 81.2194 162.449 80.394 162.49 80.3586C162.586 80.2789 162.623 80.1491 162.586 80.0306C162.56 79.9522 162.505 79.8888 162.435 79.8521C163.488 79.5205 163.941 79.1534 163.964 79.1337C164.08 79.0379 164.109 78.8722 164.033 78.7422C163.956 78.6123 163.797 78.556 163.657 78.6123C163.618 78.6273 163.556 78.6427 163.477 78.6583C164.184 78.1741 164.934 77.5974 165.264 77.3401C165.322 77.2971 165.375 77.2556 165.422 77.2167C165.55 77.109 165.568 76.9184 165.462 76.7887C165.357 76.6595 165.166 76.6378 165.034 76.7414C164.987 76.7791 164.937 76.818 164.885 76.8581C164.733 76.9713 164.538 77.0994 164.326 77.231C165.128 76.3198 165.936 75.3321 166.167 75.0484C166.188 75.0226 166.208 74.9969 166.229 74.9711C166.335 74.8394 166.315 74.6466 166.183 74.5407C166.051 74.433 165.858 74.4552 165.752 74.5862L165.751 74.5869L165.751 74.5876C165.745 74.5942 165.72 74.6265 165.676 74.6804C165.434 74.9755 165.18 75.2612 164.928 75.528C165.746 74.0464 166.365 72.588 166.456 72.3719C166.459 72.3642 166.462 72.3565 166.465 72.3485C166.53 72.1935 166.456 72.0138 166.3 71.9491ZM151.934 82.2812L152.018 82.2921C151.915 82.388 151.831 82.4956 151.765 82.6067C151.62 82.595 151.487 82.5847 151.384 82.5801C151.527 82.4869 151.71 82.3858 151.934 82.2812Z" fill="#FFE15A"/>
<g filter="url(#filter0_d)">
<path d="M100.8 134H60.4V52L37.8 74.4L15 50.6L66 0.599989H100.8V134Z" fill="white"/>
</g>
<defs>
<filter id="filter0_d" x="0" y="0.599976" width="100.8" height="145.4" filterUnits="userSpaceOnUse" color-interpolation-filters="sRGB">
<feFlood flood-opacity="0" result="BackgroundImageFix"/>
<feColorMatrix in="SourceAlpha" type="matrix" values="0 0 0 0 0 0 0 0 0 0 0 0 0 0 0 0 0 0 127 0"/>
<feOffset dx="-10" dy="7"/>
<feGaussianBlur stdDeviation="2.5"/>
<feColorMatrix type="matrix" values="0 0 0 0 0.521569 0 0 0 0 0.266667 0 0 0 0 0.984314 0 0 0 1 0"/>
<feBlend mode="normal" in2="BackgroundImageFix" result="effect1_dropShadow"/>
<feBlend mode="normal" in="SourceGraphic" in2="effect1_dropShadow" result="shape"/>
</filter>
</defs>
</svg>
