<svg width="40" height="40" viewBox="0 0 40 40" fill="none" xmlns="http://www.w3.org/2000/svg">
<g clip-path="url(#clip0)">
<path d="M20.0009 39.9998C31.0466 39.9998 40.0008 31.0456 40.0008 19.9999C40.0008 8.95427 31.0466 0 20.0009 0C8.95525 0 0.000976562 8.95427 0.000976562 19.9999C0.000976562 31.0456 8.95525 39.9998 20.0009 39.9998Z" fill="#8544FB"/>
<path d="M39.9229 18.2526L30.838 9.15605C25.2884 9.87769 19.4888 9.77003 13.9392 9.8991C11.6497 9.8991 9.36012 10.9765 9.76418 13.5354C10.5722 18.6532 10.9763 23.6364 10.0336 28.8889C9.88511 29.5564 9.57285 30.2239 9.16504 30.8466L18.2405 39.9221C18.8202 39.9726 19.4068 39.9999 19.9998 39.9999C31.0453 39.9999 39.9997 31.0456 39.9997 20C39.9998 19.4109 39.9729 18.8284 39.9229 18.2526Z" fill="#8544FB"/>
<path d="M29.3767 8.55214H10.6233C9.47935 8.55214 8.55225 9.47924 8.55225 10.6232V29.3764C8.55225 30.5201 9.47935 31.4475 10.6233 31.4475H29.3765C30.5202 31.4475 31.4476 30.5201 31.4476 29.3764V10.6232C31.4478 9.47924 30.5204 8.55214 29.3767 8.55214ZM15.6371 28.3215C15.6371 28.6546 15.3673 28.9243 15.0343 28.9243H12.4689C12.1358 28.9243 11.8661 28.6544 11.8661 28.3215V17.5668C11.8661 17.2337 12.136 16.964 12.4689 16.964H15.0344C15.3675 16.964 15.6372 17.2339 15.6372 17.5668V28.3215H15.6371ZM13.7515 15.9501C12.4054 15.9501 11.3143 14.8588 11.3143 13.5125C11.3143 12.1665 12.4054 11.0753 13.7515 11.0753C15.0978 11.0753 16.1889 12.1667 16.1889 13.5125C16.1889 14.8589 15.0977 15.9501 13.7515 15.9501ZM29.0447 28.3701C29.0447 28.6762 28.7966 28.9245 28.4908 28.9245H25.7375C25.4316 28.9245 25.1834 28.6763 25.1834 28.3701V23.3253C25.1834 22.5729 25.4042 20.0276 23.2169 20.0276C21.5201 20.0276 21.1759 21.7698 21.1069 22.5514V28.3699C21.1069 28.676 20.8588 28.9243 20.5527 28.9243H17.89C17.5839 28.9243 17.3356 28.6761 17.3356 28.3699V17.5182C17.3356 17.2121 17.5838 16.9638 17.89 16.9638H20.5527C20.8588 16.9638 21.1069 17.212 21.1069 17.5182V18.4564C21.7361 17.5123 22.6712 16.7833 24.6617 16.7833C29.0699 16.7833 29.0449 20.9018 29.0449 23.165V28.3702H29.0447V28.3701Z" fill="white"/>
<path d="M29.3766 8.55214H19.9551V16.9638H20.5525C20.8586 16.9638 21.1067 17.212 21.1067 17.5182V18.4564C21.7359 17.5123 22.671 16.7833 24.6616 16.7833C29.0698 16.7833 29.0448 20.9018 29.0448 23.165V28.37C29.0448 28.6761 28.7968 28.9244 28.4909 28.9244H25.7376C25.4318 28.9244 25.1836 28.6762 25.1836 28.37V23.3252C25.1836 22.5729 25.4044 20.0276 23.217 20.0276C21.5202 20.0276 21.1761 21.7697 21.107 22.5513V28.3699C21.107 28.676 20.859 28.9242 20.5528 28.9242H19.9554V31.4478H29.3769C30.5206 31.4478 31.448 30.5203 31.448 29.3767V10.6232C31.4477 9.47924 30.5203 8.55214 29.3766 8.55214Z" fill="white"/>
</g>
<defs>
<clipPath id="clip0">
<rect width="40" height="40" fill="white"/>
</clipPath>
</defs>
</svg>
