<svg width="272" height="484" viewBox="0 0 272 484" fill="none" xmlns="http://www.w3.org/2000/svg">
<g clip-path="url(#clip0)">
<path d="M148.317 422.353L147.01 475.474L133.938 476.13C131.177 466.21 128.995 456.137 127.402 445.962C126.095 437.581 125.271 429.678 124.787 422.353H148.317Z" fill="#FECAA6"/>
<path d="M92.7538 423.008H70.5376L73.152 476.13H86.2177L92.7538 423.008Z" fill="#FECAA6"/>
<path d="M156.161 278.07C156.468 274.135 156.33 270.2 156.814 266.265C157.468 260.861 158.396 257.641 156.814 256.428C155.598 255.49 153.709 256.428 151.585 257.083C146.572 258.631 143.428 257.667 136.552 257.083C127.14 256.283 126.944 257.575 105.833 257.083C87.5641 256.657 78.4332 256.428 78.3809 256.428C77.3874 256.113 73.8775 254.926 72.4984 256.428C71.7598 257.234 72.3873 258.454 72.4984 261.018C72.6095 263.583 72.1781 264.953 71.8448 266.921C70.7206 273.512 70.0735 289.875 69.8839 299.056C69.7271 306.585 69.8186 312.357 69.8839 316.108C70.08 327.67 70.4853 327.913 70.5375 337.376C70.5375 345.902 70.3349 348.027 70.5375 356.113C71.0408 375.132 73.6879 377.349 72.4984 388.905C70.5964 407.392 69.6486 416.64 69.2303 417.761C68.9623 418.482 66.7858 424.319 68.5767 425.631C69.165 426.07 69.8839 425.775 72.4984 425.631C75.2435 425.48 76.6684 425.677 77.0736 425.631C80.6162 425.224 87.819 397.004 82.3025 320.699C81.211 305.575 86.3876 290.603 86.8778 275.447C86.9432 273.387 87.0543 268.81 90.1459 266.265C93.9041 263.176 97.9892 266.455 107.793 265.609C116.944 264.822 120.63 261.333 123.48 263.642C125.683 265.426 125.474 269.039 124.787 274.791C122.879 290.741 119.349 305.418 116.944 316.764C115.526 323.447 115.133 325.991 114.983 329.224C114.552 338.59 116.545 345.574 117.597 349.555C120.702 361.288 122.826 374.253 123.48 383.002C125.166 406.527 117.441 422.267 123.48 425.631C124.134 425.985 123.938 425.592 128.709 425.631C133.114 425.67 135.33 425.992 142.435 426.287C147.794 426.51 148.768 426.418 149.624 425.631C151.847 423.591 150.781 419.23 150.278 416.449C148.919 408.907 151.226 401.149 151.585 393.495C152.821 367.4 153.546 350.211 153.546 350.211C154.808 320.364 155.435 305.339 155.507 300.368C155.625 291.842 155.507 286.36 156.161 278.07Z" fill="#A8E10C"/>
<path d="M166.618 131.822C181.142 138.505 181.606 149.011 192.763 150.185C201.488 151.103 208.894 145.489 220.868 136.413C231.888 128.057 230.947 125.683 241.13 118.049C241.13 118.049 250.45 110.239 270.301 103.621C270.784 103.464 271.529 103.267 271.85 103.621C272.379 104.192 271.392 105.91 271.196 106.245C269.327 109.491 266.575 109.334 264.66 111.491C261.777 114.731 264.948 118.515 262.699 121.984C260.242 125.775 254.594 123.991 248.973 125.919C240.522 128.818 238.058 138.078 233.94 145.594C226.097 159.872 209.646 172.732 193.416 175.106C174.37 177.887 158.703 165.781 147.01 156.743C140.846 151.975 126.127 140.603 128.709 133.789C131.291 126.975 151.357 124.798 166.618 131.822Z" fill="#FFCCA7"/>
<path d="M62.6945 125.263C59.7206 127.723 60.0801 135.212 60.7337 150.185C61.2043 160.58 62.2305 162.645 63.3481 175.106C64.4919 187.882 63.4985 186.642 64.6553 205.93C66.1652 231.147 67.6031 228.792 66.6162 234.786C65.7724 240.023 65.9948 245.378 67.2698 250.526C68.028 253.432 69.2306 256.383 71.8451 257.74C73.2711 258.411 74.8642 258.639 76.4203 258.396C84.5643 257.642 79.9825 259.649 92.107 258.396C127.258 254.763 144.827 252.953 148.971 246.591C161.592 227.205 116.075 178.641 126.095 169.204C129.121 166.351 134.402 169.728 148.317 165.269C154.854 163.177 158.383 162.042 160.736 158.71C166.73 150.218 159.056 135.907 156.161 130.51C154.024 126.516 145.18 110.028 137.206 111.491C128.395 113.111 132.441 134.478 120.866 141.003C103.826 150.611 73.0477 116.698 62.6945 125.263Z" fill="#6D2EDE"/>
<path d="M105.179 81.3228C106.14 83.992 105.225 92.2554 105.179 92.4718C105.225 92.6424 106.277 92.4718 106.486 92.4718C107.833 92.3407 109.382 94.0327 109.754 94.4393C112.101 97.0036 115.245 109.432 109.754 112.802C106.95 114.521 103.251 113.058 99.2966 111.491C95.4795 109.976 95.6168 109.084 84.9172 100.998C81.7733 98.6235 78.5379 96.2625 79.0347 95.0951C79.2046 94.7017 79.6883 94.6951 80.3419 94.4393C83.3746 93.2654 84.4662 88.9894 84.9172 87.2252C86.1329 82.4639 84.4139 81.2375 85.5708 79.3553C88.4989 74.594 103.336 76.2073 105.179 81.3228Z" fill="#FFCCA7"/>
<path d="M81.9889 68.5607C81.2764 69.3936 83.3549 71.4595 84.1523 75.06C84.6033 77.0865 84.9105 83.225 84.917 85.2581C84.917 87.4682 84.5249 87.8814 84.917 88.5372C85.5706 89.5931 87.3027 89.7899 92.427 89.239C102.846 88.1241 104.238 86.3927 104.741 85.5794C104.852 85.4089 106.048 83.4546 105.297 82.3003C104.323 80.7722 101.375 82.6545 98.1069 81.8675C91.7473 80.3525 90.3159 70.4102 83.9693 68.5214C82.4856 68.0689 82.0804 68.4558 81.9889 68.5607Z" fill="#F1B086"/>
<path d="M104.669 83.015C116.477 81.4321 124.227 66.4702 121.98 49.5966C119.734 32.723 108.34 20.3274 96.533 21.9103C84.7256 23.4932 76.9752 38.4551 79.222 55.3287C81.4688 72.2023 92.862 84.5979 104.669 83.015Z" fill="#FFCCA7"/>
<path d="M84.9168 62.9582C82.603 55.5342 81.7534 54.7669 81.6488 52.465C81.4984 49.1071 83.2436 49.1268 84.2632 44.595C85.9953 36.9153 82.1782 31.5966 84.2632 30.1668C85.7796 29.1241 87.5901 32.1015 92.1065 32.1343C95.3288 32.1343 95.8648 30.6522 101.911 28.8552C105.832 27.6878 107.793 27.1041 109.754 27.5435C114.898 28.7044 117.46 35.3282 118.251 37.3809C122.375 48.0578 117.826 56.9967 120.865 58.3674C122.702 59.1937 125.584 56.4917 126.748 55.0883C130.304 50.7926 129.055 44.9164 128.709 43.2834C127.212 36.2595 122.964 36.1873 122.173 30.1668C121.656 26.2319 123.421 25.9237 124.133 18.362C124.656 12.7743 124.924 9.98707 123.48 7.21292C120.728 1.92696 113.545 -0.0470803 108.447 -0.00117249C103.715 0.0381771 102.996 1.79579 93.4138 5.24544C82.773 9.07547 82.0017 7.50148 76.4199 10.4921C73.2368 12.1972 65.6811 16.2437 62.6941 24.2644C61.0993 28.5404 62.0405 33.6755 64.0013 43.9392C66.3412 56.3474 69.1517 61.7711 71.8446 65.5815C73.9558 68.5655 76.8251 72.507 80.3416 72.1397C81.5551 71.9452 82.6894 71.4112 83.6143 70.5992C84.5392 69.7872 85.2171 68.73 85.5704 67.549C85.8972 66.3094 85.6554 65.3192 84.9168 62.9582Z" fill="#524B5D"/>
<path d="M80.9952 94.4383C79.866 94.3429 78.7329 94.5703 77.7271 95.0941C61.0666 102.308 52.7331 105.882 45.0466 112.146C33.53 121.53 37.4321 122.265 26.7455 130.509C24.5952 132.168 20.5232 136.864 12.3661 146.249C11.1791 147.49 10.4822 149.121 10.4053 150.839C10.4053 152.636 11.3334 154.119 13.6733 156.742C16.278 159.602 19.1206 162.235 22.1703 164.612C27.7782 169.157 29.2685 169.937 30.6672 170.514C32.8568 171.419 35.2425 172.364 37.8569 171.826C41.3014 171.118 43.0858 168.022 45.0466 165.268C45.5042 164.612 50.5827 159.811 60.7333 150.184C71.5178 139.953 72.2107 137.913 73.8055 138.379C76.4199 139.139 76.7075 144.688 77.0735 168.547C77.2827 182.319 79.518 196.091 79.688 209.864C79.7337 213.399 79.7272 218.449 82.956 222.98C86.5574 228.03 90.5314 227.322 92.1066 231.506C93.3092 234.706 91.3288 236.038 88.8385 247.902C87.4594 254.46 87.3744 257.378 88.8385 258.395C89.4921 258.834 90.1 258.585 92.1066 258.395C94.4923 258.165 96.8975 258.395 99.2963 258.395H120.865C138.604 258.264 139.036 257.739 143.088 258.395C146.125 258.768 149.179 258.987 152.239 259.051C156.226 259.234 157.546 259.169 158.775 258.395C161.546 256.65 161.899 252.525 162.043 250.525C165.121 206.972 153.546 163.3 153.546 163.3C145.971 134.719 140.435 115.641 141.127 115.425C141.624 115.267 145.219 124.764 147.663 131.82C150.454 141.522 153.846 151.039 157.821 160.316C157.878 160.467 157.984 160.594 158.121 160.677C158.225 160.72 158.336 160.742 158.448 160.742C158.56 160.742 158.671 160.72 158.775 160.677C159.977 160.27 160.736 158.709 160.736 158.709C162.219 155.653 169.095 153.358 172.501 146.249C173.056 145.088 174.906 141.232 173.808 137.067C173.239 134.909 172.024 134.28 167.272 129.197C164.984 126.751 166.546 128.299 161.389 122.639C156.814 117.609 154.513 115.097 152.5 113.162C150.002 110.626 147.29 108.311 144.395 106.243C142.558 104.963 140.644 103.798 138.663 102.754C137.8 102.295 136.977 101.882 136.095 101.482C130.866 99.075 123.218 96.819 119.558 95.75C112.636 93.73 107.251 92.1429 107.14 92.4708C107.85 92.816 108.51 93.2573 109.1 93.7825C109.636 94.3661 110.077 95.0299 110.408 95.75C110.952 96.796 111.39 97.8947 111.715 99.0291C112.257 101.102 113.166 109.385 108.447 112.146C104.14 114.664 98.1133 110.834 96.0282 109.522C94.3423 108.412 92.8048 107.089 91.453 105.587C85.5705 99.5406 84.7142 94.9171 80.9952 94.4383Z" fill="#8544FB"/>
<path d="M99.2963 226.261C95.2309 223.211 90.7275 219.833 84.9169 219.046C77.4527 218.036 76.42 222.463 68.5767 221.67C65.8184 221.394 62.8184 219.951 56.8117 217.079C50.9815 214.285 45.8245 211.786 39.8178 207.242C33.3209 202.329 30.0725 199.87 28.7064 195.437C26.9678 189.783 29.1966 184.504 30.6673 181.008C32.0762 177.54 34.2013 174.411 36.9027 171.827C31.4647 171.499 27.0985 168.259 22.1703 164.613C17.9711 161.448 14.3207 157.61 11.3661 153.254C10.255 155.484 9.06543 158.14 7.79089 161.334C1.67963 176.647 -1.35965 184.288 0.601177 193.469C2.75809 203.471 9.39224 209.721 13.0198 213.144C27.0332 226.359 44.6284 227.985 67.923 230.196C82.028 231.507 101.427 231.881 101.911 228.884C101.943 228.694 101.911 228.228 99.2963 226.261Z" fill="#FFCCA7"/>
<path d="M123.48 263.642C118.872 259.812 112.807 266.823 99.9501 264.954C96.6821 264.475 92.7604 263.393 90.146 265.61C88.793 266.744 88.1851 268.377 87.5315 270.201C86.4139 273.27 86.3877 276.431 86.2243 278.07C85.9694 280.576 86.1132 280.989 85.8517 282.95C85.4661 285.921 84.8517 288.052 84.2504 291.679C83.5445 295.961 83.9563 295.961 82.9432 304.303C82.5053 307.956 82.4464 307.76 82.2896 309.55C81.9698 313.26 81.9698 316.99 82.2896 320.699C82.6295 325.06 82.1785 323.447 82.4268 342.748C82.5379 351.07 82.7079 359.229 82.9432 367.919C82.9432 367.919 84.2504 415.794 76.4071 423.664C76.1693 423.828 75.9816 424.055 75.8646 424.32C75.8083 424.535 75.7711 424.754 75.7535 424.976C75.6816 425.526 75.7143 425.592 75.7535 425.631C75.7927 425.671 76.0018 425.631 76.4071 425.631C76.6228 425.631 76.845 425.631 77.0607 425.631H79.6751C82.5772 425.631 87.4792 425.631 90.1329 425.631C93.4532 425.671 93.4794 425.907 94.0546 425.631C98.2377 423.611 96.3291 411.446 96.0154 409.236C93.9369 394.519 100.95 372.319 114.97 327.913C114.97 327.913 124.121 302.054 126.081 273.48C126.251 271.165 126.513 266.161 123.48 263.642Z" fill="#A6D131"/>
<path d="M133.729 484H158.285C158.662 483.955 159.026 483.832 159.354 483.64C159.682 483.447 159.968 483.19 160.192 482.882C160.417 482.575 160.577 482.225 160.661 481.853C160.746 481.481 160.753 481.096 160.684 480.721C160.539 480.066 160.145 479.494 159.586 479.126C159.027 478.759 158.346 478.625 157.69 478.754C155.399 477.612 152.987 476.732 150.5 476.13C149.314 475.848 148.114 475.63 146.906 475.475H133.729C133.356 476.754 133.154 478.077 133.127 479.41C133.095 480.962 133.298 482.51 133.729 484Z" fill="#443D4F"/>
<path d="M73.0149 484H97.571C97.9483 483.955 98.3122 483.832 98.6403 483.64C98.9684 483.447 99.2537 483.19 99.4785 482.882C99.7034 482.575 99.863 482.225 99.9475 481.853C100.032 481.481 100.04 481.096 99.9698 480.721C99.8253 480.066 99.4314 479.494 98.8721 479.126C98.3128 478.759 97.6324 478.625 96.9762 478.754C94.6852 477.612 92.2735 476.732 89.7865 476.13C88.6006 475.848 87.4006 475.63 86.1917 475.475H73.0149C72.6421 476.754 72.4399 478.077 72.4135 479.41C72.3809 480.962 72.5837 482.51 73.0149 484Z" fill="#443D4F"/>
</g>
<defs>
<clipPath id="clip0">
<rect width="272" height="484" fill="white"/>
</clipPath>
</defs>
</svg>
