<svg width="60" height="60" viewBox="0 0 60 60" fill="none" xmlns="http://www.w3.org/2000/svg">
<circle cx="30" cy="30" r="30" fill="white"/>
<g clip-path="url(#clip0)">
<path d="M48.9708 39.5026L43.9982 34.53C42.6272 33.1591 40.3965 33.1591 39.0256 34.53L36.7654 36.7902C35.7268 37.8288 34.0368 37.8285 32.9986 36.7906L23.2017 26.9854C22.1607 25.9444 22.1605 24.2595 23.2017 23.2183C23.5658 22.8542 24.6112 21.8088 25.4619 20.958C26.8269 19.5932 26.8459 17.3694 25.4606 15.9842L20.4894 11.0286C19.1184 9.65773 16.8877 9.65773 15.5204 11.025C14.4973 12.0392 14.1673 12.3664 13.7086 12.8212C8.76482 17.7648 8.76482 25.8088 13.7083 30.7523L29.2312 46.2833C34.1865 51.2387 42.2068 51.2391 47.1625 46.2833L48.9708 44.4751C50.3417 43.1041 50.3417 40.8735 48.9708 39.5026ZM17.1744 12.6861C17.6313 12.2291 18.3747 12.2291 18.8332 12.6873L23.8044 17.643C24.2625 18.101 24.2625 18.8423 23.8044 19.3005L22.9756 20.1292L16.3498 13.5034L17.1744 12.6861ZM30.889 44.626L15.3661 29.0949C11.5412 25.2701 11.331 19.2642 14.7195 15.1882L21.3261 21.7948C19.5901 23.7627 19.6625 26.7613 21.5438 28.6427L31.3404 38.4474C31.3404 38.4475 31.3406 38.4477 31.3407 38.4477C33.22 40.3271 36.2185 40.4041 38.1888 38.6659L44.7955 45.2726C40.7325 48.6552 34.7401 48.4772 30.889 44.626ZM47.3133 42.8176L46.4845 43.6464L39.8544 37.0162L40.6831 36.1875C41.1401 35.7305 41.8837 35.7305 42.3407 36.1875L47.3133 41.1601C47.7703 41.6171 47.7703 42.3607 47.3133 42.8176Z" fill="#12121A"/>
</g>
<defs>
<clipPath id="clip0">
<rect width="40" height="40" fill="white" transform="translate(10 10)"/>
</clipPath>
</defs>
</svg>
