<svg width="397" height="148" viewBox="0 0 397 148" fill="none" xmlns="http://www.w3.org/2000/svg">
<path opacity="0.8" d="M255.24 86V87H256.992L256.101 85.4915L255.24 86ZM248.72 86L247.845 86.4838L248.13 87H248.72V86ZM243.48 76.52L244.355 76.0362L244.07 75.52H243.48V76.52ZM239.32 76.52V75.52H238.32V76.52H239.32ZM239.32 86V87H240.32V86H239.32ZM233.64 86H232.64V87H233.64V86ZM233.64 59.32V58.32H232.64V59.32H233.64ZM252.64 61.72L251.933 62.4271L251.939 62.4329L252.64 61.72ZM253.36 73.24L252.595 72.5954L252.588 72.6043L253.36 73.24ZM249.24 75.84L249.016 74.8653L247.684 75.1712L248.379 76.3485L249.24 75.84ZM248.16 70.56L248.811 71.3193L248.818 71.3127L248.826 71.3059L248.16 70.56ZM248.16 65.32L247.494 66.0659L247.502 66.0727L247.509 66.0793L248.16 65.32ZM239.32 64.32V63.32H238.32V64.32H239.32ZM239.32 71.52H238.32V72.52H239.32V71.52ZM255.24 85H248.72V87H255.24V85ZM249.595 85.5162L244.355 76.0362L242.605 77.0038L247.845 86.4838L249.595 85.5162ZM243.48 75.52H239.32V77.52H243.48V75.52ZM238.32 76.52V86H240.32V76.52H238.32ZM239.32 85H233.64V87H239.32V85ZM234.64 86V59.32H232.64V86H234.64ZM233.64 60.32H246.12V58.32H233.64V60.32ZM246.12 60.32C248.662 60.32 250.559 61.0535 251.933 62.4271L253.347 61.0129C251.521 59.1865 249.071 58.32 246.12 58.32V60.32ZM251.939 62.4329C253.352 63.8233 254.08 65.6223 254.08 67.92H256.08C256.08 65.1511 255.181 62.8167 253.341 61.0071L251.939 62.4329ZM254.08 67.92C254.08 69.9268 253.557 71.4544 252.595 72.5954L254.125 73.8846C255.456 72.3056 256.08 70.2866 256.08 67.92H254.08ZM252.588 72.6043C251.6 73.804 250.415 74.5442 249.016 74.8653L249.464 76.8147C251.318 76.3891 252.88 75.396 254.132 73.8757L252.588 72.6043ZM248.379 76.3485L254.379 86.5085L256.101 85.4915L250.101 75.3315L248.379 76.3485ZM245.28 72.52C246.644 72.52 247.849 72.1434 248.811 71.3193L247.509 69.8007C246.977 70.2566 246.263 70.52 245.28 70.52V72.52ZM248.826 71.3059C249.806 70.4308 250.28 69.2687 250.28 67.92H248.28C248.28 68.7579 248.007 69.3559 247.494 69.8141L248.826 71.3059ZM250.28 67.92C250.28 66.5714 249.806 65.4134 248.811 64.5607L247.509 66.0793C248.008 66.5066 248.28 67.0819 248.28 67.92H250.28ZM248.826 64.5741C247.865 63.7162 246.654 63.32 245.28 63.32V65.32C246.252 65.32 246.961 65.5905 247.494 66.0659L248.826 64.5741ZM245.28 63.32H239.32V65.32H245.28V63.32ZM238.32 64.32V71.52H240.32V64.32H238.32ZM239.32 72.52H245.28V70.52H239.32V72.52ZM281.343 86V87H282.343V86H281.343ZM276.263 86H275.263V87H276.263V86ZM276.263 83.56H277.263V80.9332L275.516 82.895L276.263 83.56ZM264.783 84.88L265.499 84.1819L265.499 84.1819L264.783 84.88ZM263.223 66.68V65.68H262.223V66.68H263.223ZM268.303 66.68H269.303V65.68H268.303V66.68ZM276.263 79.76L277.051 80.3759L277.263 80.1045V79.76H276.263ZM276.263 66.68V65.68H275.263V66.68H276.263ZM281.343 66.68H282.343V65.68H281.343V66.68ZM281.343 85H276.263V87H281.343V85ZM277.263 86V83.56H275.263V86H277.263ZM275.516 82.895C273.988 84.6114 272.002 85.48 269.463 85.48V87.48C272.525 87.48 275.072 86.402 277.01 84.225L275.516 82.895ZM269.463 85.48C267.544 85.48 266.286 84.9894 265.499 84.1819L264.067 85.5781C265.36 86.9039 267.222 87.48 269.463 87.48V85.48ZM265.499 84.1819C264.689 83.3515 264.223 82.1376 264.223 80.4H262.223C262.223 82.5024 262.797 84.2752 264.067 85.5781L265.499 84.1819ZM264.223 80.4V66.68H262.223V80.4H264.223ZM263.223 67.68H268.303V65.68H263.223V67.68ZM267.303 66.68V78.4H269.303V66.68H267.303ZM267.303 78.4C267.303 79.7408 267.639 80.9301 268.486 81.7771C269.333 82.6241 270.522 82.96 271.863 82.96V80.96C270.831 80.96 270.24 80.7025 269.9 80.3629C269.561 80.0232 269.303 79.4325 269.303 78.4H267.303ZM271.863 82.96C273.972 82.96 275.724 82.0732 277.051 80.3759L275.475 79.1441C274.509 80.3802 273.327 80.96 271.863 80.96V82.96ZM277.263 79.76V66.68H275.263V79.76H277.263ZM276.263 67.68H281.343V65.68H276.263V67.68ZM280.343 66.68V86H282.343V66.68H280.343ZM292.507 85.68L292.176 86.6236L292.181 86.6254L292.507 85.68ZM288.707 83.48L287.857 82.9543L287.423 83.6564L288.03 84.2155L288.707 83.48ZM290.907 79.92L291.588 79.1872L290.696 78.3593L290.057 79.3943L290.907 79.92ZM293.947 81.76L294.332 80.8369L294.332 80.8369L293.947 81.76ZM299.987 82L299.432 81.1679L299.423 81.1743L299.414 81.1808L299.987 82ZM299.947 79.32L299.451 80.1882L299.475 80.202L299.5 80.2144L299.947 79.32ZM297.827 78.64L297.668 79.6273L297.673 79.628L297.827 78.64ZM295.067 78.04L294.806 79.0054L294.813 79.0071L295.067 78.04ZM292.307 77.08L291.896 77.9914L291.906 77.9962L292.307 77.08ZM290.187 75.32L289.359 75.8808L289.37 75.8963L289.381 75.9114L290.187 75.32ZM291.467 67.96L290.828 67.1906L290.828 67.1906L291.467 67.96ZM305.067 68.84L305.93 69.3457L306.369 68.5973L305.69 68.0573L305.067 68.84ZM303.027 72.32L302.305 73.0119L303.221 73.9672L303.89 72.8257L303.027 72.32ZM300.547 70.72L300.159 71.6417L300.168 71.6452L300.547 70.72ZM295.107 70.64L295.634 71.4903L295.648 71.4814L295.662 71.472L295.107 70.64ZM295.107 73.08L294.643 73.9658L294.66 73.9747L294.677 73.9829L295.107 73.08ZM297.227 73.68L297.382 72.692L297.382 72.692L297.227 73.68ZM299.987 74.32L299.702 75.2785L299.714 75.2821L299.726 75.2854L299.987 74.32ZM302.747 75.32L302.323 76.2255L302.334 76.231L302.346 76.2362L302.747 75.32ZM303.467 84.76L304.083 85.5478L304.085 85.5463L303.467 84.76ZM297.347 85.48C295.775 85.48 294.272 85.2308 292.833 84.7346L292.181 86.6254C293.836 87.1958 295.559 87.48 297.347 87.48V85.48ZM292.838 84.7364C291.425 84.2406 290.282 83.5713 289.385 82.7445L288.03 84.2155C289.159 85.2553 290.549 86.0527 292.176 86.6236L292.838 84.7364ZM289.558 84.0057L291.758 80.4457L290.057 79.3943L287.857 82.9543L289.558 84.0057ZM290.227 80.6528C291.085 81.4498 292.21 82.1196 293.563 82.6831L294.332 80.8369C293.124 80.3337 292.223 79.7769 291.588 79.1872L290.227 80.6528ZM293.563 82.6831C294.94 83.2568 296.284 83.56 297.587 83.56V81.56C296.597 81.56 295.515 81.3299 294.332 80.8369L293.563 82.6831ZM297.587 83.56C298.74 83.56 299.783 83.3638 300.561 82.8192L299.414 81.1808C299.125 81.3828 298.568 81.56 297.587 81.56V83.56ZM300.542 82.8321C301.363 82.2847 301.827 81.4745 301.827 80.48H299.827C299.827 80.7655 299.731 80.9686 299.432 81.1679L300.542 82.8321ZM301.827 80.48C301.827 79.4834 301.176 78.8164 300.394 78.4256L299.5 80.2144C299.702 80.3154 299.783 80.3984 299.81 80.4344C299.823 80.4504 299.825 80.4579 299.825 80.4581C299.825 80.4582 299.827 80.4636 299.827 80.48H301.827ZM300.443 78.4518C299.749 78.0547 298.917 77.7981 297.982 77.652L297.673 79.628C298.444 79.7485 299.026 79.9453 299.451 80.1882L300.443 78.4518ZM297.986 77.6528C297.199 77.5257 296.311 77.3333 295.322 77.0729L294.813 79.0071C295.85 79.2801 296.802 79.4876 297.668 79.6272L297.986 77.6528ZM295.328 77.0746C294.385 76.8197 293.512 76.5155 292.708 76.1638L291.906 77.9962C292.809 78.3911 293.776 78.727 294.806 79.0054L295.328 77.0746ZM292.719 76.1686C292.064 75.8727 291.488 75.4031 290.994 74.7286L289.381 75.9114C290.06 76.8369 290.898 77.5406 291.896 77.9914L292.719 76.1686ZM291.015 74.7592C290.588 74.129 290.347 73.3211 290.347 72.28H288.347C288.347 73.6389 288.666 74.8577 289.359 75.8808L291.015 74.7592ZM290.347 72.28C290.347 70.8957 290.902 69.7293 292.106 68.7294L290.828 67.1906C289.206 68.5374 288.347 70.251 288.347 72.28H290.347ZM292.106 68.7294C293.287 67.7486 294.968 67.2 297.267 67.2V65.2C294.659 65.2 292.474 65.8247 290.828 67.1906L292.106 68.7294ZM297.267 67.2C300.041 67.2 302.419 68.0117 304.445 69.6227L305.69 68.0573C303.289 66.1483 300.466 65.2 297.267 65.2V67.2ZM304.204 68.3343L302.164 71.8143L303.89 72.8257L305.93 69.3457L304.204 68.3343ZM303.749 71.6281C303.017 70.8641 302.063 70.2608 300.927 69.7948L300.168 71.6452C301.112 72.0325 301.811 72.4959 302.305 73.0119L303.749 71.6281ZM300.935 69.7984C299.794 69.3178 298.581 69.08 297.307 69.08V71.08C298.326 71.08 299.274 71.2689 300.159 71.6416L300.935 69.7984ZM297.307 69.08C296.27 69.08 295.325 69.2931 294.552 69.808L295.662 71.472C296.01 71.2402 296.531 71.08 297.307 71.08V69.08ZM294.581 69.7897C293.787 70.281 293.267 71.0277 293.267 72H295.267C295.267 71.8523 295.307 71.6923 295.634 71.4903L294.581 69.7897ZM293.267 72C293.267 72.9628 293.93 73.5924 294.643 73.9658L295.571 72.1942C295.372 72.0898 295.292 72.0085 295.267 71.9761C295.256 71.9625 295.258 71.9613 295.262 71.9722C295.266 71.9839 295.267 71.995 295.267 72H293.267ZM294.677 73.9829C295.351 74.3038 296.158 74.5251 297.073 74.668L297.382 72.692C296.589 72.5682 295.983 72.3895 295.537 72.1771L294.677 73.9829ZM297.073 74.668C297.875 74.7933 298.751 74.9956 299.702 75.2785L300.272 73.3615C299.251 73.0577 298.286 72.8334 297.382 72.692L297.073 74.668ZM299.726 75.2854C300.661 75.5381 301.526 75.8521 302.323 76.2255L303.172 74.4145C302.261 73.9879 301.286 73.6352 300.248 73.3546L299.726 75.2854ZM302.346 76.2362C303.005 76.5244 303.567 77.0013 304.031 77.7087L305.703 76.6113C305.047 75.6121 304.196 74.8623 303.148 74.4038L302.346 76.2362ZM304.031 77.7087C304.464 78.3686 304.707 79.2084 304.707 80.28H306.707C306.707 78.8982 306.39 77.6581 305.703 76.6113L304.031 77.7087ZM304.707 80.28C304.707 81.77 304.115 82.9795 302.849 83.9737L304.085 85.5463C305.806 84.1938 306.707 82.4167 306.707 80.28H304.707ZM302.851 83.9722C301.619 84.9354 299.826 85.48 297.347 85.48V87.48C300.095 87.48 302.382 86.8779 304.083 85.5478L302.851 83.9722ZM315.57 85.68L315.239 86.6236L315.244 86.6254L315.57 85.68ZM311.77 83.48L310.919 82.9543L310.485 83.6564L311.092 84.2155L311.77 83.48ZM313.97 79.92L314.65 79.1872L313.759 78.3593L313.119 79.3943L313.97 79.92ZM317.01 81.76L317.394 80.8369L317.394 80.8369L317.01 81.76ZM323.05 82L322.495 81.1679L322.486 81.1743L322.476 81.1808L323.05 82ZM323.01 79.32L322.514 80.1882L322.538 80.202L322.562 80.2144L323.01 79.32ZM320.89 78.64L320.73 79.6273L320.735 79.628L320.89 78.64ZM318.13 78.04L317.869 79.0054L317.875 79.0071L318.13 78.04ZM315.37 77.08L314.958 77.9914L314.969 77.9962L315.37 77.08ZM313.25 75.32L312.422 75.8808L312.432 75.8963L312.443 75.9114L313.25 75.32ZM314.53 67.96L313.891 67.1906L313.891 67.1906L314.53 67.96ZM328.13 68.84L328.992 69.3457L329.431 68.5973L328.752 68.0573L328.13 68.84ZM326.09 72.32L325.368 73.0119L326.283 73.9672L326.952 72.8257L326.09 72.32ZM323.61 70.72L323.222 71.6417L323.23 71.6452L323.61 70.72ZM318.17 70.64L318.696 71.4903L318.71 71.4814L318.724 71.472L318.17 70.64ZM318.17 73.08L317.706 73.9658L317.723 73.9747L317.74 73.9829L318.17 73.08ZM320.29 73.68L320.444 72.692L320.444 72.692L320.29 73.68ZM323.05 74.32L322.765 75.2785L322.777 75.2821L322.789 75.2854L323.05 74.32ZM325.81 75.32L325.385 76.2255L325.397 76.231L325.409 76.2362L325.81 75.32ZM326.53 84.76L327.146 85.5478L327.148 85.5463L326.53 84.76ZM320.41 85.48C318.838 85.48 317.335 85.2308 315.896 84.7346L315.244 86.6254C316.898 87.1958 318.622 87.48 320.41 87.48V85.48ZM315.901 84.7364C314.488 84.2406 313.345 83.5713 312.447 82.7445L311.092 84.2155C312.221 85.2553 313.612 86.0527 315.239 86.6236L315.901 84.7364ZM312.62 84.0057L314.82 80.4457L313.119 79.3943L310.919 82.9543L312.62 84.0057ZM313.289 80.6528C314.148 81.4498 315.273 82.1196 316.625 82.6831L317.394 80.8369C316.187 80.3337 315.285 79.7769 314.65 79.1872L313.289 80.6528ZM316.625 82.6831C318.002 83.2568 319.346 83.56 320.65 83.56V81.56C319.66 81.56 318.577 81.3299 317.394 80.8369L316.625 82.6831ZM320.65 83.56C321.802 83.56 322.845 83.3638 323.623 82.8192L322.476 81.1808C322.188 81.3828 321.63 81.56 320.65 81.56V83.56ZM323.604 82.8321C324.425 82.2847 324.89 81.4745 324.89 80.48H322.89C322.89 80.7655 322.794 80.9686 322.495 81.1679L323.604 82.8321ZM324.89 80.48C324.89 79.4834 324.238 78.8164 323.457 78.4256L322.562 80.2144C322.764 80.3154 322.846 80.3984 322.873 80.4344C322.885 80.4504 322.887 80.4579 322.887 80.4581C322.887 80.4582 322.89 80.4636 322.89 80.48H324.89ZM323.506 78.4518C322.811 78.0547 321.979 77.7981 321.044 77.652L320.735 79.628C321.507 79.7485 322.088 79.9453 322.514 80.1882L323.506 78.4518ZM321.049 77.6528C320.261 77.5257 319.374 77.3333 318.384 77.0729L317.875 79.0071C318.913 79.2801 319.865 79.4876 320.73 79.6272L321.049 77.6528ZM318.391 77.0746C317.447 76.8197 316.574 76.5155 315.771 76.1638L314.969 77.9962C315.872 78.3911 316.839 78.727 317.869 79.0054L318.391 77.0746ZM315.781 76.1686C315.126 75.8727 314.551 75.4031 314.056 74.7286L312.443 75.9114C313.122 76.8369 313.96 77.5406 314.958 77.9914L315.781 76.1686ZM314.078 74.7592C313.651 74.129 313.41 73.3211 313.41 72.28H311.41C311.41 73.6389 311.729 74.8577 312.422 75.8808L314.078 74.7592ZM313.41 72.28C313.41 70.8957 313.964 69.7293 315.168 68.7294L313.891 67.1906C312.269 68.5374 311.41 70.251 311.41 72.28H313.41ZM315.168 68.7294C316.35 67.7486 318.031 67.2 320.33 67.2V65.2C317.722 65.2 315.536 65.8247 313.891 67.1906L315.168 68.7294ZM320.33 67.2C323.104 67.2 325.481 68.0117 327.507 69.6227L328.752 68.0573C326.351 66.1483 323.529 65.2 320.33 65.2V67.2ZM327.267 68.3343L325.227 71.8143L326.952 72.8257L328.992 69.3457L327.267 68.3343ZM326.812 71.6281C326.08 70.8641 325.125 70.2608 323.989 69.7948L323.23 71.6452C324.174 72.0325 324.873 72.4959 325.368 73.0119L326.812 71.6281ZM323.998 69.7984C322.856 69.3178 321.644 69.08 320.37 69.08V71.08C321.389 71.08 322.336 71.2689 323.222 71.6416L323.998 69.7984ZM320.37 69.08C319.333 69.08 318.387 69.2931 317.615 69.808L318.724 71.472C319.072 71.2402 319.594 71.08 320.37 71.08V69.08ZM317.643 69.7897C316.85 70.281 316.33 71.0277 316.33 72H318.33C318.33 71.8523 318.37 71.6923 318.696 71.4903L317.643 69.7897ZM316.33 72C316.33 72.9628 316.993 73.5924 317.706 73.9658L318.634 72.1942C318.435 72.0898 318.354 72.0085 318.329 71.9761C318.318 71.9625 318.32 71.9613 318.324 71.9722C318.328 71.9839 318.33 71.995 318.33 72H316.33ZM317.74 73.9829C318.414 74.3038 319.221 74.5251 320.135 74.668L320.444 72.692C319.652 72.5682 319.046 72.3895 318.6 72.1771L317.74 73.9829ZM320.135 74.668C320.937 74.7933 321.813 74.9956 322.765 75.2785L323.335 73.3615C322.313 73.0577 321.349 72.8334 320.444 72.692L320.135 74.668ZM322.789 75.2854C323.724 75.5381 324.589 75.8521 325.385 76.2255L326.234 74.4145C325.324 73.9879 324.349 73.6352 323.311 73.3546L322.789 75.2854ZM325.409 76.2362C326.068 76.5244 326.629 77.0013 327.094 77.7087L328.766 76.6113C328.11 75.6121 327.258 74.8623 326.211 74.4038L325.409 76.2362ZM327.094 77.7087C327.527 78.3686 327.77 79.2084 327.77 80.28H329.77C329.77 78.8982 329.453 77.6581 328.766 76.6113L327.094 77.7087ZM327.77 80.28C327.77 81.77 327.177 82.9795 325.912 83.9737L327.148 85.5463C328.869 84.1938 329.77 82.4167 329.77 80.28H327.77ZM325.914 83.9722C324.682 84.9354 322.888 85.48 320.41 85.48V87.48C323.158 87.48 325.444 86.8779 327.146 85.5478L325.914 83.9722ZM336.872 63.72L336.15 64.4112L336.165 64.4273L336.181 64.4426L336.872 63.72ZM336.872 59.44L336.181 58.7174L336.173 58.725L336.165 58.7329L336.872 59.44ZM341.192 63.72L341.899 64.4271L341.907 64.4192L341.915 64.4112L341.192 63.72ZM341.592 86V87H342.592V86H341.592ZM336.512 86H335.512V87H336.512V86ZM336.512 66.68V65.68H335.512V66.68H336.512ZM341.592 66.68H342.592V65.68H341.592V66.68ZM339.032 63.6C338.471 63.6 337.996 63.4113 337.563 62.9974L336.181 64.4426C336.975 65.202 337.94 65.6 339.032 65.6V63.6ZM337.595 63.0288C337.181 62.596 336.992 62.1216 336.992 61.56H334.992C334.992 62.6517 335.39 63.6173 336.15 64.4112L337.595 63.0288ZM336.992 61.56C336.992 60.9996 337.179 60.547 337.579 60.1471L336.165 58.7329C335.392 59.5063 334.992 60.467 334.992 61.56H336.992ZM337.563 60.1626C337.996 59.7487 338.471 59.56 339.032 59.56V57.56C337.94 57.56 336.975 57.958 336.181 58.7174L337.563 60.1626ZM339.032 59.56C339.629 59.56 340.092 59.7539 340.485 60.1471L341.899 58.7329C341.119 57.9528 340.142 57.56 339.032 57.56V59.56ZM340.485 60.1471C340.885 60.547 341.072 60.9996 341.072 61.56H343.072C343.072 60.467 342.673 59.5063 341.899 58.7329L340.485 60.1471ZM341.072 61.56C341.072 62.1216 340.883 62.596 340.47 63.0288L341.915 64.4112C342.674 63.6173 343.072 62.6517 343.072 61.56H341.072ZM340.485 63.0129C340.092 63.4061 339.629 63.6 339.032 63.6V65.6C340.142 65.6 341.119 65.2072 341.899 64.4271L340.485 63.0129ZM341.592 85H336.512V87H341.592V85ZM337.512 86V66.68H335.512V86H337.512ZM336.512 67.68H341.592V65.68H336.512V67.68ZM340.592 66.68V86H342.592V66.68H340.592ZM367.309 86V87H368.309V86H367.309ZM362.229 86H361.229V87H362.229V86ZM362.229 84H363.229V81.2515L361.463 83.3574L362.229 84ZM351.429 84.8L350.785 85.5645L350.793 85.5713L350.801 85.5779L351.429 84.8ZM351.389 75.4L350.782 74.6056L350.774 74.6115L351.389 75.4ZM362.229 76.2L361.466 76.8465L363.229 78.9267V76.2H362.229ZM361.069 71.24L360.465 72.0367L360.465 72.0367L361.069 71.24ZM352.349 72.64L351.479 73.1317L352.098 74.2292L353.026 73.3762L352.349 72.64ZM350.429 69.24L349.767 68.4907L349.161 69.0268L349.559 69.7317L350.429 69.24ZM364.949 67.92L365.538 67.1119L365.538 67.1119L364.949 67.92ZM362.229 81.36L363.034 81.9539L363.229 81.6891V81.36H362.229ZM362.229 78.96H363.229V78.6309L363.034 78.3661L362.229 78.96ZM355.549 78.08L356.139 78.8874L356.149 78.8801L356.159 78.8726L355.549 78.08ZM355.549 82.28L354.959 83.0874L354.959 83.0874L355.549 82.28ZM367.309 85H362.229V87H367.309V85ZM363.229 86V84H361.229V86H363.229ZM361.463 83.3574C360.312 84.7294 358.587 85.48 356.109 85.48V87.48C359.019 87.48 361.373 86.5773 362.996 84.6426L361.463 83.3574ZM356.109 85.48C354.612 85.48 353.272 85.0028 352.058 84.0221L350.801 85.5779C352.36 86.8372 354.14 87.48 356.109 87.48V85.48ZM352.074 84.0355C350.969 83.1038 350.389 81.8264 350.389 80.08H348.389C348.389 82.3336 349.17 84.2028 350.785 85.5645L352.074 84.0355ZM350.389 80.08C350.389 78.2296 350.97 76.9955 352.004 76.1885L350.774 74.6115C349.142 75.8845 348.389 77.7704 348.389 80.08H350.389ZM351.997 76.1944C353.174 75.2938 354.532 74.84 356.109 74.84V72.84C354.113 72.84 352.324 73.4262 350.782 74.6056L351.997 76.1944ZM356.109 74.84C358.666 74.84 360.381 75.5659 361.466 76.8465L362.992 75.5535C361.411 73.6874 359.046 72.84 356.109 72.84V74.84ZM363.229 76.2V73.6H361.229V76.2H363.229ZM363.229 73.6C363.229 72.3066 362.701 71.2227 361.674 70.4433L360.465 72.0367C360.984 72.4307 361.229 72.9201 361.229 73.6H363.229ZM361.674 70.4433C360.678 69.6882 359.418 69.36 357.989 69.36V71.36C359.121 71.36 359.914 71.6185 360.465 72.0367L361.674 70.4433ZM357.989 69.36C355.614 69.36 353.497 70.2264 351.673 71.9038L353.026 73.3762C354.508 72.0136 356.151 71.36 357.989 71.36V69.36ZM353.22 72.1483L351.3 68.7483L349.559 69.7317L351.479 73.1317L353.22 72.1483ZM351.092 69.9893C353.185 68.1391 355.756 67.2 358.869 67.2V65.2C355.316 65.2 352.26 66.2876 349.767 68.4907L351.092 69.9893ZM358.869 67.2C361.196 67.2 363 67.7366 364.36 68.7281L365.538 67.1119C363.752 65.8101 361.503 65.2 358.869 65.2V67.2ZM364.36 68.7281C365.595 69.6279 366.309 71.1383 366.309 73.52H368.309C368.309 70.7284 367.45 68.5054 365.538 67.1119L364.36 68.7281ZM366.309 73.52V86H368.309V73.52H366.309ZM358.149 84.04C360.237 84.04 361.956 83.4145 363.034 81.9539L361.425 80.7661C360.85 81.5455 359.849 82.04 358.149 82.04V84.04ZM363.229 81.36V78.96H361.229V81.36H363.229ZM363.034 78.3661C361.956 76.9055 360.237 76.28 358.149 76.28V78.28C359.849 78.28 360.85 78.7745 361.425 79.5539L363.034 78.3661ZM358.149 76.28C356.932 76.28 355.839 76.5955 354.94 77.2874L356.159 78.8726C356.646 78.4979 357.287 78.28 358.149 78.28V76.28ZM354.959 77.2726C353.992 77.9796 353.509 78.9951 353.509 80.2H355.509C355.509 79.5916 355.72 79.1938 356.139 78.8874L354.959 77.2726ZM353.509 80.2C353.509 81.3898 354.001 82.387 354.959 83.0874L356.139 81.4726C355.711 81.1597 355.509 80.7702 355.509 80.2H353.509ZM354.959 83.0874C355.858 83.7438 356.943 84.04 358.149 84.04V82.04C357.276 82.04 356.628 81.8296 356.139 81.4726L354.959 83.0874ZM394.468 86V87H395.468V86H394.468ZM389.388 86H388.388V87H389.388V86ZM381.428 73L380.616 72.4161L380.428 72.6777V73H381.428ZM381.428 86V87H382.428V86H381.428ZM376.348 86H375.348V87H376.348V86ZM376.348 66.68V65.68H375.348V66.68H376.348ZM381.428 66.68H382.428V65.68H381.428V66.68ZM381.428 69.2H380.428V71.9452L382.194 69.8432L381.428 69.2ZM392.868 67.84L392.144 68.5293L392.152 68.5383L392.868 67.84ZM394.468 85H389.388V87H394.468V85ZM390.388 86V74.32H388.388V86H390.388ZM390.388 74.32C390.388 72.9686 390.054 71.7709 389.209 70.9169C388.363 70.0607 387.172 69.72 385.828 69.72V71.72C386.858 71.72 387.447 71.9793 387.787 72.3231C388.129 72.6691 388.388 73.2713 388.388 74.32H390.388ZM385.828 69.72C383.66 69.72 381.894 70.6403 380.616 72.4161L382.24 73.5839C383.149 72.3197 384.317 71.72 385.828 71.72V69.72ZM380.428 73V86H382.428V73H380.428ZM381.428 85H376.348V87H381.428V85ZM377.348 86V66.68H375.348V86H377.348ZM376.348 67.68H381.428V65.68H376.348V67.68ZM380.428 66.68V69.2H382.428V66.68H380.428ZM382.194 69.8432C383.667 68.0897 385.629 67.2 388.188 67.2V65.2C385.094 65.2 382.549 66.3103 380.662 68.5568L382.194 69.8432ZM388.188 67.2C390.101 67.2 391.355 67.7002 392.144 68.5292L393.593 67.1508C392.301 65.7931 390.435 65.2 388.188 65.2V67.2ZM392.152 68.5383C392.993 69.3999 393.468 70.6305 393.468 72.36H395.468C395.468 70.2495 394.877 68.4668 393.584 67.1417L392.152 68.5383ZM393.468 72.36V86H395.468V72.36H393.468Z" fill="white"/>
<path d="M211 67.4485H151V55.3795C151 54.8082 151.463 54.3449 152.035 54.3449H209.965C210.537 54.3449 211 54.8082 211 55.3795L211 67.4485Z" fill="#F5F5F5"/>
<path d="M209.965 93.655H152.035C151.463 93.655 151 93.1918 151 92.6205V80.5516H211V92.6205C211 93.1919 210.537 93.655 209.965 93.655Z" fill="#FF4B55"/>
<path d="M211 67.4483H151V80.551H211V67.4483Z" fill="#41479B"/>
<g filter="url(#filter0_d)">
<path d="M130.2 136H21.2V104.6C37.8667 92.8667 50.0667 84.2 57.8 78.6C65.5333 73 72 67.9333 77.2 63.4C82.4 58.8667 85.4667 55.6 86.4 53.6C87.4667 51.6 88 49.2667 88 46.6C88 43.5333 86.5333 41.0667 83.6 39.2C80.6667 37.2 77 36.2 72.6 36.2C60.0667 36.2 48.3333 40.8 37.4 50L15.4 23.2C22.6 15.4667 31.2 9.79999 41.2 6.19999C51.3333 2.46666 61.5333 0.599991 71.8 0.599991C89 0.599991 102.8 4.93332 113.2 13.6C123.733 22.1333 129 33.1333 129 46.6C129 55.9333 125.867 64.7333 119.6 73C113.333 81.2667 102.4 90.5333 86.8 100.8H130.2V136Z" fill="white"/>
</g>
<defs>
<filter id="filter0_d" x="0.399994" y="0.599991" width="129.8" height="147.4" filterUnits="userSpaceOnUse" color-interpolation-filters="sRGB">
<feFlood flood-opacity="0" result="BackgroundImageFix"/>
<feColorMatrix in="SourceAlpha" type="matrix" values="0 0 0 0 0 0 0 0 0 0 0 0 0 0 0 0 0 0 127 0"/>
<feOffset dx="-10" dy="7"/>
<feGaussianBlur stdDeviation="2.5"/>
<feColorMatrix type="matrix" values="0 0 0 0 0.521569 0 0 0 0 0.266667 0 0 0 0 0.984314 0 0 0 1 0"/>
<feBlend mode="normal" in2="BackgroundImageFix" result="effect1_dropShadow"/>
<feBlend mode="normal" in="SourceGraphic" in2="effect1_dropShadow" result="shape"/>
</filter>
</defs>
</svg>
