<svg width="1554" height="580" viewBox="0 0 1554 580" fill="none" xmlns="http://www.w3.org/2000/svg">
<path d="M1401 110.502L1553.5 35.502" stroke="#A8E10C"/>
<path d="M959 47.502L1108.5 112.002" stroke="#A8E10C"/>
<path d="M1386.5 109.002L1163 130.502" stroke="#A8E10C"/>
<path d="M987 286.125L1142.66 269.002L1305 330.002" stroke="#A8E10C"/>
<path d="M608 193.002L741 307.002L934 276.002" stroke="#A8E10C"/>
<path d="M371 127.502L221.5 228.502L47 86.002" stroke="#A8E10C"/>
<g filter="url(#filter0_d)">
<circle cx="222" cy="225.002" r="20" fill="#A8E10C"/>
</g>
<path d="M223 232.002L302.5 374.502L323.5 395.502M323.5 395.502L475.5 290.502M323.5 395.502L80.5 510.002" stroke="#A8E10C"/>
<g filter="url(#filter1_d)">
<circle cx="313.5" cy="396.502" r="35.5" fill="#A8E10C"/>
</g>
<g filter="url(#filter2_d)">
<circle cx="56.5" cy="518.502" r="26.5" fill="#A8E10C"/>
</g>
<path d="M443 121.002L589.5 179.502L610.5 189.502M610.5 189.502L736.5 125.502M610.5 189.502L589.5 197.002L539 269.002" stroke="#A8E10C"/>
<g filter="url(#filter3_d)">
<circle cx="600" cy="188.002" r="15" fill="#A8E10C"/>
</g>
<path d="M945.5 42.002L792 110.502" stroke="#A8E10C"/>
<g filter="url(#filter4_d)">
<circle cx="956.5" cy="45.502" r="19.5" fill="#A8E10C"/>
</g>
<g filter="url(#filter5_d)">
<circle cx="990.5" cy="139.502" r="12.5" fill="#A8E10C"/>
</g>
<path d="M960 48.002L989.5 138.502L970 247.002" stroke="#A8E10C"/>
<g filter="url(#filter6_d)">
<circle cx="741.5" cy="299.502" r="19.5" fill="#A8E10C"/>
</g>
<path d="M1404 99.502L1297.5 308.502V337.002L1489 431.502" stroke="#A8E10C"/>
<g filter="url(#filter7_d)">
<circle cx="1297" cy="321.002" r="35" fill="#A8E10C"/>
</g>
<g filter="url(#filter8_d)">
<circle cx="1399.5" cy="109.502" r="31.5" fill="#A8E10C"/>
</g>
<g filter="url(#filter9_d)">
<circle cx="1489" cy="432.002" r="20" fill="#A8E10C"/>
</g>
<g filter="url(#filter10_d)">
<circle cx="1152" cy="273.002" r="20" fill="#A8E10C"/>
</g>
<g filter="url(#filter11_d)">
<circle cx="963" cy="280.002" r="40" fill="#A8E10C"/>
</g>
<path d="M840.181 361.338C837.344 361.338 834.973 360.442 833.069 358.65C831.184 356.839 830.241 354.515 830.241 351.678C830.241 348.841 831.184 346.526 833.069 344.734C834.973 342.923 837.344 342.018 840.181 342.018C843.672 342.018 846.276 343.539 847.993 346.582L844.577 348.262C844.166 347.478 843.56 346.834 842.757 346.33C841.973 345.807 841.114 345.546 840.181 345.546C838.482 345.546 837.082 346.125 835.981 347.282C834.88 348.439 834.329 349.905 834.329 351.678C834.329 353.451 834.88 354.917 835.981 356.074C837.082 357.231 838.482 357.81 840.181 357.81C841.114 357.81 841.973 357.558 842.757 357.054C843.56 356.55 844.166 355.897 844.577 355.094L847.993 356.746C846.22 359.807 843.616 361.338 840.181 361.338ZM861.952 361.002H858.396V359.602C857.425 360.759 855.997 361.338 854.112 361.338C852.898 361.338 851.806 360.946 850.836 360.162C849.884 359.359 849.408 358.258 849.408 356.858C849.408 355.402 849.874 354.31 850.808 353.582C851.76 352.854 852.861 352.49 854.112 352.49C856.034 352.49 857.462 353.041 858.396 354.142V352.322C858.396 351.631 858.125 351.081 857.584 350.67C857.042 350.259 856.324 350.054 855.428 350.054C853.953 350.054 852.637 350.586 851.48 351.65L850.136 349.27C851.741 347.851 853.71 347.142 856.044 347.142C857.78 347.142 859.198 347.543 860.3 348.346C861.401 349.149 861.952 350.455 861.952 352.266V361.002ZM855.54 358.93C856.865 358.93 857.817 358.538 858.396 357.754V356.074C857.817 355.29 856.865 354.898 855.54 354.898C854.812 354.898 854.205 355.085 853.72 355.458C853.234 355.813 852.992 356.307 852.992 356.942C852.992 357.558 853.234 358.043 853.72 358.398C854.205 358.753 854.812 358.93 855.54 358.93ZM878.163 361.002H874.607V352.826C874.607 351.146 873.776 350.306 872.115 350.306C870.827 350.306 869.8 350.838 869.035 351.902V361.002H865.479V347.478H869.035V349.242C870.211 347.842 871.788 347.142 873.767 347.142C875.223 347.142 876.315 347.525 877.043 348.29C877.79 349.055 878.163 350.11 878.163 351.454V361.002ZM895.214 361.338C893.123 361.338 891.396 360.685 890.034 359.378C888.671 358.071 887.99 356.354 887.99 354.226C887.99 352.229 888.643 350.549 889.95 349.186C891.275 347.823 892.955 347.142 894.99 347.142C897.006 347.142 898.639 347.833 899.89 349.214C901.14 350.577 901.766 352.369 901.766 354.59V355.374H891.714C891.826 356.27 892.227 357.017 892.918 357.614C893.608 358.211 894.504 358.51 895.606 358.51C896.203 358.51 896.847 358.389 897.538 358.146C898.247 357.903 898.807 357.577 899.218 357.166L900.786 359.462C899.423 360.713 897.566 361.338 895.214 361.338ZM898.322 352.966C898.266 352.201 897.958 351.51 897.398 350.894C896.856 350.278 896.054 349.97 894.99 349.97C893.982 349.97 893.198 350.278 892.638 350.894C892.078 351.491 891.751 352.182 891.658 352.966H898.322ZM916.01 361.002H912.454V359.602C911.484 360.759 910.056 361.338 908.17 361.338C906.957 361.338 905.865 360.946 904.894 360.162C903.942 359.359 903.466 358.258 903.466 356.858C903.466 355.402 903.933 354.31 904.866 353.582C905.818 352.854 906.92 352.49 908.17 352.49C910.093 352.49 911.521 353.041 912.454 354.142V352.322C912.454 351.631 912.184 351.081 911.642 350.67C911.101 350.259 910.382 350.054 909.486 350.054C908.012 350.054 906.696 350.586 905.538 351.65L904.194 349.27C905.8 347.851 907.769 347.142 910.102 347.142C911.838 347.142 913.257 347.543 914.358 348.346C915.46 349.149 916.01 350.455 916.01 352.266V361.002ZM909.598 358.93C910.924 358.93 911.876 358.538 912.454 357.754V356.074C911.876 355.29 910.924 354.898 909.598 354.898C908.87 354.898 908.264 355.085 907.778 355.458C907.293 355.813 907.05 356.307 907.05 356.942C907.05 357.558 907.293 358.043 907.778 358.398C908.264 358.753 908.87 358.93 909.598 358.93ZM924.073 361.338C922.823 361.338 921.871 361.021 921.217 360.386C920.564 359.751 920.237 358.837 920.237 357.642V350.586H917.997V347.478H920.237V343.782H923.821V347.478H926.565V350.586H923.821V356.69C923.821 357.119 923.933 357.474 924.157 357.754C924.381 358.034 924.68 358.174 925.053 358.174C925.613 358.174 926.024 358.043 926.285 357.782L927.041 360.47C926.388 361.049 925.399 361.338 924.073 361.338ZM947.838 361.002H944.282V359.602C943.312 360.759 941.884 361.338 939.998 361.338C938.785 361.338 937.693 360.946 936.722 360.162C935.77 359.359 935.294 358.258 935.294 356.858C935.294 355.402 935.761 354.31 936.694 353.582C937.646 352.854 938.748 352.49 939.998 352.49C941.921 352.49 943.349 353.041 944.282 354.142V352.322C944.282 351.631 944.012 351.081 943.47 350.67C942.929 350.259 942.21 350.054 941.314 350.054C939.84 350.054 938.524 350.586 937.366 351.65L936.022 349.27C937.628 347.851 939.597 347.142 941.93 347.142C943.666 347.142 945.085 347.543 946.186 348.346C947.288 349.149 947.838 350.455 947.838 352.266V361.002ZM941.426 358.93C942.752 358.93 943.704 358.538 944.282 357.754V356.074C943.704 355.29 942.752 354.898 941.426 354.898C940.698 354.898 940.092 355.085 939.606 355.458C939.121 355.813 938.878 356.307 938.878 356.942C938.878 357.558 939.121 358.043 939.606 358.398C940.092 358.753 940.698 358.93 941.426 358.93ZM971.242 361.002H967.686V352.77C967.686 351.874 967.471 351.239 967.042 350.866C966.612 350.493 965.987 350.306 965.166 350.306C963.915 350.306 962.888 350.838 962.086 351.902V361.002H958.53V342.326H962.086V349.242C962.571 348.663 963.224 348.169 964.046 347.758C964.886 347.347 965.819 347.142 966.846 347.142C968.302 347.142 969.394 347.515 970.122 348.262C970.868 349.009 971.242 350.054 971.242 351.398V361.002ZM986.448 361.002H982.892V359.602C981.921 360.759 980.493 361.338 978.608 361.338C977.394 361.338 976.302 360.946 975.332 360.162C974.38 359.359 973.904 358.258 973.904 356.858C973.904 355.402 974.37 354.31 975.304 353.582C976.256 352.854 977.357 352.49 978.608 352.49C980.53 352.49 981.958 353.041 982.892 354.142V352.322C982.892 351.631 982.621 351.081 982.08 350.67C981.538 350.259 980.82 350.054 979.924 350.054C978.449 350.054 977.133 350.586 975.976 351.65L974.632 349.27C976.237 347.851 978.206 347.142 980.54 347.142C982.276 347.142 983.694 347.543 984.796 348.346C985.897 349.149 986.448 350.455 986.448 352.266V361.002ZM980.036 358.93C981.361 358.93 982.313 358.538 982.892 357.754V356.074C982.313 355.29 981.361 354.898 980.036 354.898C979.308 354.898 978.701 355.085 978.216 355.458C977.73 355.813 977.488 356.307 977.488 356.942C977.488 357.558 977.73 358.043 978.216 358.398C978.701 358.753 979.308 358.93 980.036 358.93ZM1010.33 361.002H1006.75V352.462C1006.75 351.025 1006.07 350.306 1004.73 350.306C1004.15 350.306 1003.61 350.465 1003.11 350.782C1002.62 351.099 1002.23 351.463 1001.93 351.874V361.002H998.347V352.462C998.347 351.025 997.675 350.306 996.331 350.306C995.771 350.306 995.239 350.465 994.735 350.782C994.231 351.099 993.83 351.473 993.531 351.902V361.002H989.975V347.478H993.531V349.242C993.867 348.757 994.455 348.29 995.295 347.842C996.135 347.375 997.022 347.142 997.955 347.142C999.915 347.142 1001.17 347.963 1001.71 349.606C1002.14 348.934 1002.77 348.355 1003.61 347.87C1004.47 347.385 1005.38 347.142 1006.35 347.142C1007.62 347.142 1008.6 347.487 1009.29 348.178C1009.99 348.85 1010.33 349.867 1010.33 351.23V361.002ZM1017.37 356.662C1017.67 357.091 1018.11 357.455 1018.69 357.754C1019.27 358.034 1019.85 358.174 1020.43 358.174C1021.45 358.174 1022.28 357.819 1022.92 357.11C1023.55 356.382 1023.87 355.43 1023.87 354.254C1023.87 353.078 1023.55 352.126 1022.92 351.398C1022.28 350.67 1021.45 350.306 1020.43 350.306C1019.85 350.306 1019.27 350.455 1018.69 350.754C1018.11 351.053 1017.67 351.426 1017.37 351.874V356.662ZM1017.37 361.002H1013.82V342.326H1017.37V349.214C1018.44 347.833 1019.83 347.142 1021.55 347.142C1023.3 347.142 1024.74 347.786 1025.86 349.074C1026.98 350.362 1027.54 352.089 1027.54 354.254C1027.54 356.457 1026.98 358.193 1025.86 359.462C1024.74 360.713 1023.3 361.338 1021.55 361.338C1019.87 361.338 1018.48 360.647 1017.37 359.266V361.002ZM1042.91 361.002H1039.35V359.294C1038.14 360.657 1036.55 361.338 1034.59 361.338C1033.14 361.338 1032.04 360.965 1031.32 360.218C1030.59 359.471 1030.22 358.426 1030.22 357.082V347.478H1033.78V355.682C1033.78 357.343 1034.61 358.174 1036.27 358.174C1037.52 358.174 1038.55 357.661 1039.35 356.634V347.478H1042.91V361.002ZM1050 361.002H1046.44V347.478H1050V349.326C1050.5 348.691 1051.14 348.169 1051.93 347.758C1052.71 347.347 1053.51 347.142 1054.31 347.142V350.614C1054.07 350.558 1053.74 350.53 1053.33 350.53C1052.73 350.53 1052.1 350.679 1051.42 350.978C1050.75 351.277 1050.28 351.641 1050 352.07V361.002ZM1062.07 366.49C1059.74 366.49 1057.8 365.818 1056.25 364.474L1057.85 361.898C1058.85 363.018 1060.26 363.578 1062.07 363.578C1063.08 363.578 1063.95 363.307 1064.68 362.766C1065.42 362.243 1065.8 361.375 1065.8 360.162V358.79C1064.68 360.209 1063.29 360.918 1061.63 360.918C1059.87 360.918 1058.43 360.321 1057.31 359.126C1056.21 357.913 1055.66 356.214 1055.66 354.03C1055.66 351.865 1056.21 350.175 1057.31 348.962C1058.43 347.749 1059.87 347.142 1061.63 347.142C1063.31 347.142 1064.7 347.833 1065.8 349.214V347.478H1069.38V360.078C1069.38 361.31 1069.16 362.365 1068.71 363.242C1068.28 364.119 1067.69 364.782 1066.95 365.23C1066.2 365.678 1065.42 365.995 1064.62 366.182C1063.84 366.387 1062.99 366.49 1062.07 366.49ZM1062.75 357.754C1063.32 357.754 1063.9 357.605 1064.48 357.306C1065.06 357.007 1065.5 356.643 1065.8 356.214V351.846C1065.5 351.398 1065.06 351.034 1064.48 350.754C1063.92 350.455 1063.34 350.306 1062.75 350.306C1061.72 350.306 1060.89 350.642 1060.25 351.314C1059.64 351.986 1059.33 352.891 1059.33 354.03C1059.33 355.169 1059.64 356.074 1060.25 356.746C1060.89 357.418 1061.72 357.754 1062.75 357.754ZM1079.26 361.338C1077.17 361.338 1075.45 360.685 1074.08 359.378C1072.72 358.071 1072.04 356.354 1072.04 354.226C1072.04 352.229 1072.69 350.549 1074 349.186C1075.33 347.823 1077.01 347.142 1079.04 347.142C1081.06 347.142 1082.69 347.833 1083.94 349.214C1085.19 350.577 1085.82 352.369 1085.82 354.59V355.374H1075.76C1075.88 356.27 1076.28 357.017 1076.97 357.614C1077.66 358.211 1078.56 358.51 1079.66 358.51C1080.25 358.51 1080.9 358.389 1081.59 358.146C1082.3 357.903 1082.86 357.577 1083.27 357.166L1084.84 359.462C1083.47 360.713 1081.62 361.338 1079.26 361.338ZM1082.37 352.966C1082.32 352.201 1082.01 351.51 1081.45 350.894C1080.91 350.278 1080.1 349.97 1079.04 349.97C1078.03 349.97 1077.25 350.278 1076.69 350.894C1076.13 351.491 1075.8 352.182 1075.71 352.966H1082.37ZM1091.94 361.002H1088.39V347.478H1091.94V349.326C1092.45 348.691 1093.09 348.169 1093.87 347.758C1094.66 347.347 1095.45 347.142 1096.25 347.142V350.614C1096.01 350.558 1095.68 350.53 1095.27 350.53C1094.68 350.53 1094.04 350.679 1093.37 350.978C1092.7 351.277 1092.22 351.641 1091.94 352.07V361.002ZM879.452 380.022C878.873 380.022 878.369 379.817 877.94 379.406C877.529 378.977 877.324 378.473 877.324 377.894C877.324 377.315 877.529 376.821 877.94 376.41C878.369 375.999 878.873 375.794 879.452 375.794C880.049 375.794 880.553 375.999 880.964 376.41C881.374 376.821 881.58 377.315 881.58 377.894C881.58 378.473 881.374 378.977 880.964 379.406C880.553 379.817 880.049 380.022 879.452 380.022ZM881.244 395.002H877.688V381.478H881.244V395.002ZM897.454 395.002H893.898V386.826C893.898 385.146 893.067 384.306 891.406 384.306C890.118 384.306 889.091 384.838 888.326 385.902V395.002H884.77V381.478H888.326V383.242C889.502 381.842 891.079 381.142 893.058 381.142C894.514 381.142 895.606 381.525 896.334 382.29C897.081 383.055 897.454 384.11 897.454 385.454V395.002ZM914.309 395.338C912.666 395.338 911.21 395.067 909.941 394.526C908.671 393.966 907.673 393.238 906.945 392.342L909.017 389.682C909.651 390.335 910.435 390.858 911.369 391.25C912.302 391.623 913.235 391.81 914.169 391.81C915.289 391.81 916.157 391.595 916.773 391.166C917.389 390.718 917.697 390.139 917.697 389.43C917.697 388.683 917.398 388.142 916.801 387.806C916.203 387.451 915.251 387.274 913.945 387.274C912.769 387.274 911.994 387.293 911.621 387.33V383.746C911.845 383.765 912.619 383.774 913.945 383.774C916.241 383.774 917.389 383.111 917.389 381.786C917.389 381.077 917.062 380.535 916.409 380.162C915.774 379.77 914.943 379.574 913.917 379.574C912.106 379.574 910.529 380.218 909.185 381.506L907.197 379.014C908.951 377.035 911.331 376.046 914.337 376.046C916.521 376.046 918.238 376.503 919.489 377.418C920.758 378.333 921.393 379.565 921.393 381.114C921.393 382.234 920.991 383.177 920.189 383.942C919.386 384.689 918.425 385.165 917.305 385.37C918.406 385.482 919.405 385.939 920.301 386.742C921.215 387.526 921.673 388.562 921.673 389.85C921.673 391.474 921.001 392.799 919.657 393.826C918.313 394.834 916.53 395.338 914.309 395.338ZM930.574 395.002H926.206L932.898 379.826H923.49V376.326H937.518V379.098L930.574 395.002ZM951.876 395.338C950.7 395.338 949.571 395.151 948.488 394.778C947.424 394.405 946.538 393.891 945.828 393.238L947.368 390.746C947.891 391.231 948.6 391.661 949.496 392.034C950.392 392.407 951.242 392.594 952.044 392.594C952.791 392.594 953.351 392.463 953.724 392.202C954.116 391.941 954.312 391.586 954.312 391.138C954.312 390.802 954.107 390.531 953.696 390.326C953.304 390.102 952.81 389.943 952.212 389.85C951.634 389.757 950.99 389.617 950.28 389.43C949.59 389.243 948.946 389.019 948.348 388.758C947.77 388.497 947.275 388.086 946.864 387.526C946.472 386.947 946.276 386.238 946.276 385.398C946.276 384.203 946.771 383.195 947.76 382.374C948.75 381.553 950.103 381.142 951.82 381.142C953.911 381.142 955.731 381.758 957.28 382.99L955.852 385.426C955.423 384.978 954.844 384.605 954.116 384.306C953.407 384.007 952.651 383.858 951.848 383.858C951.214 383.858 950.7 383.989 950.308 384.25C949.916 384.493 949.72 384.81 949.72 385.202C949.72 385.501 949.916 385.753 950.308 385.958C950.7 386.145 951.195 386.285 951.792 386.378C952.39 386.471 953.034 386.621 953.724 386.826C954.415 387.013 955.059 387.246 955.656 387.526C956.254 387.787 956.748 388.217 957.14 388.814C957.532 389.411 957.728 390.139 957.728 390.998C957.728 392.267 957.206 393.313 956.16 394.134C955.134 394.937 953.706 395.338 951.876 395.338ZM966.704 395.338C964.613 395.338 962.887 394.685 961.524 393.378C960.161 392.071 959.48 390.354 959.48 388.226C959.48 386.229 960.133 384.549 961.44 383.186C962.765 381.823 964.445 381.142 966.48 381.142C968.496 381.142 970.129 381.833 971.38 383.214C972.631 384.577 973.256 386.369 973.256 388.59V389.374H963.204C963.316 390.27 963.717 391.017 964.408 391.614C965.099 392.211 965.995 392.51 967.096 392.51C967.693 392.51 968.337 392.389 969.028 392.146C969.737 391.903 970.297 391.577 970.708 391.166L972.276 393.462C970.913 394.713 969.056 395.338 966.704 395.338ZM969.812 386.966C969.756 386.201 969.448 385.51 968.888 384.894C968.347 384.278 967.544 383.97 966.48 383.97C965.472 383.97 964.688 384.278 964.128 384.894C963.568 385.491 963.241 386.182 963.148 386.966H969.812ZM982.125 395.338C980.034 395.338 978.317 394.675 976.973 393.35C975.629 392.025 974.957 390.317 974.957 388.226C974.957 386.154 975.629 384.455 976.973 383.13C978.317 381.805 980.034 381.142 982.125 381.142C984.514 381.142 986.297 381.954 987.473 383.578L985.149 385.762C984.495 384.791 983.543 384.306 982.293 384.306C981.21 384.306 980.323 384.67 979.633 385.398C978.961 386.107 978.625 387.05 978.625 388.226C978.625 389.402 978.961 390.354 979.633 391.082C980.323 391.81 981.21 392.174 982.293 392.174C983.506 392.174 984.458 391.689 985.149 390.718L987.473 392.874C986.297 394.517 984.514 395.338 982.125 395.338ZM1001.28 393.294C999.971 394.657 998.235 395.338 996.069 395.338C993.904 395.338 992.168 394.657 990.861 393.294C989.573 391.913 988.929 390.223 988.929 388.226C988.929 386.229 989.573 384.549 990.861 383.186C992.168 381.823 993.904 381.142 996.069 381.142C998.235 381.142 999.971 381.823 1001.28 383.186C1002.58 384.549 1003.24 386.229 1003.24 388.226C1003.24 390.223 1002.58 391.913 1001.28 393.294ZM993.549 391.054C994.165 391.801 995.005 392.174 996.069 392.174C997.133 392.174 997.973 391.801 998.589 391.054C999.224 390.289 999.541 389.346 999.541 388.226C999.541 387.125 999.224 386.201 998.589 385.454C997.973 384.689 997.133 384.306 996.069 384.306C995.005 384.306 994.165 384.689 993.549 385.454C992.933 386.201 992.625 387.125 992.625 388.226C992.625 389.346 992.933 390.289 993.549 391.054ZM1018.56 395.002H1015V386.826C1015 385.146 1014.17 384.306 1012.51 384.306C1011.22 384.306 1010.2 384.838 1009.43 385.902V395.002H1005.88V381.478H1009.43V383.242C1010.61 381.842 1012.18 381.142 1014.16 381.142C1015.62 381.142 1016.71 381.525 1017.44 382.29C1018.19 383.055 1018.56 384.11 1018.56 385.454V395.002ZM1034.97 395.002H1031.39V393.266C1030.28 394.647 1028.89 395.338 1027.21 395.338C1025.46 395.338 1024.02 394.713 1022.9 393.462C1021.78 392.193 1021.22 390.457 1021.22 388.254C1021.22 386.089 1021.78 384.362 1022.9 383.074C1024.02 381.786 1025.46 381.142 1027.21 381.142C1028.93 381.142 1030.32 381.833 1031.39 383.214V376.326H1034.97V395.002ZM1028.31 392.174C1028.9 392.174 1029.49 392.034 1030.07 391.754C1030.65 391.455 1031.09 391.082 1031.39 390.634V385.846C1031.09 385.398 1030.65 385.034 1030.07 384.754C1029.49 384.455 1028.9 384.306 1028.31 384.306C1027.3 384.306 1026.48 384.67 1025.84 385.398C1025.21 386.126 1024.89 387.078 1024.89 388.254C1024.89 389.411 1025.21 390.354 1025.84 391.082C1026.48 391.81 1027.3 392.174 1028.31 392.174ZM1043.37 395.338C1042.19 395.338 1041.06 395.151 1039.98 394.778C1038.92 394.405 1038.03 393.891 1037.32 393.238L1038.86 390.746C1039.38 391.231 1040.09 391.661 1040.99 392.034C1041.88 392.407 1042.73 392.594 1043.54 392.594C1044.28 392.594 1044.84 392.463 1045.22 392.202C1045.61 391.941 1045.8 391.586 1045.8 391.138C1045.8 390.802 1045.6 390.531 1045.19 390.326C1044.8 390.102 1044.3 389.943 1043.7 389.85C1043.13 389.757 1042.48 389.617 1041.77 389.43C1041.08 389.243 1040.44 389.019 1039.84 388.758C1039.26 388.497 1038.77 388.086 1038.36 387.526C1037.96 386.947 1037.77 386.238 1037.77 385.398C1037.77 384.203 1038.26 383.195 1039.25 382.374C1040.24 381.553 1041.6 381.142 1043.31 381.142C1045.4 381.142 1047.22 381.758 1048.77 382.99L1047.34 385.426C1046.92 384.978 1046.34 384.605 1045.61 384.306C1044.9 384.007 1044.14 383.858 1043.34 383.858C1042.71 383.858 1042.19 383.989 1041.8 384.25C1041.41 384.493 1041.21 384.81 1041.21 385.202C1041.21 385.501 1041.41 385.753 1041.8 385.958C1042.19 386.145 1042.69 386.285 1043.28 386.378C1043.88 386.471 1044.53 386.621 1045.22 386.826C1045.91 387.013 1046.55 387.246 1047.15 387.526C1047.75 387.787 1048.24 388.217 1048.63 388.814C1049.02 389.411 1049.22 390.139 1049.22 390.998C1049.22 392.267 1048.7 393.313 1047.65 394.134C1046.63 394.937 1045.2 395.338 1043.37 395.338Z" fill="white"/>
<g clip-path="url(#clip0)">
<path d="M963.88 269.15C963.68 269.351 963.353 269.351 963.153 269.15C962.749 268.746 962.093 268.746 961.689 269.15C961.285 269.554 961.285 270.21 961.689 270.614C962.193 271.118 962.855 271.37 963.516 271.37C964.178 271.37 964.84 271.118 965.344 270.614C965.748 270.21 965.748 269.555 965.344 269.15C964.94 268.746 964.284 268.746 963.88 269.15Z" fill="white"/>
<path d="M986.48 298.963H985.078C985.847 298.01 986.31 296.798 986.31 295.481C986.31 291.99 985.296 288.604 983.379 285.688C980.072 280.656 974.502 277.652 968.48 277.652H967.901V274.979C970.679 273.429 972.562 270.461 972.562 267.06V262.064C972.562 257.067 968.497 253.002 963.5 253.002C958.503 253.002 954.438 257.067 954.438 262.064V267.06C954.438 268.303 954.69 269.488 955.145 270.567H939.887C939.316 270.567 938.852 271.03 938.852 271.602C938.852 272.174 939.316 272.637 939.887 272.637H941.128C940.851 273.168 940.693 273.771 940.693 274.41V276.916L938.167 286.992C937.74 288.697 938.115 290.47 939.196 291.857C940.278 293.243 941.907 294.038 943.665 294.038H947.347V298.963H940.52C938.579 298.963 937 300.542 937 302.482C937 304.423 938.579 306.002 940.52 306.002H958.842C959.413 306.002 959.877 305.539 959.877 304.967C959.877 304.395 959.413 303.932 958.842 303.932H940.52C939.72 303.932 939.07 303.282 939.07 302.482C939.07 301.683 939.72 301.033 940.52 301.033H986.48C987.28 301.033 987.93 301.683 987.93 302.482C987.93 303.282 987.28 303.932 986.48 303.932H968.158C967.587 303.932 967.123 304.395 967.123 304.967C967.123 305.539 967.587 306.002 968.158 306.002H986.48C988.421 306.002 990 304.423 990 302.482C990 300.542 988.421 298.963 986.48 298.963V298.963ZM965.831 278.045C965.831 279.33 964.785 280.376 963.5 280.376C962.215 280.376 961.169 279.33 961.169 278.045V275.818C961.913 276.016 962.694 276.122 963.5 276.122C964.306 276.122 965.087 276.016 965.831 275.818V278.045ZM959.099 277.676C955.159 277.875 951.443 279.284 948.379 281.723V274.41C948.379 273.771 948.221 273.168 947.944 272.637H950.501V273.493C950.501 275.341 952.005 276.845 953.853 276.845C955.676 276.845 957.162 275.383 957.203 273.57C957.769 274.118 958.406 274.592 959.099 274.979V277.676ZM963.5 274.052C959.645 274.052 956.509 270.915 956.509 267.06V264.406H956.774C959.148 264.406 961.46 263.778 963.5 262.582C965.541 263.778 967.852 264.406 970.226 264.406H970.491V267.06C970.491 270.915 967.355 274.052 963.5 274.052V274.052ZM963.5 255.072C967.355 255.072 970.491 258.208 970.491 262.064V262.336H970.226C968.033 262.336 965.903 261.701 964.067 260.499C963.722 260.274 963.277 260.274 962.933 260.499C961.097 261.701 958.967 262.336 956.774 262.336H956.509V262.064C956.509 258.208 959.645 255.072 963.5 255.072ZM955.135 272.637V273.493C955.135 274.2 954.56 274.774 953.853 274.774C953.147 274.774 952.572 274.2 952.572 273.493V272.637H955.135ZM946.309 274.41V276.009H942.763V274.41C942.763 273.432 943.559 272.637 944.536 272.637C945.514 272.637 946.309 273.432 946.309 274.41V274.41ZM963.5 298.963C958.313 298.963 954.032 295.009 953.512 289.957H973.488C972.968 295.009 968.687 298.963 963.5 298.963ZM970.265 298.963C972.153 297.687 973.663 295.893 974.59 293.787H978.441C979.012 293.787 979.476 293.324 979.476 292.752C979.476 292.18 979.012 291.717 978.441 291.717H975.285C975.498 290.819 975.611 289.884 975.611 288.922C975.611 288.35 975.148 287.887 974.576 287.887H952.424C951.852 287.887 951.389 288.35 951.389 288.922C951.389 293.096 953.512 296.784 956.735 298.963H949.418V293.003C949.418 292.431 948.954 291.968 948.383 291.968H943.665C942.549 291.968 941.515 291.463 940.829 290.583C940.142 289.703 939.904 288.578 940.175 287.495L942.536 278.079H946.309V285.832C946.309 286.403 946.772 286.867 947.344 286.867C947.916 286.867 948.379 286.403 948.379 285.832V284.48C951.373 281.558 955.271 279.888 959.437 279.735C960.101 281.325 961.672 282.446 963.5 282.446C965.333 282.446 966.908 281.319 967.568 279.722H968.48C973.803 279.722 978.726 282.377 981.649 286.825C983.344 289.403 984.239 292.396 984.239 295.481C984.239 297.401 982.677 298.963 980.757 298.963H970.265V298.963Z" fill="white"/>
<path d="M963.5 303.932C963.228 303.932 962.961 304.042 962.768 304.235C962.576 304.427 962.465 304.695 962.465 304.967C962.465 305.239 962.576 305.506 962.768 305.699C962.961 305.891 963.228 306.002 963.5 306.002C963.772 306.002 964.039 305.891 964.232 305.699C964.424 305.506 964.535 305.239 964.535 304.967C964.535 304.695 964.424 304.427 964.232 304.235C964.039 304.042 963.772 303.932 963.5 303.932Z" fill="white"/>
</g>
<g filter="url(#filter12_d)">
<circle cx="508" cy="280.002" r="40" fill="#A8E10C"/>
</g>
<path d="M465.092 361.002H461.088V347.926L455.824 361.002H454.088L448.824 347.926V361.002H444.848V342.326H450.42L454.956 353.61L459.492 342.326H465.092V361.002ZM475.073 361.338C472.982 361.338 471.256 360.685 469.893 359.378C468.53 358.071 467.849 356.354 467.849 354.226C467.849 352.229 468.502 350.549 469.809 349.186C471.134 347.823 472.814 347.142 474.849 347.142C476.865 347.142 478.498 347.833 479.749 349.214C481 350.577 481.625 352.369 481.625 354.59V355.374H471.573C471.685 356.27 472.086 357.017 472.777 357.614C473.468 358.211 474.364 358.51 475.465 358.51C476.062 358.51 476.706 358.389 477.397 358.146C478.106 357.903 478.666 357.577 479.077 357.166L480.645 359.462C479.282 360.713 477.425 361.338 475.073 361.338ZM478.181 352.966C478.125 352.201 477.817 351.51 477.257 350.894C476.716 350.278 475.913 349.97 474.849 349.97C473.841 349.97 473.057 350.278 472.497 350.894C471.937 351.491 471.61 352.182 471.517 352.966H478.181ZM496.878 361.002H493.322V352.826C493.322 351.146 492.491 350.306 490.83 350.306C489.542 350.306 488.515 350.838 487.75 351.902V361.002H484.194V347.478H487.75V349.242C488.926 347.842 490.503 347.142 492.482 347.142C493.938 347.142 495.03 347.525 495.758 348.29C496.504 349.055 496.878 350.11 496.878 351.454V361.002ZM504.945 361.338C503.694 361.338 502.742 361.021 502.089 360.386C501.435 359.751 501.109 358.837 501.109 357.642V350.586H498.869V347.478H501.109V343.782H504.693V347.478H507.437V350.586H504.693V356.69C504.693 357.119 504.805 357.474 505.029 357.754C505.253 358.034 505.551 358.174 505.925 358.174C506.485 358.174 506.895 358.043 507.157 357.782L507.913 360.47C507.259 361.049 506.27 361.338 504.945 361.338ZM521.349 359.294C520.043 360.657 518.307 361.338 516.141 361.338C513.976 361.338 512.24 360.657 510.933 359.294C509.645 357.913 509.001 356.223 509.001 354.226C509.001 352.229 509.645 350.549 510.933 349.186C512.24 347.823 513.976 347.142 516.141 347.142C518.307 347.142 520.043 347.823 521.349 349.186C522.656 350.549 523.309 352.229 523.309 354.226C523.309 356.223 522.656 357.913 521.349 359.294ZM513.621 357.054C514.237 357.801 515.077 358.174 516.141 358.174C517.205 358.174 518.045 357.801 518.661 357.054C519.296 356.289 519.613 355.346 519.613 354.226C519.613 353.125 519.296 352.201 518.661 351.454C518.045 350.689 517.205 350.306 516.141 350.306C515.077 350.306 514.237 350.689 513.621 351.454C513.005 352.201 512.697 353.125 512.697 354.226C512.697 355.346 513.005 356.289 513.621 357.054ZM529.504 361.002H525.948V347.478H529.504V349.326C530.008 348.691 530.652 348.169 531.436 347.758C532.22 347.347 533.013 347.142 533.816 347.142V350.614C533.573 350.558 533.246 350.53 532.836 350.53C532.238 350.53 531.604 350.679 530.932 350.978C530.26 351.277 529.784 351.641 529.504 352.07V361.002ZM537.801 346.022C537.223 346.022 536.719 345.817 536.289 345.406C535.879 344.977 535.673 344.473 535.673 343.894C535.673 343.315 535.879 342.821 536.289 342.41C536.719 341.999 537.223 341.794 537.801 341.794C538.399 341.794 538.903 341.999 539.313 342.41C539.724 342.821 539.929 343.315 539.929 343.894C539.929 344.473 539.724 344.977 539.313 345.406C538.903 345.817 538.399 346.022 537.801 346.022ZM539.593 361.002H536.037V347.478H539.593V361.002ZM555.803 361.002H552.247V352.826C552.247 351.146 551.417 350.306 549.755 350.306C548.467 350.306 547.441 350.838 546.675 351.902V361.002H543.119V347.478H546.675V349.242C547.851 347.842 549.429 347.142 551.407 347.142C552.863 347.142 553.955 347.525 554.683 348.29C555.43 349.055 555.803 350.11 555.803 351.454V361.002ZM564.878 366.49C562.545 366.49 560.604 365.818 559.054 364.474L560.65 361.898C561.658 363.018 563.068 363.578 564.878 363.578C565.886 363.578 566.754 363.307 567.482 362.766C568.229 362.243 568.602 361.375 568.602 360.162V358.79C567.482 360.209 566.092 360.918 564.43 360.918C562.676 360.918 561.238 360.321 560.118 359.126C559.017 357.913 558.466 356.214 558.466 354.03C558.466 351.865 559.017 350.175 560.118 348.962C561.238 347.749 562.676 347.142 564.43 347.142C566.11 347.142 567.501 347.833 568.602 349.214V347.478H572.186V360.078C572.186 361.31 571.962 362.365 571.514 363.242C571.085 364.119 570.497 364.782 569.75 365.23C569.004 365.678 568.229 365.995 567.426 366.182C566.642 366.387 565.793 366.49 564.878 366.49ZM565.55 357.754C566.129 357.754 566.708 357.605 567.286 357.306C567.865 357.007 568.304 356.643 568.602 356.214V351.846C568.304 351.398 567.865 351.034 567.286 350.754C566.726 350.455 566.148 350.306 565.55 350.306C564.524 350.306 563.693 350.642 563.058 351.314C562.442 351.986 562.134 352.891 562.134 354.03C562.134 355.169 562.442 356.074 563.058 356.746C563.693 357.418 564.524 357.754 565.55 357.754Z" fill="white"/>
<path d="M525.891 296.064H525.443C526.062 295.383 526.477 294.542 526.64 293.637C526.804 292.732 526.71 291.799 526.369 290.944C526.331 290.841 526.273 290.746 526.198 290.666C526.122 290.585 526.032 290.521 525.932 290.476C525.831 290.43 525.723 290.406 525.613 290.403C525.503 290.4 525.393 290.42 525.291 290.46C525.188 290.5 525.094 290.56 525.015 290.637C524.937 290.714 524.874 290.805 524.83 290.907C524.787 291.008 524.765 291.117 524.764 291.227C524.764 291.337 524.785 291.446 524.827 291.548C525.111 292.262 525.139 293.052 524.908 293.785C524.676 294.518 524.199 295.148 523.557 295.57C522.915 295.992 522.147 296.18 521.383 296.102C520.618 296.023 519.904 295.684 519.361 295.141C518.818 294.598 518.478 293.883 518.4 293.119C518.322 292.355 518.51 291.587 518.932 290.945C519.354 290.303 519.984 289.826 520.717 289.594C521.45 289.363 522.24 289.391 522.954 289.675C523.056 289.717 523.165 289.738 523.275 289.738C523.385 289.737 523.494 289.715 523.595 289.671C523.697 289.628 523.788 289.565 523.865 289.486C523.942 289.407 524.002 289.314 524.042 289.211C524.082 289.109 524.102 288.999 524.099 288.889C524.096 288.779 524.072 288.671 524.026 288.57C523.981 288.47 523.917 288.379 523.836 288.304C523.756 288.229 523.661 288.171 523.558 288.133C522.518 287.723 521.37 287.676 520.301 288.001C519.231 288.325 518.302 289.001 517.666 289.92C517.029 290.838 516.721 291.945 516.792 293.06C516.863 294.176 517.308 295.234 518.057 296.064H517.609C516.964 296.066 516.328 296.219 515.753 296.511C515.178 296.804 514.679 297.227 514.297 297.746C513.915 297.227 513.416 296.804 512.841 296.511C512.265 296.219 511.63 296.066 510.984 296.064H510.537C511.156 295.383 511.57 294.542 511.734 293.637C511.898 292.732 511.804 291.799 511.463 290.944C511.425 290.841 511.367 290.746 511.291 290.666C511.216 290.585 511.126 290.521 511.025 290.476C510.925 290.43 510.816 290.406 510.706 290.403C510.596 290.4 510.487 290.42 510.384 290.46C510.282 290.5 510.188 290.56 510.109 290.637C510.03 290.714 509.967 290.805 509.924 290.907C509.881 291.008 509.859 291.117 509.858 291.227C509.858 291.337 509.879 291.446 509.921 291.548C510.204 292.262 510.233 293.052 510.001 293.785C509.77 294.518 509.293 295.148 508.651 295.57C508.009 295.992 507.241 296.18 506.477 296.102C505.712 296.023 504.998 295.684 504.455 295.141C503.912 294.598 503.572 293.883 503.494 293.119C503.416 292.355 503.604 291.587 504.026 290.945C504.448 290.303 505.078 289.826 505.811 289.594C506.544 289.363 507.334 289.391 508.048 289.675C508.15 289.717 508.259 289.738 508.369 289.738C508.479 289.737 508.588 289.715 508.689 289.671C508.79 289.628 508.882 289.565 508.959 289.486C509.036 289.407 509.096 289.314 509.136 289.211C509.176 289.109 509.195 288.999 509.193 288.889C509.19 288.779 509.165 288.671 509.12 288.57C509.075 288.47 509.01 288.379 508.93 288.304C508.849 288.229 508.755 288.171 508.652 288.133C507.612 287.723 506.464 287.676 505.394 288.001C504.325 288.325 503.396 289.001 502.759 289.92C502.122 290.838 501.814 291.945 501.885 293.06C501.956 294.176 502.402 295.234 503.15 296.064H502.703C502.058 296.066 501.422 296.219 500.847 296.511C500.272 296.804 499.773 297.227 499.391 297.746C499.008 297.227 498.51 296.804 497.934 296.511C497.359 296.219 496.723 296.066 496.078 296.064H495.631C496.249 295.383 496.664 294.542 496.828 293.637C496.992 292.732 496.898 291.799 496.557 290.944C496.519 290.841 496.46 290.746 496.385 290.666C496.31 290.585 496.22 290.521 496.119 290.476C496.019 290.43 495.91 290.406 495.8 290.403C495.69 290.4 495.581 290.42 495.478 290.46C495.375 290.5 495.282 290.56 495.203 290.637C495.124 290.714 495.061 290.805 495.018 290.907C494.975 291.008 494.952 291.117 494.952 291.227C494.951 291.337 494.973 291.446 495.015 291.548C495.298 292.262 495.326 293.052 495.095 293.785C494.864 294.518 494.387 295.148 493.745 295.57C493.103 295.992 492.335 296.18 491.57 296.102C490.806 296.023 490.092 295.684 489.549 295.141C489.005 294.598 488.666 293.883 488.588 293.119C488.51 292.355 488.697 291.587 489.119 290.945C489.541 290.303 490.172 289.826 490.905 289.594C491.637 289.363 492.427 289.391 493.142 289.675C493.243 289.717 493.352 289.738 493.463 289.738C493.573 289.737 493.682 289.715 493.783 289.671C493.884 289.628 493.976 289.565 494.053 289.486C494.129 289.407 494.189 289.314 494.23 289.211C494.27 289.109 494.289 288.999 494.286 288.889C494.284 288.779 494.259 288.671 494.214 288.57C494.169 288.47 494.104 288.379 494.024 288.304C493.943 288.229 493.849 288.171 493.745 288.133C492.706 287.723 491.558 287.676 490.488 288.001C489.419 288.325 488.49 289.001 487.853 289.92C487.216 290.838 486.908 291.945 486.979 293.06C487.05 294.176 487.496 295.234 488.244 296.064H487.797C486.699 296.066 485.647 296.502 484.87 297.279C484.094 298.055 483.658 299.107 483.656 300.205V303.518C483.656 303.737 483.743 303.948 483.899 304.103C484.054 304.258 484.265 304.346 484.484 304.346C484.704 304.346 484.915 304.258 485.07 304.103C485.225 303.948 485.312 303.737 485.312 303.518V300.205C485.312 299.546 485.574 298.914 486.04 298.448C486.506 297.982 487.138 297.721 487.797 297.721H496.078C496.737 297.721 497.369 297.982 497.835 298.448C498.301 298.914 498.562 299.546 498.562 300.205V303.518C498.562 303.737 498.65 303.948 498.805 304.103C498.96 304.258 499.171 304.346 499.391 304.346C499.61 304.346 499.821 304.258 499.976 304.103C500.132 303.948 500.219 303.737 500.219 303.518V300.205C500.219 299.546 500.48 298.914 500.946 298.448C501.412 297.982 502.044 297.721 502.703 297.721H510.984C511.643 297.721 512.275 297.982 512.741 298.448C513.207 298.914 513.469 299.546 513.469 300.205V303.518C513.469 303.737 513.556 303.948 513.711 304.103C513.867 304.258 514.077 304.346 514.297 304.346C514.517 304.346 514.727 304.258 514.882 304.103C515.038 303.948 515.125 303.737 515.125 303.518V300.205C515.125 299.546 515.387 298.914 515.853 298.448C516.319 297.982 516.95 297.721 517.609 297.721H525.891C526.55 297.721 527.181 297.982 527.647 298.448C528.113 298.914 528.375 299.546 528.375 300.205V303.518C528.375 303.737 528.462 303.948 528.618 304.103C528.773 304.258 528.983 304.346 529.203 304.346C529.423 304.346 529.633 304.258 529.789 304.103C529.944 303.948 530.031 303.737 530.031 303.518V300.205C530.03 299.107 529.593 298.055 528.817 297.279C528.041 296.502 526.988 296.066 525.891 296.064V296.064Z" fill="white"/>
<path d="M526.719 260.455C526.719 259.964 526.573 259.483 526.3 259.075C526.027 258.666 525.639 258.348 525.185 258.16C524.731 257.972 524.232 257.923 523.75 258.018C523.268 258.114 522.825 258.351 522.478 258.698C522.13 259.046 521.894 259.488 521.798 259.97C521.702 260.452 521.751 260.952 521.939 261.406C522.127 261.86 522.446 262.248 522.854 262.521C523.263 262.794 523.743 262.939 524.234 262.939C524.893 262.939 525.525 262.678 525.991 262.212C526.457 261.746 526.719 261.114 526.719 260.455ZM523.406 260.455C523.406 260.291 523.455 260.131 523.546 259.995C523.637 259.859 523.766 259.753 523.917 259.69C524.069 259.627 524.235 259.611 524.396 259.643C524.557 259.675 524.704 259.754 524.82 259.87C524.936 259.985 525.015 260.133 525.047 260.294C525.079 260.454 525.062 260.621 524.999 260.772C524.937 260.923 524.831 261.053 524.694 261.144C524.558 261.235 524.398 261.283 524.234 261.283C524.015 261.283 523.804 261.196 523.649 261.041C523.493 260.885 523.406 260.675 523.406 260.455Z" fill="white"/>
<path d="M513.469 272.877C513.96 272.877 514.44 272.731 514.849 272.458C515.258 272.185 515.576 271.797 515.764 271.343C515.952 270.889 516.001 270.39 515.905 269.908C515.81 269.426 515.573 268.983 515.225 268.636C514.878 268.288 514.435 268.052 513.953 267.956C513.472 267.86 512.972 267.909 512.518 268.097C512.064 268.285 511.676 268.604 511.403 269.012C511.13 269.421 510.984 269.901 510.984 270.393C510.984 271.051 511.246 271.683 511.712 272.149C512.178 272.615 512.81 272.877 513.469 272.877ZM513.469 269.564C513.633 269.564 513.793 269.613 513.929 269.704C514.065 269.795 514.171 269.924 514.234 270.076C514.297 270.227 514.313 270.393 514.281 270.554C514.249 270.715 514.17 270.862 514.054 270.978C513.939 271.094 513.791 271.173 513.63 271.205C513.47 271.237 513.303 271.22 513.152 271.158C513.001 271.095 512.871 270.989 512.78 270.853C512.689 270.716 512.641 270.556 512.641 270.393C512.641 270.173 512.728 269.962 512.883 269.807C513.038 269.652 513.249 269.564 513.469 269.564Z" fill="white"/>
<path d="M509.228 263.868C509.383 264.023 509.594 264.11 509.813 264.11C510.033 264.11 510.244 264.023 510.399 263.868L510.984 263.282L511.57 263.868C511.646 263.947 511.738 264.01 511.839 264.053C511.94 264.097 512.048 264.119 512.158 264.12C512.268 264.121 512.377 264.1 512.479 264.059C512.581 264.017 512.673 263.956 512.751 263.878C512.829 263.8 512.89 263.708 512.932 263.606C512.974 263.504 512.995 263.395 512.994 263.285C512.993 263.175 512.97 263.067 512.926 262.965C512.883 262.864 512.82 262.773 512.741 262.697L512.155 262.111L512.741 261.526C512.82 261.449 512.883 261.358 512.926 261.257C512.97 261.156 512.993 261.047 512.994 260.937C512.995 260.827 512.974 260.718 512.932 260.616C512.89 260.515 512.829 260.422 512.751 260.344C512.673 260.267 512.581 260.205 512.479 260.164C512.377 260.122 512.268 260.101 512.158 260.102C512.048 260.103 511.94 260.126 511.839 260.169C511.738 260.213 511.646 260.276 511.57 260.355L510.984 260.94L510.399 260.355C510.323 260.276 510.231 260.213 510.13 260.169C510.029 260.126 509.92 260.103 509.81 260.102C509.701 260.101 509.591 260.122 509.49 260.164C509.388 260.205 509.295 260.267 509.218 260.344C509.14 260.422 509.078 260.515 509.037 260.616C508.995 260.718 508.974 260.827 508.975 260.937C508.976 261.047 508.999 261.156 509.042 261.257C509.086 261.358 509.149 261.449 509.228 261.526L509.813 262.111L509.228 262.697C509.073 262.852 508.986 263.063 508.986 263.282C508.986 263.502 509.073 263.712 509.228 263.868V263.868Z" fill="white"/>
<path d="M526.819 266.152C526.664 265.996 526.453 265.909 526.234 265.909C526.014 265.909 525.803 265.996 525.648 266.152L525.063 266.737L524.477 266.152C524.401 266.073 524.309 266.009 524.208 265.966C524.107 265.923 523.999 265.9 523.889 265.899C523.779 265.898 523.67 265.919 523.568 265.96C523.466 266.002 523.374 266.064 523.296 266.141C523.218 266.219 523.157 266.312 523.115 266.413C523.073 266.515 523.052 266.624 523.053 266.734C523.054 266.844 523.077 266.953 523.121 267.054C523.164 267.155 523.227 267.246 523.306 267.323L523.892 267.908L523.306 268.494C523.227 268.57 523.164 268.661 523.121 268.762C523.077 268.863 523.054 268.972 523.053 269.082C523.052 269.192 523.073 269.301 523.115 269.403C523.157 269.505 523.218 269.597 523.296 269.675C523.374 269.753 523.466 269.814 523.568 269.856C523.67 269.897 523.779 269.918 523.889 269.917C523.999 269.916 524.107 269.894 524.208 269.85C524.309 269.807 524.401 269.744 524.477 269.665L525.063 269.079L525.648 269.665C525.724 269.744 525.816 269.807 525.917 269.85C526.018 269.894 526.127 269.916 526.236 269.917C526.346 269.918 526.456 269.897 526.557 269.856C526.659 269.814 526.752 269.753 526.829 269.675C526.907 269.597 526.969 269.505 527.01 269.403C527.052 269.301 527.073 269.192 527.072 269.082C527.071 268.972 527.048 268.863 527.005 268.762C526.961 268.661 526.898 268.57 526.819 268.494L526.234 267.908L526.819 267.323C526.974 267.167 527.061 266.957 527.061 266.737C527.061 266.518 526.974 266.307 526.819 266.152V266.152Z" fill="white"/>
<path d="M518.619 271.531C518.551 271.616 518.5 271.714 518.47 271.818C518.44 271.923 518.43 272.032 518.442 272.14C518.454 272.248 518.487 272.353 518.54 272.448C518.592 272.544 518.663 272.628 518.748 272.696C518.833 272.764 518.93 272.814 519.035 272.844C519.139 272.875 519.249 272.884 519.357 272.872C519.465 272.86 519.57 272.827 519.665 272.775C519.76 272.722 519.844 272.651 519.912 272.566L520.457 271.884C520.845 271.4 521.105 270.828 521.216 270.218C521.327 269.608 521.284 268.98 521.092 268.391C520.9 267.802 520.564 267.27 520.116 266.843C519.667 266.415 519.118 266.107 518.52 265.944C518.169 265.848 517.848 265.662 517.592 265.403C517.335 265.145 517.15 264.823 517.057 264.471C516.963 264.119 516.964 263.748 517.058 263.396C517.153 263.044 517.338 262.723 517.596 262.466L518.438 261.626V262.111C518.438 262.331 518.525 262.542 518.68 262.697C518.835 262.852 519.046 262.939 519.266 262.939C519.485 262.939 519.696 262.852 519.851 262.697C520.007 262.542 520.094 262.331 520.094 262.111V259.627C520.094 259.407 520.007 259.197 519.851 259.041C519.696 258.886 519.485 258.799 519.266 258.799H516.781C516.562 258.799 516.351 258.886 516.196 259.041C516.04 259.197 515.953 259.407 515.953 259.627C515.953 259.847 516.04 260.057 516.196 260.213C516.351 260.368 516.562 260.455 516.781 260.455H517.267L516.428 261.294C515.965 261.757 515.631 262.333 515.461 262.965C515.291 263.597 515.29 264.262 515.457 264.895C515.625 265.527 515.956 266.105 516.417 266.57C516.878 267.034 517.453 267.37 518.084 267.542C518.417 267.633 518.722 267.805 518.972 268.043C519.221 268.281 519.408 268.577 519.515 268.905C519.622 269.233 519.645 269.583 519.583 269.922C519.521 270.262 519.376 270.58 519.16 270.85L518.619 271.531Z" fill="white"/>
<path d="M502.703 256.314H504.359V268.263C504.359 268.483 504.447 268.694 504.602 268.849C504.757 269.004 504.968 269.092 505.188 269.092C505.407 269.092 505.618 269.004 505.773 268.849C505.928 268.694 506.016 268.483 506.016 268.263V256.314H529.203V263.768C529.203 263.987 529.29 264.198 529.446 264.353C529.601 264.508 529.812 264.596 530.031 264.596C530.251 264.596 530.462 264.508 530.617 264.353C530.772 264.198 530.859 263.987 530.859 263.768V256.314H532.516C532.735 256.314 532.946 256.227 533.101 256.072C533.257 255.917 533.344 255.706 533.344 255.486C533.344 255.267 533.257 255.056 533.101 254.901C532.946 254.745 532.735 254.658 532.516 254.658H502.703C502.483 254.658 502.273 254.745 502.118 254.901C501.962 255.056 501.875 255.267 501.875 255.486C501.875 255.706 501.962 255.917 502.118 256.072C502.273 256.227 502.483 256.314 502.703 256.314Z" fill="white"/>
<path d="M532.516 274.533H530.859V267.08C530.859 266.86 530.772 266.65 530.617 266.495C530.462 266.339 530.251 266.252 530.031 266.252C529.812 266.252 529.601 266.339 529.446 266.495C529.29 266.65 529.203 266.86 529.203 267.08V274.533H508.696L509.413 274.175C509.912 273.919 510.298 273.488 510.497 272.964C510.696 272.44 510.694 271.861 510.491 271.339C510.287 270.817 509.898 270.389 509.397 270.137C508.896 269.886 508.32 269.829 507.78 269.979L503.576 271.178L501.475 270.335C500.305 269.869 499.063 269.614 497.805 269.58C497.782 269.574 497.758 269.568 497.734 269.564H497.287C498.108 268.656 498.562 267.476 498.562 266.252V262.111C498.561 261.014 498.125 259.961 497.348 259.185C496.572 258.409 495.52 257.972 494.422 257.971H489.453C489.233 257.971 489.023 258.058 488.868 258.213C488.712 258.369 488.625 258.579 488.625 258.799V262.111C488.625 262.331 488.712 262.542 488.868 262.697C489.023 262.852 489.233 262.939 489.453 262.939H496.906V266.252C496.906 267.13 496.557 267.973 495.936 268.594C495.315 269.215 494.472 269.564 493.594 269.564C492.715 269.564 491.873 269.215 491.251 268.594C490.63 267.973 490.281 267.13 490.281 266.252V265.424C490.281 265.204 490.194 264.994 490.039 264.838C489.883 264.683 489.673 264.596 489.453 264.596C489.233 264.596 489.023 264.683 488.868 264.838C488.712 264.994 488.625 265.204 488.625 265.424V266.252C488.625 267.476 489.08 268.656 489.9 269.564H489.453C487.916 269.566 486.443 270.178 485.356 271.264C484.269 272.351 483.658 273.824 483.656 275.361V283.643C483.656 283.862 483.743 284.073 483.899 284.228C484.054 284.383 484.265 284.471 484.484 284.471C484.704 284.471 484.915 284.383 485.07 284.228C485.225 284.073 485.312 283.862 485.312 283.643V275.361C485.315 274.385 485.663 273.441 486.295 272.696C486.926 271.951 487.8 271.453 488.763 271.29L489.465 275.498C489.486 275.626 489.537 275.747 489.614 275.851C489.69 275.956 489.79 276.041 489.906 276.099C490.021 276.158 490.149 276.189 490.278 276.19C490.408 276.19 490.536 276.16 490.651 276.103L492.766 275.045V283.643C492.766 283.862 492.853 284.073 493.008 284.228C493.163 284.383 493.374 284.471 493.594 284.471C493.813 284.471 494.024 284.383 494.179 284.228C494.335 284.073 494.422 283.862 494.422 283.643V275.045L496.536 276.107C496.652 276.164 496.78 276.194 496.909 276.194C497.039 276.193 497.166 276.162 497.282 276.104C497.397 276.045 497.497 275.96 497.574 275.855C497.65 275.751 497.701 275.63 497.723 275.502L498.427 271.279C499.262 271.365 500.08 271.566 500.86 271.877L503.224 272.823C503.394 272.891 503.583 272.9 503.759 272.85L505.769 272.276L506.304 273.882L504.431 274.818C503.772 275.146 503.023 275.247 502.301 275.104L499.556 274.55C499.436 274.525 499.312 274.528 499.192 274.557C499.073 274.587 498.962 274.642 498.867 274.72C498.772 274.797 498.695 274.895 498.642 275.006C498.59 275.117 498.562 275.239 498.562 275.361V283.643C498.562 283.862 498.65 284.073 498.805 284.228C498.96 284.383 499.171 284.471 499.391 284.471C499.61 284.471 499.821 284.383 499.976 284.228C500.132 284.073 500.219 283.862 500.219 283.643V276.372L501.976 276.723C503.06 276.938 504.184 276.787 505.173 276.295L505.384 276.189H517.609V278.826C517.057 279.022 516.591 279.406 516.295 279.911C515.998 280.417 515.89 281.011 515.989 281.589C516.088 282.166 516.388 282.69 516.836 283.068C517.284 283.446 517.851 283.653 518.438 283.653C519.024 283.653 519.591 283.446 520.039 283.068C520.487 282.69 520.787 282.166 520.886 281.589C520.985 281.011 520.877 280.417 520.58 279.911C520.284 279.406 519.818 279.022 519.266 278.826V276.189H532.516C532.735 276.189 532.946 276.102 533.101 275.947C533.257 275.792 533.344 275.581 533.344 275.361C533.344 275.142 533.257 274.931 533.101 274.776C532.946 274.62 532.735 274.533 532.516 274.533ZM490.281 261.283V259.627H494.422C494.936 259.628 495.436 259.787 495.856 260.084C496.275 260.38 496.593 260.799 496.765 261.283H490.281ZM494.486 271.138L493.594 272.325L492.702 271.138C493.291 271.251 493.896 271.251 494.486 271.138V271.138ZM490.914 274.119L490.431 271.221H490.695L492.336 273.409L490.914 274.119ZM496.274 274.119L494.852 273.409L496.492 271.221H496.756L496.274 274.119ZM507.363 271.815L508.235 271.567C508.381 271.525 508.536 271.54 508.672 271.607C508.807 271.674 508.913 271.79 508.968 271.931C509.022 272.072 509.022 272.229 508.968 272.37C508.913 272.511 508.808 272.626 508.672 272.694L507.8 273.13L507.363 271.815ZM518.438 281.986C518.274 281.986 518.114 281.938 517.977 281.847C517.841 281.756 517.735 281.626 517.672 281.475C517.61 281.324 517.593 281.157 517.625 280.997C517.657 280.836 517.736 280.688 517.852 280.573C517.968 280.457 518.115 280.378 518.276 280.346C518.437 280.314 518.603 280.33 518.754 280.393C518.906 280.456 519.035 280.562 519.126 280.698C519.217 280.834 519.266 280.994 519.266 281.158C519.266 281.378 519.178 281.588 519.023 281.744C518.868 281.899 518.657 281.986 518.438 281.986Z" fill="white"/>
<path d="M488.625 283.643V277.018C488.625 276.798 488.538 276.587 488.382 276.432C488.227 276.277 488.017 276.189 487.797 276.189C487.577 276.189 487.367 276.277 487.211 276.432C487.056 276.587 486.969 276.798 486.969 277.018V283.643C486.969 283.862 487.056 284.073 487.211 284.228C487.367 284.383 487.577 284.471 487.797 284.471C488.017 284.471 488.227 284.383 488.382 284.228C488.538 284.073 488.625 283.862 488.625 283.643Z" fill="white"/>
<g filter="url(#filter13_d)">
<circle cx="1139" cy="120.002" r="40" fill="#A8E10C"/>
</g>
<path d="M1043.16 201.002H1039.16V185.826H1033.7V182.326H1048.6V185.826H1043.16V201.002ZM1054.68 201.338C1052.59 201.338 1050.87 200.685 1049.5 199.378C1048.14 198.071 1047.46 196.354 1047.46 194.226C1047.46 192.229 1048.11 190.549 1049.42 189.186C1050.74 187.823 1052.42 187.142 1054.46 187.142C1056.47 187.142 1058.11 187.833 1059.36 189.214C1060.61 190.577 1061.23 192.369 1061.23 194.59V195.374H1051.18C1051.29 196.27 1051.7 197.017 1052.39 197.614C1053.08 198.211 1053.97 198.51 1055.07 198.51C1055.67 198.51 1056.32 198.389 1057.01 198.146C1057.72 197.903 1058.28 197.577 1058.69 197.166L1060.25 199.462C1058.89 200.713 1057.03 201.338 1054.68 201.338ZM1057.79 192.966C1057.73 192.201 1057.43 191.51 1056.87 190.894C1056.33 190.278 1055.52 189.97 1054.46 189.97C1053.45 189.97 1052.67 190.278 1052.11 190.894C1051.55 191.491 1051.22 192.182 1051.13 192.966H1057.79ZM1075.48 201.002H1071.92V199.602C1070.95 200.759 1069.52 201.338 1067.64 201.338C1066.43 201.338 1065.33 200.946 1064.36 200.162C1063.41 199.359 1062.94 198.258 1062.94 196.858C1062.94 195.402 1063.4 194.31 1064.34 193.582C1065.29 192.854 1066.39 192.49 1067.64 192.49C1069.56 192.49 1070.99 193.041 1071.92 194.142V192.322C1071.92 191.631 1071.65 191.081 1071.11 190.67C1070.57 190.259 1069.85 190.054 1068.96 190.054C1067.48 190.054 1066.16 190.586 1065.01 191.65L1063.66 189.27C1065.27 187.851 1067.24 187.142 1069.57 187.142C1071.31 187.142 1072.73 187.543 1073.83 188.346C1074.93 189.149 1075.48 190.455 1075.48 192.266V201.002ZM1069.07 198.93C1070.39 198.93 1071.34 198.538 1071.92 197.754V196.074C1071.34 195.29 1070.39 194.898 1069.07 194.898C1068.34 194.898 1067.73 195.085 1067.25 195.458C1066.76 195.813 1066.52 196.307 1066.52 196.942C1066.52 197.558 1066.76 198.043 1067.25 198.398C1067.73 198.753 1068.34 198.93 1069.07 198.93ZM1099.36 201.002H1095.78V192.462C1095.78 191.025 1095.11 190.306 1093.76 190.306C1093.18 190.306 1092.64 190.465 1092.14 190.782C1091.65 191.099 1091.26 191.463 1090.96 191.874V201.002H1087.38V192.462C1087.38 191.025 1086.71 190.306 1085.36 190.306C1084.8 190.306 1084.27 190.465 1083.77 190.782C1083.26 191.099 1082.86 191.473 1082.56 191.902V201.002H1079.01V187.478H1082.56V189.242C1082.9 188.757 1083.49 188.29 1084.33 187.842C1085.17 187.375 1086.05 187.142 1086.99 187.142C1088.95 187.142 1090.2 187.963 1090.74 189.606C1091.17 188.934 1091.8 188.355 1092.64 187.87C1093.5 187.385 1094.42 187.142 1095.39 187.142C1096.66 187.142 1097.64 187.487 1098.33 188.178C1099.02 188.85 1099.36 189.867 1099.36 191.23V201.002ZM1130.34 201.002H1126.34V187.926L1121.07 201.002H1119.34L1114.07 187.926V201.002H1110.1V182.326H1115.67L1120.21 193.61L1124.74 182.326H1130.34V201.002ZM1145.45 199.294C1144.14 200.657 1142.4 201.338 1140.24 201.338C1138.07 201.338 1136.34 200.657 1135.03 199.294C1133.74 197.913 1133.1 196.223 1133.1 194.226C1133.1 192.229 1133.74 190.549 1135.03 189.186C1136.34 187.823 1138.07 187.142 1140.24 187.142C1142.4 187.142 1144.14 187.823 1145.45 189.186C1146.75 190.549 1147.41 192.229 1147.41 194.226C1147.41 196.223 1146.75 197.913 1145.45 199.294ZM1137.72 197.054C1138.34 197.801 1139.18 198.174 1140.24 198.174C1141.3 198.174 1142.14 197.801 1142.76 197.054C1143.39 196.289 1143.71 195.346 1143.71 194.226C1143.71 193.125 1143.39 192.201 1142.76 191.454C1142.14 190.689 1141.3 190.306 1140.24 190.306C1139.18 190.306 1138.34 190.689 1137.72 191.454C1137.1 192.201 1136.8 193.125 1136.8 194.226C1136.8 195.346 1137.1 196.289 1137.72 197.054ZM1154.58 201.338C1153.33 201.338 1152.38 201.021 1151.73 200.386C1151.07 199.751 1150.75 198.837 1150.75 197.642V190.586H1148.51V187.478H1150.75V183.782H1154.33V187.478H1157.07V190.586H1154.33V196.69C1154.33 197.119 1154.44 197.474 1154.67 197.754C1154.89 198.034 1155.19 198.174 1155.56 198.174C1156.12 198.174 1156.53 198.043 1156.79 197.782L1157.55 200.47C1156.9 201.049 1155.91 201.338 1154.58 201.338ZM1161.27 186.022C1160.69 186.022 1160.19 185.817 1159.76 185.406C1159.35 184.977 1159.14 184.473 1159.14 183.894C1159.14 183.315 1159.35 182.821 1159.76 182.41C1160.19 181.999 1160.69 181.794 1161.27 181.794C1161.87 181.794 1162.37 181.999 1162.78 182.41C1163.19 182.821 1163.4 183.315 1163.4 183.894C1163.4 184.473 1163.19 184.977 1162.78 185.406C1162.37 185.817 1161.87 186.022 1161.27 186.022ZM1163.06 201.002H1159.51V187.478H1163.06V201.002ZM1173.92 201.002H1170.09L1164.66 187.478H1168.46L1171.99 196.886L1175.52 187.478H1179.36L1173.92 201.002ZM1192.62 201.002H1189.06V199.602C1188.09 200.759 1186.67 201.338 1184.78 201.338C1183.57 201.338 1182.47 200.946 1181.5 200.162C1180.55 199.359 1180.08 198.258 1180.08 196.858C1180.08 195.402 1180.54 194.31 1181.48 193.582C1182.43 192.854 1183.53 192.49 1184.78 192.49C1186.7 192.49 1188.13 193.041 1189.06 194.142V192.322C1189.06 191.631 1188.79 191.081 1188.25 190.67C1187.71 190.259 1186.99 190.054 1186.1 190.054C1184.62 190.054 1183.31 190.586 1182.15 191.65L1180.8 189.27C1182.41 187.851 1184.38 187.142 1186.71 187.142C1188.45 187.142 1189.87 187.543 1190.97 188.346C1192.07 189.149 1192.62 190.455 1192.62 192.266V201.002ZM1186.21 198.93C1187.53 198.93 1188.49 198.538 1189.06 197.754V196.074C1188.49 195.29 1187.53 194.898 1186.21 194.898C1185.48 194.898 1184.87 195.085 1184.39 195.458C1183.9 195.813 1183.66 196.307 1183.66 196.942C1183.66 197.558 1183.9 198.043 1184.39 198.398C1184.87 198.753 1185.48 198.93 1186.21 198.93ZM1200.68 201.338C1199.43 201.338 1198.48 201.021 1197.83 200.386C1197.17 199.751 1196.85 198.837 1196.85 197.642V190.586H1194.61V187.478H1196.85V183.782H1200.43V187.478H1203.17V190.586H1200.43V196.69C1200.43 197.119 1200.54 197.474 1200.77 197.754C1200.99 198.034 1201.29 198.174 1201.66 198.174C1202.22 198.174 1202.63 198.043 1202.89 197.782L1203.65 200.47C1203 201.049 1202.01 201.338 1200.68 201.338ZM1207.37 186.022C1206.79 186.022 1206.29 185.817 1205.86 185.406C1205.45 184.977 1205.24 184.473 1205.24 183.894C1205.24 183.315 1205.45 182.821 1205.86 182.41C1206.29 181.999 1206.79 181.794 1207.37 181.794C1207.97 181.794 1208.47 181.999 1208.88 182.41C1209.29 182.821 1209.5 183.315 1209.5 183.894C1209.5 184.473 1209.29 184.977 1208.88 185.406C1208.47 185.817 1207.97 186.022 1207.37 186.022ZM1209.16 201.002H1205.61V187.478H1209.16V201.002ZM1224.17 199.294C1222.86 200.657 1221.13 201.338 1218.96 201.338C1216.8 201.338 1215.06 200.657 1213.75 199.294C1212.47 197.913 1211.82 196.223 1211.82 194.226C1211.82 192.229 1212.47 190.549 1213.75 189.186C1215.06 187.823 1216.8 187.142 1218.96 187.142C1221.13 187.142 1222.86 187.823 1224.17 189.186C1225.48 190.549 1226.13 192.229 1226.13 194.226C1226.13 196.223 1225.48 197.913 1224.17 199.294ZM1216.44 197.054C1217.06 197.801 1217.9 198.174 1218.96 198.174C1220.03 198.174 1220.87 197.801 1221.48 197.054C1222.12 196.289 1222.43 195.346 1222.43 194.226C1222.43 193.125 1222.12 192.201 1221.48 191.454C1220.87 190.689 1220.03 190.306 1218.96 190.306C1217.9 190.306 1217.06 190.689 1216.44 191.454C1215.83 192.201 1215.52 193.125 1215.52 194.226C1215.52 195.346 1215.83 196.289 1216.44 197.054ZM1241.45 201.002H1237.9V192.826C1237.9 191.146 1237.07 190.306 1235.4 190.306C1234.12 190.306 1233.09 190.838 1232.32 191.902V201.002H1228.77V187.478H1232.32V189.242C1233.5 187.842 1235.08 187.142 1237.06 187.142C1238.51 187.142 1239.6 187.525 1240.33 188.29C1241.08 189.055 1241.45 190.11 1241.45 191.454V201.002Z" fill="white"/>
<g clip-path="url(#clip1)">
<path d="M1138.5 129.854C1138.5 130.425 1138.04 130.889 1137.46 130.889C1136.89 130.889 1136.43 130.425 1136.43 129.854C1136.43 129.282 1136.89 128.818 1137.46 128.818C1138.04 128.818 1138.5 129.282 1138.5 129.854Z" fill="white"/>
<path d="M1148.85 107.494C1148 107.494 1147.21 107.753 1146.55 108.195C1145.99 106.596 1144.46 105.424 1142.64 105.424C1141.41 105.424 1140.3 105.968 1139.54 106.829C1138.74 105.922 1137.62 105.424 1136.43 105.424C1135.19 105.424 1134.08 105.969 1133.32 106.83C1132.56 105.969 1131.45 105.424 1130.22 105.424C1127.94 105.424 1126.08 107.281 1126.08 109.564V115.363C1124.79 116.334 1124.01 117.868 1124.01 119.502C1124.01 125.018 1126.61 130.248 1131.05 133.58C1131.82 134.157 1132.29 135.07 1132.29 136.064V144.967C1132.29 145.539 1132.75 146.002 1133.32 146.002H1149.89C1150.46 146.002 1150.92 145.539 1150.92 144.967V136.231C1151.6 134.182 1152.11 132.064 1152.46 129.934C1152.81 127.748 1152.99 125.518 1152.99 123.306C1152.99 121.967 1152.99 112.981 1152.99 111.635C1152.99 109.347 1151.14 107.494 1148.85 107.494V107.494ZM1148.85 109.564C1150 109.564 1150.92 110.491 1150.92 111.635V118.467C1150.92 119.608 1149.99 120.537 1148.85 120.537C1147.71 120.537 1146.78 119.608 1146.78 118.467C1146.78 116.707 1146.78 113.247 1146.78 111.635C1146.78 110.493 1147.71 109.564 1148.85 109.564ZM1142.64 107.494C1143.78 107.494 1144.71 108.421 1144.71 109.564V116.396C1144.71 117.538 1143.78 118.467 1142.64 118.467C1141.5 118.467 1140.57 117.538 1140.57 116.396V109.564C1140.57 108.423 1141.5 107.494 1142.64 107.494ZM1136.43 107.494C1137.57 107.494 1138.5 108.421 1138.5 109.564V114.326H1134.36V109.564C1134.36 108.423 1135.29 107.494 1136.43 107.494ZM1130.22 107.494C1131.36 107.494 1132.29 108.423 1132.29 109.564V114.326H1129.18C1128.83 114.326 1128.49 114.362 1128.15 114.431V109.564C1128.15 108.423 1129.08 107.494 1130.22 107.494ZM1134.36 143.932V139.17H1148.85V143.932H1134.36ZM1150.41 129.602C1149.75 133.706 1148.85 135.568 1148.85 136.064V137.1H1134.36V136.064C1134.36 134.461 1133.61 132.916 1132.29 131.924C1128.36 128.979 1126.08 124.362 1126.08 119.502C1126.08 117.819 1127.44 116.395 1129.18 116.395H1138.4C1137.92 118.755 1135.82 120.537 1133.32 120.537H1131.25C1130.68 120.537 1130.22 121.001 1130.22 121.572C1130.22 122.144 1130.68 122.607 1131.25 122.607H1132.29C1134.26 122.607 1135.97 124.007 1136.35 125.934C1136.46 126.491 1137 126.86 1137.57 126.748C1138.13 126.636 1138.49 126.091 1138.38 125.531C1138.1 124.101 1137.33 122.866 1136.26 121.981C1137.62 121.377 1138.76 120.372 1139.52 119.114C1140.28 119.985 1141.4 120.537 1142.64 120.537C1143.49 120.537 1144.29 120.278 1144.94 119.835C1145.51 121.448 1147.05 122.607 1148.85 122.607C1149.61 122.607 1150.31 122.404 1150.92 122.05V123.306C1150.92 125.407 1150.75 127.526 1150.41 129.602Z" fill="white"/>
<path d="M1140.57 100.248V94.0371C1140.57 93.4653 1140.11 93.002 1139.54 93.002C1138.96 93.002 1138.5 93.4653 1138.5 94.0371V100.248C1138.5 100.82 1138.96 101.283 1139.54 101.283C1140.11 101.283 1140.57 100.82 1140.57 100.248Z" fill="white"/>
<path d="M1147.53 101.565L1151.93 97.1725C1152.33 96.7681 1152.33 96.1131 1151.93 95.7087C1151.52 95.3043 1150.87 95.3043 1150.46 95.7087L1146.07 100.101C1145.67 100.505 1145.67 101.161 1146.07 101.565C1146.48 101.969 1147.13 101.969 1147.53 101.565V101.565Z" fill="white"/>
<path d="M1133.61 100.958C1134.01 100.554 1134.01 99.8983 1133.61 99.4943L1129.21 95.103C1128.81 94.699 1128.15 94.699 1127.75 95.1034C1127.35 95.5074 1127.35 96.1628 1127.75 96.5672L1132.14 100.959C1132.55 101.362 1133.2 101.362 1133.61 100.958Z" fill="white"/>
</g>
<g filter="url(#filter14_d)">
<circle cx="764" cy="120.002" r="40" fill="#A8E10C"/>
</g>
<path d="M665.824 201.002H661.848V182.326H670.584C672.544 182.326 674.075 182.905 675.176 184.062C676.296 185.201 676.856 186.629 676.856 188.346C676.856 190.045 676.296 191.473 675.176 192.63C674.056 193.787 672.525 194.366 670.584 194.366H665.824V201.002ZM670.052 190.866C670.855 190.866 671.508 190.642 672.012 190.194C672.535 189.727 672.796 189.111 672.796 188.346C672.796 187.581 672.535 186.974 672.012 186.526C671.508 186.059 670.855 185.826 670.052 185.826H665.824V190.866H670.052ZM682.793 201.002H679.237V187.478H682.793V189.326C683.297 188.691 683.941 188.169 684.725 187.758C685.509 187.347 686.302 187.142 687.105 187.142V190.614C686.862 190.558 686.535 190.53 686.125 190.53C685.527 190.53 684.893 190.679 684.221 190.978C683.549 191.277 683.073 191.641 682.793 192.07V201.002ZM700.807 199.294C699.5 200.657 697.764 201.338 695.599 201.338C693.433 201.338 691.697 200.657 690.391 199.294C689.103 197.913 688.459 196.223 688.459 194.226C688.459 192.229 689.103 190.549 690.391 189.186C691.697 187.823 693.433 187.142 695.599 187.142C697.764 187.142 699.5 187.823 700.807 189.186C702.113 190.549 702.767 192.229 702.767 194.226C702.767 196.223 702.113 197.913 700.807 199.294ZM693.079 197.054C693.695 197.801 694.535 198.174 695.599 198.174C696.663 198.174 697.503 197.801 698.119 197.054C698.753 196.289 699.071 195.346 699.071 194.226C699.071 193.125 698.753 192.201 698.119 191.454C697.503 190.689 696.663 190.306 695.599 190.306C694.535 190.306 693.695 190.689 693.079 191.454C692.463 192.201 692.155 193.125 692.155 194.226C692.155 195.346 692.463 196.289 693.079 197.054ZM707.169 186.022C706.59 186.022 706.086 185.817 705.657 185.406C705.246 184.977 705.041 184.473 705.041 183.894C705.041 183.315 705.246 182.821 705.657 182.41C706.086 181.999 706.59 181.794 707.169 181.794C707.766 181.794 708.27 181.999 708.681 182.41C709.091 182.821 709.297 183.315 709.297 183.894C709.297 184.473 709.091 184.977 708.681 185.406C708.27 185.817 707.766 186.022 707.169 186.022ZM704.145 206.49C703.323 206.49 702.689 206.415 702.241 206.266C701.774 206.135 701.279 205.893 700.757 205.538L701.737 202.878C702.297 203.345 702.903 203.578 703.557 203.578C704.117 203.578 704.565 203.391 704.901 203.018C705.237 202.645 705.405 202.094 705.405 201.366V187.478H708.961V201.366C708.961 202.953 708.55 204.203 707.729 205.118C706.926 206.033 705.731 206.49 704.145 206.49ZM718.843 201.338C716.752 201.338 715.025 200.685 713.663 199.378C712.3 198.071 711.619 196.354 711.619 194.226C711.619 192.229 712.272 190.549 713.579 189.186C714.904 187.823 716.584 187.142 718.619 187.142C720.635 187.142 722.268 187.833 723.519 189.214C724.769 190.577 725.395 192.369 725.395 194.59V195.374H715.343C715.455 196.27 715.856 197.017 716.547 197.614C717.237 198.211 718.133 198.51 719.235 198.51C719.832 198.51 720.476 198.389 721.167 198.146C721.876 197.903 722.436 197.577 722.847 197.166L724.415 199.462C723.052 200.713 721.195 201.338 718.843 201.338ZM721.951 192.966C721.895 192.201 721.587 191.51 721.027 190.894C720.485 190.278 719.683 189.97 718.619 189.97C717.611 189.97 716.827 190.278 716.267 190.894C715.707 191.491 715.38 192.182 715.287 192.966H721.951ZM734.263 201.338C732.173 201.338 730.455 200.675 729.111 199.35C727.767 198.025 727.095 196.317 727.095 194.226C727.095 192.154 727.767 190.455 729.111 189.13C730.455 187.805 732.173 187.142 734.263 187.142C736.653 187.142 738.435 187.954 739.611 189.578L737.287 191.762C736.634 190.791 735.682 190.306 734.431 190.306C733.349 190.306 732.462 190.67 731.771 191.398C731.099 192.107 730.763 193.05 730.763 194.226C730.763 195.402 731.099 196.354 731.771 197.082C732.462 197.81 733.349 198.174 734.431 198.174C735.645 198.174 736.597 197.689 737.287 196.718L739.611 198.874C738.435 200.517 736.653 201.338 734.263 201.338ZM746.472 201.338C745.221 201.338 744.269 201.021 743.616 200.386C742.963 199.751 742.636 198.837 742.636 197.642V190.586H740.396V187.478H742.636V183.782H746.22V187.478H748.964V190.586H746.22V196.69C746.22 197.119 746.332 197.474 746.556 197.754C746.78 198.034 747.079 198.174 747.452 198.174C748.012 198.174 748.423 198.043 748.684 197.782L749.44 200.47C748.787 201.049 747.797 201.338 746.472 201.338ZM766.289 201.338C764.59 201.338 763.2 200.647 762.117 199.266V206.154H758.561V187.478H762.117V189.186C763.181 187.823 764.572 187.142 766.289 187.142C768.062 187.142 769.5 187.777 770.601 189.046C771.721 190.297 772.281 192.023 772.281 194.226C772.281 196.429 771.721 198.165 770.601 199.434C769.5 200.703 768.062 201.338 766.289 201.338ZM765.169 198.174C766.196 198.174 767.017 197.81 767.633 197.082C768.268 196.354 768.585 195.402 768.585 194.226C768.585 193.069 768.268 192.126 767.633 191.398C767.017 190.67 766.196 190.306 765.169 190.306C764.59 190.306 764.012 190.455 763.433 190.754C762.854 191.053 762.416 191.417 762.117 191.846V196.634C762.416 197.063 762.854 197.427 763.433 197.726C764.03 198.025 764.609 198.174 765.169 198.174ZM778.441 201.002H774.885V182.326H778.441V201.002ZM793.643 201.002H790.087V199.602C789.116 200.759 787.688 201.338 785.803 201.338C784.59 201.338 783.498 200.946 782.527 200.162C781.575 199.359 781.099 198.258 781.099 196.858C781.099 195.402 781.566 194.31 782.499 193.582C783.451 192.854 784.552 192.49 785.803 192.49C787.726 192.49 789.154 193.041 790.087 194.142V192.322C790.087 191.631 789.816 191.081 789.275 190.67C788.734 190.259 788.015 190.054 787.119 190.054C785.644 190.054 784.328 190.586 783.171 191.65L781.827 189.27C783.432 187.851 785.402 187.142 787.735 187.142C789.471 187.142 790.89 187.543 791.991 188.346C793.092 189.149 793.643 190.455 793.643 192.266V201.002ZM787.231 198.93C788.556 198.93 789.508 198.538 790.087 197.754V196.074C789.508 195.29 788.556 194.898 787.231 194.898C786.503 194.898 785.896 195.085 785.411 195.458C784.926 195.813 784.683 196.307 784.683 196.942C784.683 197.558 784.926 198.043 785.411 198.398C785.896 198.753 786.503 198.93 787.231 198.93ZM809.854 201.002H806.298V192.826C806.298 191.146 805.468 190.306 803.806 190.306C802.518 190.306 801.492 190.838 800.726 191.902V201.002H797.17V187.478H800.726V189.242C801.902 187.842 803.48 187.142 805.458 187.142C806.914 187.142 808.006 187.525 808.734 188.29C809.481 189.055 809.854 190.11 809.854 191.454V201.002ZM826.069 201.002H822.513V192.826C822.513 191.146 821.682 190.306 820.021 190.306C818.733 190.306 817.706 190.838 816.941 191.902V201.002H813.385V187.478H816.941V189.242C818.117 187.842 819.694 187.142 821.673 187.142C823.129 187.142 824.221 187.525 824.949 188.29C825.696 189.055 826.069 190.11 826.069 191.454V201.002ZM831.364 186.022C830.785 186.022 830.281 185.817 829.852 185.406C829.441 184.977 829.236 184.473 829.236 183.894C829.236 183.315 829.441 182.821 829.852 182.41C830.281 181.999 830.785 181.794 831.364 181.794C831.961 181.794 832.465 181.999 832.876 182.41C833.287 182.821 833.492 183.315 833.492 183.894C833.492 184.473 833.287 184.977 832.876 185.406C832.465 185.817 831.961 186.022 831.364 186.022ZM833.156 201.002H829.6V187.478H833.156V201.002ZM849.366 201.002H845.81V192.826C845.81 191.146 844.979 190.306 843.318 190.306C842.03 190.306 841.003 190.838 840.238 191.902V201.002H836.682V187.478H840.238V189.242C841.414 187.842 842.991 187.142 844.97 187.142C846.426 187.142 847.518 187.525 848.246 188.29C848.993 189.055 849.366 190.11 849.366 191.454V201.002ZM858.441 206.49C856.107 206.49 854.166 205.818 852.617 204.474L854.213 201.898C855.221 203.018 856.63 203.578 858.441 203.578C859.449 203.578 860.317 203.307 861.045 202.766C861.791 202.243 862.165 201.375 862.165 200.162V198.79C861.045 200.209 859.654 200.918 857.993 200.918C856.238 200.918 854.801 200.321 853.681 199.126C852.579 197.913 852.029 196.214 852.029 194.03C852.029 191.865 852.579 190.175 853.681 188.962C854.801 187.749 856.238 187.142 857.993 187.142C859.673 187.142 861.063 187.833 862.165 189.214V187.478H865.749V200.078C865.749 201.31 865.525 202.365 865.077 203.242C864.647 204.119 864.059 204.782 863.313 205.23C862.566 205.678 861.791 205.995 860.989 206.182C860.205 206.387 859.355 206.49 858.441 206.49ZM859.113 197.754C859.691 197.754 860.27 197.605 860.849 197.306C861.427 197.007 861.866 196.643 862.165 196.214V191.846C861.866 191.398 861.427 191.034 860.849 190.754C860.289 190.455 859.71 190.306 859.113 190.306C858.086 190.306 857.255 190.642 856.621 191.314C856.005 191.986 855.697 192.891 855.697 194.03C855.697 195.169 856.005 196.074 856.621 196.746C857.255 197.418 858.086 197.754 859.113 197.754Z" fill="white"/>
<g clip-path="url(#clip2)">
<path d="M778.625 108.736H764C763.439 108.736 762.984 109.2 762.984 109.771C762.984 110.343 763.439 110.807 764 110.807H778.625C779.186 110.807 779.641 110.343 779.641 109.771C779.641 109.2 779.186 108.736 778.625 108.736Z" fill="white"/>
<path d="M775.071 114.008C774.882 113.816 774.62 113.705 774.353 113.705C774.086 113.705 773.824 113.816 773.635 114.008C773.446 114.201 773.338 114.468 773.338 114.74C773.338 115.013 773.446 115.28 773.635 115.472C773.824 115.665 774.086 115.776 774.353 115.776C774.62 115.776 774.882 115.665 775.071 115.472C775.26 115.28 775.369 115.013 775.369 114.74C775.369 114.468 775.26 114.201 775.071 114.008Z" fill="white"/>
<path d="M764.717 97.7566C764.528 97.5641 764.266 97.4533 763.999 97.4533C763.732 97.4533 763.47 97.5641 763.281 97.7566C763.092 97.9491 762.983 98.2162 762.983 98.4885C762.983 98.7607 763.092 99.0278 763.281 99.2203C763.47 99.4129 763.732 99.5236 763.999 99.5236C764.266 99.5236 764.528 99.4129 764.717 99.2203C764.906 99.0278 765.015 98.7607 765.015 98.4885C765.015 98.2162 764.906 97.9491 764.717 97.7566Z" fill="white"/>
<path d="M770.081 113.705H764C763.439 113.705 762.984 114.168 762.984 114.74C762.984 115.312 763.439 115.775 764 115.775H770.081C770.642 115.775 771.097 115.312 771.097 114.74C771.097 114.168 770.642 113.705 770.081 113.705Z" fill="white"/>
<path d="M778.625 119.916H764C763.439 119.916 762.984 120.379 762.984 120.951C762.984 121.523 763.439 121.986 764 121.986H778.625C779.186 121.986 779.641 121.523 779.641 120.951C779.641 120.379 779.186 119.916 778.625 119.916Z" fill="white"/>
<path d="M775.071 125.188C774.882 124.996 774.62 124.885 774.353 124.885C774.086 124.885 773.824 124.996 773.635 125.188C773.446 125.381 773.338 125.648 773.338 125.92C773.338 126.192 773.446 126.459 773.635 126.652C773.824 126.844 774.086 126.955 774.353 126.955C774.62 126.955 774.882 126.844 775.071 126.652C775.26 126.459 775.369 126.192 775.369 125.92C775.369 125.648 775.26 125.381 775.071 125.188Z" fill="white"/>
<path d="M770.081 124.885H764C763.439 124.885 762.984 125.348 762.984 125.92C762.984 126.492 763.439 126.955 764 126.955H770.081C770.642 126.955 771.097 126.492 771.097 125.92C771.097 125.348 770.642 124.885 770.081 124.885Z" fill="white"/>
<path d="M778.625 131.096H764C763.439 131.096 762.984 131.559 762.984 132.131C762.984 132.702 763.439 133.166 764 133.166H778.625C779.186 133.166 779.641 132.702 779.641 132.131C779.641 131.559 779.186 131.096 778.625 131.096Z" fill="white"/>
<path d="M775.071 136.368C774.882 136.175 774.62 136.065 774.353 136.065C774.086 136.065 773.824 136.175 773.635 136.368C773.446 136.56 773.338 136.827 773.338 137.1C773.338 137.372 773.446 137.639 773.635 137.832C773.824 138.024 774.086 138.135 774.353 138.135C774.62 138.135 774.882 138.024 775.071 137.832C775.26 137.639 775.369 137.372 775.369 137.1C775.369 136.827 775.26 136.56 775.071 136.368Z" fill="white"/>
<path d="M770.081 136.064H764C763.439 136.064 762.984 136.528 762.984 137.099C762.984 137.671 763.439 138.135 764 138.135H770.081C770.642 138.135 771.097 137.671 771.097 137.099C771.097 136.528 770.642 136.064 770.081 136.064Z" fill="white"/>
<path d="M780.579 97.0392H772.822C771.701 95.9501 770.185 95.2793 768.517 95.2793H767.628C766.948 93.9069 765.55 93.002 764 93.002C762.45 93.002 761.053 93.9069 760.372 95.2793H759.48C757.813 95.2793 756.297 95.9501 755.176 97.0392H747.421C744.69 97.0392 742.469 99.3034 742.469 102.086V140.955C742.469 143.738 744.69 146.002 747.421 146.002H780.579C783.31 146.002 785.531 143.738 785.531 140.955V102.086C785.531 99.3034 783.31 97.0392 780.579 97.0392ZM759.481 97.3496H761.064C761.52 97.3496 761.921 97.0387 762.042 96.59C762.285 95.6964 763.09 95.0723 764 95.0723C764.91 95.0723 765.715 95.6964 765.958 96.59C766.079 97.0387 766.48 97.3496 766.937 97.3496H768.517C770.722 97.3496 772.536 99.0835 772.717 101.283H755.281C755.462 99.0835 757.276 97.3496 759.481 97.3496ZM783.5 140.955C783.5 142.596 782.19 143.932 780.579 143.932H747.421C745.81 143.932 744.5 142.596 744.5 140.955V102.086C744.5 100.445 745.81 99.1095 747.421 99.1095H753.753C753.42 99.8871 753.234 100.744 753.234 101.646V102.318C753.234 102.89 753.689 103.354 754.25 103.354H773.748C774.309 103.354 774.764 102.89 774.764 102.318V101.646C774.764 100.744 774.578 99.8871 774.245 99.1095H780.579C782.19 99.1095 783.5 100.445 783.5 102.086V140.955Z" fill="white"/>
<path d="M757.542 108.487C757.145 108.083 756.502 108.083 756.105 108.487L751.762 112.914L750.424 111.55C750.028 111.146 749.385 111.146 748.988 111.55C748.591 111.954 748.591 112.61 748.988 113.014L751.044 115.11C751.243 115.312 751.502 115.413 751.762 115.413C752.022 115.413 752.282 115.312 752.48 115.11L757.542 109.951C757.938 109.547 757.938 108.892 757.542 108.487Z" fill="white"/>
<path d="M755.063 131.096H750.188C749.627 131.096 749.172 131.559 749.172 132.131V137.099C749.172 137.671 749.627 138.135 750.188 138.135H755.063C755.624 138.135 756.078 137.671 756.078 137.099V132.131C756.078 131.559 755.624 131.096 755.063 131.096ZM754.047 136.064H751.203V133.166H754.047V136.064Z" fill="white"/>
<path d="M755.063 119.916H750.188C749.627 119.916 749.172 120.379 749.172 120.951V125.92C749.172 126.492 749.627 126.955 750.188 126.955H755.063C755.624 126.955 756.078 126.492 756.078 125.92V120.951C756.078 120.379 755.624 119.916 755.063 119.916ZM754.047 124.885H751.203V121.986H754.047V124.885Z" fill="white"/>
</g>
<g filter="url(#filter15_d)">
<circle cx="410" cy="120.002" r="40" fill="#A8E10C"/>
</g>
<path d="M319.892 201.338C317.055 201.338 314.684 200.442 312.78 198.65C310.895 196.839 309.952 194.515 309.952 191.678C309.952 188.841 310.895 186.526 312.78 184.734C314.684 182.923 317.055 182.018 319.892 182.018C323.383 182.018 325.987 183.539 327.704 186.582L324.288 188.262C323.877 187.478 323.271 186.834 322.468 186.33C321.684 185.807 320.825 185.546 319.892 185.546C318.193 185.546 316.793 186.125 315.692 187.282C314.591 188.439 314.04 189.905 314.04 191.678C314.04 193.451 314.591 194.917 315.692 196.074C316.793 197.231 318.193 197.81 319.892 197.81C320.825 197.81 321.684 197.558 322.468 197.054C323.271 196.55 323.877 195.897 324.288 195.094L327.704 196.746C325.931 199.807 323.327 201.338 319.892 201.338ZM341.467 199.294C340.16 200.657 338.424 201.338 336.259 201.338C334.093 201.338 332.357 200.657 331.051 199.294C329.763 197.913 329.119 196.223 329.119 194.226C329.119 192.229 329.763 190.549 331.051 189.186C332.357 187.823 334.093 187.142 336.259 187.142C338.424 187.142 340.16 187.823 341.467 189.186C342.773 190.549 343.427 192.229 343.427 194.226C343.427 196.223 342.773 197.913 341.467 199.294ZM333.739 197.054C334.355 197.801 335.195 198.174 336.259 198.174C337.323 198.174 338.163 197.801 338.779 197.054C339.413 196.289 339.731 195.346 339.731 194.226C339.731 193.125 339.413 192.201 338.779 191.454C338.163 190.689 337.323 190.306 336.259 190.306C335.195 190.306 334.355 190.689 333.739 191.454C333.123 192.201 332.815 193.125 332.815 194.226C332.815 195.346 333.123 196.289 333.739 197.054ZM366.421 201.002H362.837V192.462C362.837 191.025 362.165 190.306 360.821 190.306C360.242 190.306 359.701 190.465 359.197 190.782C358.711 191.099 358.319 191.463 358.021 191.874V201.002H354.437V192.462C354.437 191.025 353.765 190.306 352.421 190.306C351.861 190.306 351.329 190.465 350.825 190.782C350.321 191.099 349.919 191.473 349.621 191.902V201.002H346.065V187.478H349.621V189.242C349.957 188.757 350.545 188.29 351.385 187.842C352.225 187.375 353.111 187.142 354.045 187.142C356.005 187.142 357.255 187.963 357.797 189.606C358.226 188.934 358.861 188.355 359.701 187.87C360.559 187.385 361.474 187.142 362.445 187.142C363.714 187.142 364.694 187.487 365.385 188.178C366.075 188.85 366.421 189.867 366.421 191.23V201.002ZM390.265 201.002H386.681V192.462C386.681 191.025 386.009 190.306 384.665 190.306C384.086 190.306 383.545 190.465 383.041 190.782C382.555 191.099 382.163 191.463 381.865 191.874V201.002H378.281V192.462C378.281 191.025 377.609 190.306 376.265 190.306C375.705 190.306 375.173 190.465 374.669 190.782C374.165 191.099 373.763 191.473 373.465 191.902V201.002H369.909V187.478H373.465V189.242C373.801 188.757 374.389 188.29 375.229 187.842C376.069 187.375 376.955 187.142 377.889 187.142C379.849 187.142 381.099 187.963 381.641 189.606C382.07 188.934 382.705 188.355 383.545 187.87C384.403 187.385 385.318 187.142 386.289 187.142C387.558 187.142 388.538 187.487 389.229 188.178C389.919 188.85 390.265 189.867 390.265 191.23V201.002ZM406.436 201.002H402.88V199.294C401.667 200.657 400.08 201.338 398.12 201.338C396.664 201.338 395.572 200.965 394.844 200.218C394.116 199.471 393.752 198.426 393.752 197.082V187.478H397.308V195.682C397.308 197.343 398.139 198.174 399.8 198.174C401.051 198.174 402.078 197.661 402.88 196.634V187.478H406.436V201.002ZM422.651 201.002H419.095V192.826C419.095 191.146 418.264 190.306 416.603 190.306C415.315 190.306 414.288 190.838 413.523 191.902V201.002H409.967V187.478H413.523V189.242C414.699 187.842 416.276 187.142 418.255 187.142C419.711 187.142 420.803 187.525 421.531 188.29C422.278 189.055 422.651 190.11 422.651 191.454V201.002ZM427.946 186.022C427.367 186.022 426.863 185.817 426.434 185.406C426.023 184.977 425.818 184.473 425.818 183.894C425.818 183.315 426.023 182.821 426.434 182.41C426.863 181.999 427.367 181.794 427.946 181.794C428.543 181.794 429.047 181.999 429.458 182.41C429.869 182.821 430.074 183.315 430.074 183.894C430.074 184.473 429.869 184.977 429.458 185.406C429.047 185.817 428.543 186.022 427.946 186.022ZM429.738 201.002H426.182V187.478H429.738V201.002ZM439.564 201.338C437.473 201.338 435.756 200.675 434.412 199.35C433.068 198.025 432.396 196.317 432.396 194.226C432.396 192.154 433.068 190.455 434.412 189.13C435.756 187.805 437.473 187.142 439.564 187.142C441.953 187.142 443.736 187.954 444.912 189.578L442.588 191.762C441.935 190.791 440.983 190.306 439.732 190.306C438.649 190.306 437.763 190.67 437.072 191.398C436.4 192.107 436.064 193.05 436.064 194.226C436.064 195.402 436.4 196.354 437.072 197.082C437.763 197.81 438.649 198.174 439.732 198.174C440.945 198.174 441.897 197.689 442.588 196.718L444.912 198.874C443.736 200.517 441.953 201.338 439.564 201.338ZM458.913 201.002H455.357V199.602C454.386 200.759 452.958 201.338 451.073 201.338C449.859 201.338 448.767 200.946 447.797 200.162C446.845 199.359 446.369 198.258 446.369 196.858C446.369 195.402 446.835 194.31 447.769 193.582C448.721 192.854 449.822 192.49 451.073 192.49C452.995 192.49 454.423 193.041 455.357 194.142V192.322C455.357 191.631 455.086 191.081 454.545 190.67C454.003 190.259 453.285 190.054 452.389 190.054C450.914 190.054 449.598 190.586 448.441 191.65L447.097 189.27C448.702 187.851 450.671 187.142 453.005 187.142C454.741 187.142 456.159 187.543 457.261 188.346C458.362 189.149 458.913 190.455 458.913 192.266V201.002ZM452.501 198.93C453.826 198.93 454.778 198.538 455.357 197.754V196.074C454.778 195.29 453.826 194.898 452.501 194.898C451.773 194.898 451.166 195.085 450.681 195.458C450.195 195.813 449.953 196.307 449.953 196.942C449.953 197.558 450.195 198.043 450.681 198.398C451.166 198.753 451.773 198.93 452.501 198.93ZM466.976 201.338C465.725 201.338 464.773 201.021 464.12 200.386C463.466 199.751 463.14 198.837 463.14 197.642V190.586H460.9V187.478H463.14V183.782H466.724V187.478H469.468V190.586H466.724V196.69C466.724 197.119 466.836 197.474 467.06 197.754C467.284 198.034 467.582 198.174 467.956 198.174C468.516 198.174 468.926 198.043 469.188 197.782L469.944 200.47C469.29 201.049 468.301 201.338 466.976 201.338ZM473.665 186.022C473.086 186.022 472.582 185.817 472.153 185.406C471.742 184.977 471.537 184.473 471.537 183.894C471.537 183.315 471.742 182.821 472.153 182.41C472.582 181.999 473.086 181.794 473.665 181.794C474.262 181.794 474.766 181.999 475.177 182.41C475.587 182.821 475.793 183.315 475.793 183.894C475.793 184.473 475.587 184.977 475.177 185.406C474.766 185.817 474.262 186.022 473.665 186.022ZM475.457 201.002H471.901V187.478H475.457V201.002ZM490.463 199.294C489.156 200.657 487.42 201.338 485.255 201.338C483.089 201.338 481.353 200.657 480.047 199.294C478.759 197.913 478.115 196.223 478.115 194.226C478.115 192.229 478.759 190.549 480.047 189.186C481.353 187.823 483.089 187.142 485.255 187.142C487.42 187.142 489.156 187.823 490.463 189.186C491.769 190.549 492.423 192.229 492.423 194.226C492.423 196.223 491.769 197.913 490.463 199.294ZM482.735 197.054C483.351 197.801 484.191 198.174 485.255 198.174C486.319 198.174 487.159 197.801 487.775 197.054C488.409 196.289 488.727 195.346 488.727 194.226C488.727 193.125 488.409 192.201 487.775 191.454C487.159 190.689 486.319 190.306 485.255 190.306C484.191 190.306 483.351 190.689 482.735 191.454C482.119 192.201 481.811 193.125 481.811 194.226C481.811 195.346 482.119 196.289 482.735 197.054ZM507.745 201.002H504.189V192.826C504.189 191.146 503.358 190.306 501.697 190.306C500.409 190.306 499.382 190.838 498.617 191.902V201.002H495.061V187.478H498.617V189.242C499.793 187.842 501.37 187.142 503.349 187.142C504.805 187.142 505.897 187.525 506.625 188.29C507.372 189.055 507.745 190.11 507.745 191.454V201.002Z" fill="white"/>
<g clip-path="url(#clip3)">
<path d="M397.911 126.358C398.396 126.073 398.562 125.439 398.282 124.944C398.002 124.45 397.381 124.28 396.895 124.566C396.409 124.851 396.243 125.485 396.523 125.98C396.803 126.474 397.425 126.644 397.911 126.358V126.358Z" fill="white"/>
<path d="M393.748 133.503L398.863 142.532C399.967 144.483 402.449 145.205 404.413 144.048C406.356 142.904 407.023 140.374 405.899 138.392L402.852 133.013L405.491 131.46C405.977 131.174 406.143 130.541 405.863 130.046L404.542 127.714C404.7 127.683 405.735 127.476 423.995 123.825C426.253 123.7 427.605 121.184 426.465 119.172L423.09 113.214L425.247 109.884C425.458 109.556 425.471 109.135 425.279 108.796L423.248 105.21C423.055 104.87 422.69 104.671 422.307 104.694L418.399 104.933L414.652 98.318C414.11 97.3596 413.137 96.7794 412.052 96.7656C412.039 96.7652 412.026 96.7652 412.013 96.7652C410.964 96.7652 410.012 97.2974 409.448 98.1971L396.18 115.424L387.555 120.499C384.163 122.495 382.987 126.93 384.953 130.397C386.748 133.567 390.534 134.814 393.748 133.503V133.503ZM404.141 139.428C404.702 140.417 404.37 141.683 403.396 142.255C402.42 142.831 401.177 142.477 400.622 141.498L395.544 132.532L399.062 130.462C404.939 140.838 404.046 139.262 404.141 139.428V139.428ZM401.837 131.219L400.821 129.426L402.58 128.391L403.596 130.184L401.837 131.219ZM421.802 106.799L423.206 109.277L421.954 111.209L419.535 106.938L421.802 106.799ZM411.146 99.3321C411.419 98.8776 411.851 98.8307 412.027 98.8355C412.2 98.8376 412.632 98.8926 412.893 99.3527L424.706 120.207C425.091 120.886 424.623 121.74 423.851 121.759C423.713 121.763 423.649 121.788 423.294 121.856L410.799 99.7959C411.061 99.4522 411.095 99.419 411.146 99.3321V99.3321ZM409.447 101.551L421.187 122.277L403.469 125.819L398.081 116.308L409.447 101.551ZM386.712 129.362C386.266 128.576 386.03 127.683 386.03 126.78C386.03 124.933 387.004 123.214 388.571 122.292L396.487 117.634L401.565 126.598L393.649 131.257C391.224 132.684 388.112 131.834 386.712 129.362V129.362Z" fill="white"/>
<path d="M394.764 127.015C394.484 126.52 393.862 126.35 393.377 126.636L391.618 127.671C391.133 127.956 390.51 127.786 390.23 127.292C389.95 126.797 389.329 126.627 388.843 126.913C388.357 127.199 388.191 127.832 388.471 128.327C389.307 129.803 391.172 130.323 392.633 129.464L394.392 128.429C394.878 128.143 395.045 127.51 394.764 127.015V127.015Z" fill="white"/>
<path d="M434.49 98.9796L428.831 102.189C428.341 102.468 428.165 103.098 428.438 103.597C428.71 104.096 429.328 104.277 429.819 103.999L435.478 100.789C435.968 100.511 436.144 99.8801 435.871 99.3807C435.599 98.881 434.98 98.7014 434.49 98.9796V98.9796Z" fill="white"/>
<path d="M433.897 109.701L429.973 108.629C429.431 108.481 428.874 108.809 428.729 109.361C428.584 109.913 428.905 110.481 429.447 110.629L433.372 111.7C433.917 111.849 434.471 111.517 434.615 110.968C434.761 110.416 434.439 109.848 433.897 109.701Z" fill="white"/>
<path d="M424.036 95.2185L422.983 99.2184C422.838 99.7708 423.16 100.338 423.701 100.486C424.243 100.634 424.8 100.307 424.946 99.7546L425.998 95.7547C426.143 95.2023 425.822 94.6346 425.28 94.4866C424.738 94.3386 424.181 94.6661 424.036 95.2185V95.2185Z" fill="white"/>
</g>
<defs>
<filter id="filter0_d" x="172" y="179.002" width="100" height="100" filterUnits="userSpaceOnUse" color-interpolation-filters="sRGB">
<feFlood flood-opacity="0" result="BackgroundImageFix"/>
<feColorMatrix in="SourceAlpha" type="matrix" values="0 0 0 0 0 0 0 0 0 0 0 0 0 0 0 0 0 0 127 0"/>
<feOffset dy="4"/>
<feGaussianBlur stdDeviation="15"/>
<feColorMatrix type="matrix" values="0 0 0 0 0.658824 0 0 0 0 0.882353 0 0 0 0 0.0470588 0 0 0 0.3 0"/>
<feBlend mode="normal" in2="BackgroundImageFix" result="effect1_dropShadow"/>
<feBlend mode="normal" in="SourceGraphic" in2="effect1_dropShadow" result="shape"/>
</filter>
<filter id="filter1_d" x="248" y="335.002" width="131" height="131" filterUnits="userSpaceOnUse" color-interpolation-filters="sRGB">
<feFlood flood-opacity="0" result="BackgroundImageFix"/>
<feColorMatrix in="SourceAlpha" type="matrix" values="0 0 0 0 0 0 0 0 0 0 0 0 0 0 0 0 0 0 127 0"/>
<feOffset dy="4"/>
<feGaussianBlur stdDeviation="15"/>
<feColorMatrix type="matrix" values="0 0 0 0 0.658824 0 0 0 0 0.882353 0 0 0 0 0.0470588 0 0 0 0.3 0"/>
<feBlend mode="normal" in2="BackgroundImageFix" result="effect1_dropShadow"/>
<feBlend mode="normal" in="SourceGraphic" in2="effect1_dropShadow" result="shape"/>
</filter>
<filter id="filter2_d" x="0" y="466.002" width="113" height="113" filterUnits="userSpaceOnUse" color-interpolation-filters="sRGB">
<feFlood flood-opacity="0" result="BackgroundImageFix"/>
<feColorMatrix in="SourceAlpha" type="matrix" values="0 0 0 0 0 0 0 0 0 0 0 0 0 0 0 0 0 0 127 0"/>
<feOffset dy="4"/>
<feGaussianBlur stdDeviation="15"/>
<feColorMatrix type="matrix" values="0 0 0 0 0.658824 0 0 0 0 0.882353 0 0 0 0 0.0470588 0 0 0 0.3 0"/>
<feBlend mode="normal" in2="BackgroundImageFix" result="effect1_dropShadow"/>
<feBlend mode="normal" in="SourceGraphic" in2="effect1_dropShadow" result="shape"/>
</filter>
<filter id="filter3_d" x="555" y="147.002" width="90" height="90" filterUnits="userSpaceOnUse" color-interpolation-filters="sRGB">
<feFlood flood-opacity="0" result="BackgroundImageFix"/>
<feColorMatrix in="SourceAlpha" type="matrix" values="0 0 0 0 0 0 0 0 0 0 0 0 0 0 0 0 0 0 127 0"/>
<feOffset dy="4"/>
<feGaussianBlur stdDeviation="15"/>
<feColorMatrix type="matrix" values="0 0 0 0 0.658824 0 0 0 0 0.882353 0 0 0 0 0.0470588 0 0 0 0.3 0"/>
<feBlend mode="normal" in2="BackgroundImageFix" result="effect1_dropShadow"/>
<feBlend mode="normal" in="SourceGraphic" in2="effect1_dropShadow" result="shape"/>
</filter>
<filter id="filter4_d" x="907" y="0.00195312" width="99" height="99" filterUnits="userSpaceOnUse" color-interpolation-filters="sRGB">
<feFlood flood-opacity="0" result="BackgroundImageFix"/>
<feColorMatrix in="SourceAlpha" type="matrix" values="0 0 0 0 0 0 0 0 0 0 0 0 0 0 0 0 0 0 127 0"/>
<feOffset dy="4"/>
<feGaussianBlur stdDeviation="15"/>
<feColorMatrix type="matrix" values="0 0 0 0 0.658824 0 0 0 0 0.882353 0 0 0 0 0.0470588 0 0 0 0.3 0"/>
<feBlend mode="normal" in2="BackgroundImageFix" result="effect1_dropShadow"/>
<feBlend mode="normal" in="SourceGraphic" in2="effect1_dropShadow" result="shape"/>
</filter>
<filter id="filter5_d" x="948" y="101.002" width="85" height="85" filterUnits="userSpaceOnUse" color-interpolation-filters="sRGB">
<feFlood flood-opacity="0" result="BackgroundImageFix"/>
<feColorMatrix in="SourceAlpha" type="matrix" values="0 0 0 0 0 0 0 0 0 0 0 0 0 0 0 0 0 0 127 0"/>
<feOffset dy="4"/>
<feGaussianBlur stdDeviation="15"/>
<feColorMatrix type="matrix" values="0 0 0 0 0.658824 0 0 0 0 0.882353 0 0 0 0 0.0470588 0 0 0 0.3 0"/>
<feBlend mode="normal" in2="BackgroundImageFix" result="effect1_dropShadow"/>
<feBlend mode="normal" in="SourceGraphic" in2="effect1_dropShadow" result="shape"/>
</filter>
<filter id="filter6_d" x="692" y="254.002" width="99" height="99" filterUnits="userSpaceOnUse" color-interpolation-filters="sRGB">
<feFlood flood-opacity="0" result="BackgroundImageFix"/>
<feColorMatrix in="SourceAlpha" type="matrix" values="0 0 0 0 0 0 0 0 0 0 0 0 0 0 0 0 0 0 127 0"/>
<feOffset dy="4"/>
<feGaussianBlur stdDeviation="15"/>
<feColorMatrix type="matrix" values="0 0 0 0 0.658824 0 0 0 0 0.882353 0 0 0 0 0.0470588 0 0 0 0.3 0"/>
<feBlend mode="normal" in2="BackgroundImageFix" result="effect1_dropShadow"/>
<feBlend mode="normal" in="SourceGraphic" in2="effect1_dropShadow" result="shape"/>
</filter>
<filter id="filter7_d" x="1232" y="260.002" width="130" height="130" filterUnits="userSpaceOnUse" color-interpolation-filters="sRGB">
<feFlood flood-opacity="0" result="BackgroundImageFix"/>
<feColorMatrix in="SourceAlpha" type="matrix" values="0 0 0 0 0 0 0 0 0 0 0 0 0 0 0 0 0 0 127 0"/>
<feOffset dy="4"/>
<feGaussianBlur stdDeviation="15"/>
<feColorMatrix type="matrix" values="0 0 0 0 0.658824 0 0 0 0 0.882353 0 0 0 0 0.0470588 0 0 0 0.3 0"/>
<feBlend mode="normal" in2="BackgroundImageFix" result="effect1_dropShadow"/>
<feBlend mode="normal" in="SourceGraphic" in2="effect1_dropShadow" result="shape"/>
</filter>
<filter id="filter8_d" x="1338" y="52.002" width="123" height="123" filterUnits="userSpaceOnUse" color-interpolation-filters="sRGB">
<feFlood flood-opacity="0" result="BackgroundImageFix"/>
<feColorMatrix in="SourceAlpha" type="matrix" values="0 0 0 0 0 0 0 0 0 0 0 0 0 0 0 0 0 0 127 0"/>
<feOffset dy="4"/>
<feGaussianBlur stdDeviation="15"/>
<feColorMatrix type="matrix" values="0 0 0 0 0.658824 0 0 0 0 0.882353 0 0 0 0 0.0470588 0 0 0 0.3 0"/>
<feBlend mode="normal" in2="BackgroundImageFix" result="effect1_dropShadow"/>
<feBlend mode="normal" in="SourceGraphic" in2="effect1_dropShadow" result="shape"/>
</filter>
<filter id="filter9_d" x="1439" y="386.002" width="100" height="100" filterUnits="userSpaceOnUse" color-interpolation-filters="sRGB">
<feFlood flood-opacity="0" result="BackgroundImageFix"/>
<feColorMatrix in="SourceAlpha" type="matrix" values="0 0 0 0 0 0 0 0 0 0 0 0 0 0 0 0 0 0 127 0"/>
<feOffset dy="4"/>
<feGaussianBlur stdDeviation="15"/>
<feColorMatrix type="matrix" values="0 0 0 0 0.658824 0 0 0 0 0.882353 0 0 0 0 0.0470588 0 0 0 0.3 0"/>
<feBlend mode="normal" in2="BackgroundImageFix" result="effect1_dropShadow"/>
<feBlend mode="normal" in="SourceGraphic" in2="effect1_dropShadow" result="shape"/>
</filter>
<filter id="filter10_d" x="1102" y="227.002" width="100" height="100" filterUnits="userSpaceOnUse" color-interpolation-filters="sRGB">
<feFlood flood-opacity="0" result="BackgroundImageFix"/>
<feColorMatrix in="SourceAlpha" type="matrix" values="0 0 0 0 0 0 0 0 0 0 0 0 0 0 0 0 0 0 127 0"/>
<feOffset dy="4"/>
<feGaussianBlur stdDeviation="15"/>
<feColorMatrix type="matrix" values="0 0 0 0 0.658824 0 0 0 0 0.882353 0 0 0 0 0.0470588 0 0 0 0.3 0"/>
<feBlend mode="normal" in2="BackgroundImageFix" result="effect1_dropShadow"/>
<feBlend mode="normal" in="SourceGraphic" in2="effect1_dropShadow" result="shape"/>
</filter>
<filter id="filter11_d" x="893" y="214.002" width="140" height="140" filterUnits="userSpaceOnUse" color-interpolation-filters="sRGB">
<feFlood flood-opacity="0" result="BackgroundImageFix"/>
<feColorMatrix in="SourceAlpha" type="matrix" values="0 0 0 0 0 0 0 0 0 0 0 0 0 0 0 0 0 0 127 0"/>
<feOffset dy="4"/>
<feGaussianBlur stdDeviation="15"/>
<feColorMatrix type="matrix" values="0 0 0 0 0.658824 0 0 0 0 0.882353 0 0 0 0 0.0470588 0 0 0 0.3 0"/>
<feBlend mode="normal" in2="BackgroundImageFix" result="effect1_dropShadow"/>
<feBlend mode="normal" in="SourceGraphic" in2="effect1_dropShadow" result="shape"/>
</filter>
<filter id="filter12_d" x="438" y="214.002" width="140" height="140" filterUnits="userSpaceOnUse" color-interpolation-filters="sRGB">
<feFlood flood-opacity="0" result="BackgroundImageFix"/>
<feColorMatrix in="SourceAlpha" type="matrix" values="0 0 0 0 0 0 0 0 0 0 0 0 0 0 0 0 0 0 127 0"/>
<feOffset dy="4"/>
<feGaussianBlur stdDeviation="15"/>
<feColorMatrix type="matrix" values="0 0 0 0 0.658824 0 0 0 0 0.882353 0 0 0 0 0.0470588 0 0 0 0.3 0"/>
<feBlend mode="normal" in2="BackgroundImageFix" result="effect1_dropShadow"/>
<feBlend mode="normal" in="SourceGraphic" in2="effect1_dropShadow" result="shape"/>
</filter>
<filter id="filter13_d" x="1069" y="54.002" width="140" height="140" filterUnits="userSpaceOnUse" color-interpolation-filters="sRGB">
<feFlood flood-opacity="0" result="BackgroundImageFix"/>
<feColorMatrix in="SourceAlpha" type="matrix" values="0 0 0 0 0 0 0 0 0 0 0 0 0 0 0 0 0 0 127 0"/>
<feOffset dy="4"/>
<feGaussianBlur stdDeviation="15"/>
<feColorMatrix type="matrix" values="0 0 0 0 0.658824 0 0 0 0 0.882353 0 0 0 0 0.0470588 0 0 0 0.3 0"/>
<feBlend mode="normal" in2="BackgroundImageFix" result="effect1_dropShadow"/>
<feBlend mode="normal" in="SourceGraphic" in2="effect1_dropShadow" result="shape"/>
</filter>
<filter id="filter14_d" x="694" y="54.002" width="140" height="140" filterUnits="userSpaceOnUse" color-interpolation-filters="sRGB">
<feFlood flood-opacity="0" result="BackgroundImageFix"/>
<feColorMatrix in="SourceAlpha" type="matrix" values="0 0 0 0 0 0 0 0 0 0 0 0 0 0 0 0 0 0 127 0"/>
<feOffset dy="4"/>
<feGaussianBlur stdDeviation="15"/>
<feColorMatrix type="matrix" values="0 0 0 0 0.658824 0 0 0 0 0.882353 0 0 0 0 0.0470588 0 0 0 0.3 0"/>
<feBlend mode="normal" in2="BackgroundImageFix" result="effect1_dropShadow"/>
<feBlend mode="normal" in="SourceGraphic" in2="effect1_dropShadow" result="shape"/>
</filter>
<filter id="filter15_d" x="340" y="54.002" width="140" height="140" filterUnits="userSpaceOnUse" color-interpolation-filters="sRGB">
<feFlood flood-opacity="0" result="BackgroundImageFix"/>
<feColorMatrix in="SourceAlpha" type="matrix" values="0 0 0 0 0 0 0 0 0 0 0 0 0 0 0 0 0 0 127 0"/>
<feOffset dy="4"/>
<feGaussianBlur stdDeviation="15"/>
<feColorMatrix type="matrix" values="0 0 0 0 0.658824 0 0 0 0 0.882353 0 0 0 0 0.0470588 0 0 0 0.3 0"/>
<feBlend mode="normal" in2="BackgroundImageFix" result="effect1_dropShadow"/>
<feBlend mode="normal" in="SourceGraphic" in2="effect1_dropShadow" result="shape"/>
</filter>
<clipPath id="clip0">
<rect width="53" height="53" fill="white" transform="translate(937 253.002)"/>
</clipPath>
<clipPath id="clip1">
<rect width="53" height="53" fill="white" transform="translate(1112 93.002)"/>
</clipPath>
<clipPath id="clip2">
<rect width="52" height="53" fill="white" transform="translate(738 93.002)"/>
</clipPath>
<clipPath id="clip3">
<rect width="52" height="53" fill="white" transform="translate(384 93.002)"/>
</clipPath>
</defs>
</svg>
