<svg width="27" height="27" viewBox="0 0 27 27" fill="none" xmlns="http://www.w3.org/2000/svg">
<path d="M0.465538 22.3448H26.5345C26.7915 22.3448 27 22.1364 27 21.8793V5.12069C27 4.86361 26.7915 4.65515 26.5345 4.65515H0.465538C0.208459 4.6552 0 4.86361 0 5.12069V21.8793C0 22.1364 0.208459 22.3448 0.465538 22.3448Z" fill="#C8414B"/>
<path d="M26.9999 8.37952H0V18.621H26.9999V8.37952Z" fill="#FFD250"/>
<path d="M11.4052 13.5L11.7999 11.7239C11.8363 11.5603 11.7118 11.4052 11.5442 11.4052H11.2662C11.0986 11.4052 10.9742 11.5603 11.0105 11.7239L11.4052 13.5Z" fill="#C8414B"/>
<path d="M11.8707 12.5687H10.9397V16.5254H11.8707V12.5687Z" fill="#F5F5F5"/>
<path d="M12.1033 12.1036H10.7068V12.5692H12.1033V12.1036Z" fill="#FAB446"/>
<path d="M12.1033 13.5H9.77563V13.9655H12.1033V13.5Z" fill="#C8414B"/>
<path d="M12.1033 15.3621L10.7068 14.8966V14.431L12.1033 14.8966V15.3621Z" fill="#C8414B"/>
<path d="M4.42228 13.5L4.81699 11.7239C4.85338 11.5603 4.72888 11.4052 4.56129 11.4052H4.28327C4.11573 11.4052 3.99128 11.5603 4.02756 11.7239L4.42228 13.5Z" fill="#C8414B"/>
<path d="M6.05172 12.1035C5.79464 12.1035 5.58618 12.312 5.58618 12.5691V15.5949C5.58618 16.1605 6.11405 17.2242 7.91377 17.2242C9.71348 17.2242 10.2414 16.1605 10.2414 15.5949V12.5691C10.2414 12.312 10.0329 12.1035 9.77582 12.1035H6.05172Z" fill="#F5F5F5"/>
<path d="M7.91377 14.4311H5.58618V12.5691C5.58618 12.312 5.79464 12.1035 6.05172 12.1035H7.91377V14.4311Z" fill="#C8414B"/>
<path d="M7.91382 14.4312H10.2414V15.5949C10.2414 16.2377 9.72039 16.7587 9.07761 16.7587C8.43483 16.7587 7.91382 16.2377 7.91382 15.5949V14.4312Z" fill="#C8414B"/>
<path d="M5.58618 14.431H7.91377V15.5948C7.91377 16.2376 7.39275 16.7586 6.74997 16.7586C6.1072 16.7586 5.58618 16.2376 5.58618 15.5948V14.431Z" fill="#FAB446"/>
<path d="M7.44796 16.5206V14.431H6.98242V16.7351C7.1556 16.7 7.31206 16.6234 7.44796 16.5206Z" fill="#C8414B"/>
<path d="M6.51705 16.7351V14.431H6.05151V16.5206C6.18746 16.6234 6.34392 16.7 6.51705 16.7351Z" fill="#C8414B"/>
<path d="M7.44832 13.5001H6.05176V13.9657H7.44832V13.5001Z" fill="#FFB441"/>
<path d="M7.44832 12.5687H6.05176V13.0343H7.44832V12.5687Z" fill="#FAB446"/>
<path d="M7.2152 12.8456H6.28418V13.6889H7.2152V12.8456Z" fill="#FAB446"/>
<path d="M4.88757 12.5687H3.95654V16.5254H4.88757V12.5687Z" fill="#F5F5F5"/>
<path d="M5.12068 16.2935H3.72412V16.759H5.12068V16.2935Z" fill="#FAB446"/>
<path d="M5.12068 12.1036H3.72412V12.5692H5.12068V12.1036Z" fill="#FAB446"/>
<path d="M5.3535 16.7584H3.49146V17.224H5.3535V16.7584Z" fill="#5064AA"/>
<path d="M12.3363 16.2933H10.9397V16.7589H12.3363V16.2933Z" fill="#FAB446"/>
<path d="M12.3359 16.7584H10.4739V17.224H12.3359V16.7584Z" fill="#5064AA"/>
<path d="M9.31046 11.6379H6.51733V12.1035H9.31046V11.6379Z" fill="#FAB446"/>
<path d="M8.14693 10.2416H7.6814V11.6381H8.14693V10.2416Z" fill="#FFB441"/>
<path d="M7.44801 10.9397C7.06294 10.9397 6.74976 10.6265 6.74976 10.2415C6.74976 9.8564 7.063 9.54321 7.44801 9.54321C7.83308 9.54321 8.14627 9.85645 8.14627 10.2415C8.14632 10.6265 7.83308 10.9397 7.44801 10.9397ZM7.44801 10.0087C7.3196 10.0087 7.21524 10.113 7.21524 10.2415C7.21524 10.3699 7.31955 10.4742 7.44801 10.4742C7.57647 10.4742 7.68078 10.3699 7.68078 10.2415C7.68078 10.1131 7.57647 10.0087 7.44801 10.0087Z" fill="#F5F5F5"/>
<path d="M8.37916 10.9397C7.9941 10.9397 7.68091 10.6265 7.68091 10.2415C7.68091 9.8564 7.99415 9.54321 8.37916 9.54321C8.76422 9.54321 9.07741 9.85645 9.07741 10.2415C9.07741 10.6265 8.76417 10.9397 8.37916 10.9397ZM8.37916 10.0087C8.25075 10.0087 8.14639 10.113 8.14639 10.2415C8.14639 10.3699 8.2507 10.4742 8.37916 10.4742C8.50757 10.4742 8.61193 10.3699 8.61193 10.2415C8.61188 10.1131 8.50757 10.0087 8.37916 10.0087Z" fill="#F5F5F5"/>
<path d="M9.31031 11.4053C8.92525 11.4053 8.61206 11.0921 8.61206 10.707C8.61206 10.322 8.9253 10.0088 9.31031 10.0088C9.69538 10.0088 10.0086 10.322 10.0086 10.707C10.0086 11.0921 9.69533 11.4053 9.31031 11.4053ZM9.31031 10.4743C9.18191 10.4743 9.07755 10.5786 9.07755 10.707C9.07755 10.8355 9.18185 10.9398 9.31031 10.9398C9.43872 10.9398 9.54308 10.8355 9.54308 10.707C9.54308 10.5786 9.43872 10.4743 9.31031 10.4743Z" fill="#F5F5F5"/>
<path d="M6.5171 11.4053C6.13204 11.4053 5.81885 11.0921 5.81885 10.707C5.81885 10.322 6.13209 10.0088 6.5171 10.0088C6.90217 10.0088 7.21536 10.322 7.21536 10.707C7.21541 11.0921 6.90217 11.4053 6.5171 11.4053ZM6.5171 10.4743C6.3887 10.4743 6.28433 10.5786 6.28433 10.707C6.28433 10.8355 6.38864 10.9398 6.5171 10.9398C6.64556 10.9398 6.74987 10.8355 6.74987 10.707C6.74987 10.5786 6.64556 10.4743 6.5171 10.4743Z" fill="#F5F5F5"/>
<path d="M9.31047 15.3621V15.5949C9.31047 15.7232 9.20606 15.8276 9.0777 15.8276C8.94935 15.8276 8.84493 15.7232 8.84493 15.5949V15.3621H9.31047ZM9.77596 14.8966H8.37939V15.5949C8.37939 15.9799 8.69264 16.2931 9.07765 16.2931C9.46272 16.2931 9.7759 15.9799 9.7759 15.5949V14.8966H9.77596Z" fill="#FAB446"/>
<path d="M9.0776 13.9655C8.82052 13.9655 8.61206 13.757 8.61206 13.4999V13.0344C8.61206 12.7773 8.82052 12.5688 9.0776 12.5688C9.33468 12.5688 9.54314 12.7773 9.54314 13.0344V13.4999C9.54314 13.757 9.33468 13.9655 9.0776 13.9655Z" fill="#FFA0D2"/>
<path d="M7.91383 15.1291C8.29947 15.1291 8.61209 14.8164 8.61209 14.4308C8.61209 14.0452 8.29947 13.7325 7.91383 13.7325C7.5282 13.7325 7.21558 14.0452 7.21558 14.4308C7.21558 14.8164 7.5282 15.1291 7.91383 15.1291Z" fill="#5064AA"/>
<path d="M8.14693 9.3103H7.6814V10.7069H8.14693V9.3103Z" fill="#FAB446"/>
<path d="M6.51705 11.638L6.05151 11.1725L6.3242 10.8998C6.74571 10.4783 7.31745 10.2415 7.91361 10.2415C8.50978 10.2415 9.08147 10.4783 9.50303 10.8998L9.77572 11.1725L9.31018 11.638H6.51705Z" fill="#C8414B"/>
<path d="M7.91368 11.4051C8.04223 11.4051 8.14645 11.3009 8.14645 11.1723C8.14645 11.0438 8.04223 10.9396 7.91368 10.9396C7.78512 10.9396 7.68091 11.0438 7.68091 11.1723C7.68091 11.3009 7.78512 11.4051 7.91368 11.4051Z" fill="#FFD250"/>
<path d="M6.98252 11.4051C7.11108 11.4051 7.21529 11.3009 7.21529 11.1723C7.21529 11.0438 7.11108 10.9396 6.98252 10.9396C6.85397 10.9396 6.74976 11.0438 6.74976 11.1723C6.74976 11.3009 6.85397 11.4051 6.98252 11.4051Z" fill="#FFD250"/>
<path d="M8.84459 11.4051C8.97314 11.4051 9.07735 11.3009 9.07735 11.1723C9.07735 11.0438 8.97314 10.9396 8.84459 10.9396C8.71603 10.9396 8.61182 11.0438 8.61182 11.1723C8.61182 11.3009 8.71603 11.4051 8.84459 11.4051Z" fill="#FFD250"/>
<path d="M6.05181 13.5001H3.72412V13.9657H6.05181V13.5001Z" fill="#C8414B"/>
<path d="M3.72437 15.3622L5.12087 14.8967V14.4312L3.72437 14.8967V15.3622Z" fill="#C8414B"/>
</svg>
