<svg width="40" height="40" viewBox="0 0 40 40" fill="none" xmlns="http://www.w3.org/2000/svg">
<path d="M20 40C31.0457 40 40 31.0457 40 20C40 8.9543 31.0457 0 20 0C8.9543 0 0 8.9543 0 20C0 31.0457 8.9543 40 20 40Z" fill="#8544FB"/>
<path d="M39.9941 19.5373L31.1159 10.6738L16.6543 28.3012L27.0671 38.714C34.6248 35.8584 40 28.5574 40 20C40 19.8452 39.9976 19.691 39.9941 19.5373Z" fill="#8544FB"/>
<path d="M29.978 10.4313C30.7753 10.1202 31.5995 10.8178 31.4245 11.6555L27.8487 28.7478C27.6816 29.5491 26.7402 29.91 26.0803 29.4252L20.6823 25.4629L17.9309 28.2724C17.4473 28.7653 16.6137 28.5646 16.4063 27.9074L14.4211 21.6057L9.09984 20.0339C8.40086 19.8278 8.36047 18.8555 9.03789 18.5902L29.978 10.4313ZM27.3531 14.2239C27.586 14.0178 27.3153 13.6542 27.0513 13.8185L15.5658 20.9417C15.3638 21.0669 15.2709 21.3134 15.3422 21.541L16.9085 28.4191C16.9395 28.5242 17.0903 28.5093 17.1038 28.4003L17.454 23.1585C17.4674 23.0293 17.5294 22.9107 17.6264 22.8246L27.3531 14.2239Z" fill="white"/>
<path d="M27.0513 13.8184C27.3153 13.6541 27.586 14.0177 27.353 14.2238L17.6264 22.8245C17.5295 22.9107 17.4675 23.0292 17.454 23.1585L17.1039 28.4002C17.0904 28.5093 16.9396 28.5241 16.9086 28.4191L15.3422 21.5409C15.2708 21.3134 15.3638 21.0669 15.5658 20.9416L27.0513 13.8184Z" fill="#9EC2E5"/>
<path d="M16.9652 28.4904C16.712 28.4002 16.4978 28.1982 16.4062 27.9072L14.4211 21.6055L9.09984 20.0338C8.40086 19.8277 8.36047 18.8554 9.03789 18.5901L29.9779 10.4312C30.4923 10.2305 31.019 10.45 31.2789 10.8568C31.2304 10.7828 31.1725 10.7141 31.1079 10.6535L16.9018 22.2508V22.7585L16.8237 22.7019L16.9018 25.8993V28.4636C16.922 28.473 16.9435 28.4811 16.9651 28.4878V28.4904H16.9652Z" fill="white"/>
<path d="M31.4473 11.3686C31.4514 11.4601 31.4447 11.5571 31.4244 11.6555L27.8486 28.7477C27.6816 29.5491 26.7402 29.91 26.0803 29.4252L20.6823 25.4629L16.9019 22.7585V22.2508L31.1079 10.6534C31.1725 10.7141 31.2305 10.7827 31.279 10.8568C31.2884 10.873 31.2978 10.8877 31.3072 10.9026C31.3153 10.9187 31.3247 10.9349 31.3329 10.9497C31.3409 10.9658 31.349 10.982 31.3558 10.9982C31.3638 11.0157 31.3706 11.0319 31.3773 11.0494C31.3827 11.0642 31.3894 11.0803 31.3948 11.0979C31.4123 11.1504 31.4257 11.2043 31.4352 11.2609C31.4406 11.2959 31.4447 11.3309 31.4473 11.3686Z" fill="#D1D1D1"/>
<path d="M20.6832 25.4628L17.9317 28.2723C17.9088 28.2952 17.8846 28.3181 17.8603 28.3383C17.8361 28.3585 17.8118 28.376 17.7863 28.3935C17.7849 28.3949 17.7849 28.3949 17.7849 28.3949C17.7338 28.4285 17.6813 28.4568 17.626 28.4797C17.5978 28.4905 17.5708 28.5013 17.5425 28.508C17.4253 28.543 17.3055 28.5524 17.187 28.5403C17.156 28.5377 17.125 28.5323 17.0954 28.5269C17.0913 28.5269 17.0874 28.5256 17.0833 28.5242C17.0537 28.5162 17.024 28.5081 16.9944 28.4986C16.9849 28.496 16.9756 28.4932 16.9661 28.4878L16.9028 25.8993V22.7585L20.6832 25.4628Z" fill="#D1D1D1"/>
<path d="M17.8595 28.3383C17.8352 28.3585 17.8109 28.3774 17.7854 28.3949V28.3935C17.811 28.376 17.8352 28.3585 17.8595 28.3383Z" fill="#DADDE0"/>
<path d="M17.7856 28.3935V28.3952C17.7856 28.3952 17.7856 28.3935 17.7839 28.3952C17.7839 28.3952 17.7839 28.3952 17.7856 28.3935Z" fill="#DADDE0"/>
<path d="M17.625 28.4798C17.6802 28.4569 17.7327 28.4286 17.7839 28.3949C17.7327 28.4285 17.6788 28.4568 17.625 28.4798Z" fill="#DADDE0"/>
<path d="M17.186 28.5403C17.3046 28.5524 17.4244 28.543 17.5416 28.508C17.4567 28.5349 17.3692 28.5471 17.2817 28.5471C17.2547 28.5471 17.2278 28.5457 17.2022 28.543C17.1968 28.5431 17.1914 28.5431 17.186 28.5403Z" fill="#DADDE0"/>
<path d="M17.2816 28.548C17.2546 28.548 17.2277 28.5463 17.2021 28.5429C17.2277 28.5463 17.2546 28.548 17.2816 28.548Z" fill="white"/>
<path d="M17.1859 28.5403C17.1913 28.5429 17.1967 28.5429 17.2021 28.5429C17.1738 28.5416 17.1482 28.5376 17.1213 28.5322C17.1428 28.5363 17.1644 28.539 17.1859 28.5403Z" fill="white"/>
<path d="M17.186 28.5403C17.1645 28.539 17.1429 28.5362 17.1214 28.5322C17.112 28.5309 17.1026 28.5296 17.0945 28.5269C17.1241 28.5322 17.155 28.5376 17.186 28.5403Z" fill="#DADDE0"/>
<path d="M16.9934 28.4986C17.023 28.5081 17.0527 28.5161 17.0823 28.5242C17.0702 28.5216 17.0581 28.5188 17.046 28.5162C17.0406 28.5149 17.0352 28.5135 17.0311 28.5108C17.019 28.5081 17.0055 28.504 16.9934 28.4986Z" fill="#DADDE0"/>
<path d="M17.0459 28.516C17.058 28.5187 17.0701 28.5214 17.0822 28.5241C17.0701 28.5227 17.058 28.5201 17.0459 28.516Z" fill="white"/>
<path d="M16.9933 28.4986C17.0055 28.504 17.019 28.508 17.0311 28.5107C17.0108 28.5066 16.9907 28.4999 16.9705 28.4919C16.9785 28.4945 16.9852 28.4972 16.9933 28.4986Z" fill="white"/>
<path d="M16.9934 28.4986C16.9853 28.4972 16.9785 28.4945 16.9705 28.4919C16.9692 28.4932 16.9664 28.4919 16.9651 28.4905V28.4879C16.9745 28.4932 16.9839 28.4958 16.9934 28.4986Z" fill="#DADDE0"/>
<path d="M16.9019 25.8993L16.9651 28.4878C16.9436 28.4811 16.922 28.473 16.9019 28.4636V25.8993Z" fill="#D1D1D1"/>
<path d="M16.9019 22.7585V25.8993L16.8237 22.702L16.9019 22.7585Z" fill="#DADDE0"/>
<path d="M27.353 14.2238L17.6264 22.8246C17.5295 22.9107 17.4675 23.0292 17.454 23.1585L17.1045 28.4007C17.0911 28.5098 16.9402 28.5246 16.9078 28.4196L15.3422 21.541C15.2708 21.3135 15.3638 21.067 15.5658 20.9417L27.0514 13.8185C27.3153 13.6542 27.5861 14.0178 27.353 14.2238Z" fill="#ADBCC9"/>
</svg>
