<svg width="40" height="40" viewBox="0 0 40 40" fill="none" xmlns="http://www.w3.org/2000/svg">
<path d="M20 40C31.0457 40 40 31.0457 40 20C40 8.9543 31.0457 0 20 0C8.9543 0 0 8.9543 0 20C0 31.0457 8.9543 40 20 40Z" fill="#8544FB"/>
<path d="M30.067 13.3077C29.4673 13.4908 28.8419 13.6481 28.2155 13.8047C23.7711 14.7474 17.8451 12.1885 15.2862 16.3636C13.1521 19.6834 12.4783 23.8377 10.0505 26.806L23.018 39.7734C31.6484 38.4672 38.469 31.6456 39.7739 23.0148L30.067 13.3077Z" fill="#8544FB"/>
<path d="M26.6914 11.901H13.3087C10.6831 11.901 8.55469 14.0295 8.55469 16.6551V23.3451C8.55469 25.9707 10.6832 28.0991 13.3087 28.0991H26.6914C29.317 28.0991 31.4455 25.9706 31.4455 23.3451V16.6551C31.4455 14.0295 29.317 11.901 26.6914 11.901ZM23.4762 20.3255L17.2168 23.3109C17.0499 23.3905 16.8572 23.269 16.8572 23.0842V16.9269C16.8572 16.7394 17.055 16.6179 17.222 16.7026L23.4814 19.8746C23.6678 19.9689 23.6645 20.2359 23.4762 20.3255Z" fill="white"/>
<path d="M26.6915 11.901H19.8655V18.042L23.4816 19.8744C23.6679 19.9688 23.6645 20.2357 23.4763 20.3255L19.8655 22.0476V28.0991H26.6915C29.3171 28.0991 31.4456 25.9706 31.4456 23.3451V16.6551C31.4456 14.0295 29.317 11.901 26.6915 11.901Z" fill="white"/>
</svg>
